<?xml version="1.0" standalone="no"?>
<!DOCTYPE svg PUBLIC "-//W3C//DTD SVG 1.1//EN" "http://www.w3.org/Graphics/SVG/1.1/DTD/svg11.dtd" >
<svg xmlns="http://www.w3.org/2000/svg" xmlns:xlink="http://www.w3.org/1999/xlink" version="1.1">
<metadata>
Created by FontForge 20170731 at Wed Dec  8 21:05:24 2021
 By Aleksey,,,
Copyright 2015 The Alumni Sans Project Authors (https://github.com/googlefonts/alumni)
</metadata>
<defs>
<font id="AlumniSans-ThinItalic" horiz-adv-x="410" >
  <font-face 
    font-family="Alumni Sans Thin"
    font-weight="100"
    font-style="italic"
    font-stretch="normal"
    units-per-em="1000"
    panose-1="0 0 0 0 0 0 0 0 0 0"
    ascent="800"
    descent="-200"
    x-height="495"
    cap-height="591"
    bbox="-155 -288 899 796"
    underline-thickness="50"
    underline-position="-175"
    slope="-8"
    unicode-range="U+000D-FB02"
  />
<missing-glyph horiz-adv-x="437" 
d="M58 0l-8 9v611l8 10h320l9 -9v-613l-9 -8h-320zM50 9l321 612h16l-320 -612h-17zM370 9l-320 612h16l321 -612h-17zM69 18h299v593h-299v-593z" />
    <glyph glyph-name="fi" unicode="fi" horiz-adv-x="317" 
d="M32 0l65 457h-31l2 19h31l10 70q6 43 28 66.5t76 23.5q28 0 52.5 -4t51.5 -15l-3 -20q-29 11 -52.5 15.5t-51.5 4.5q-33 0 -52.5 -15.5t-25.5 -55.5l-10 -70h177l-67 -476h-23l65 457h-154l-65 -457h-23z" />
    <glyph glyph-name="fl" unicode="fl" horiz-adv-x="335" 
d="M32 0l65 457h-31l2 19h31l10 70q6 43 28 66.5t76 23.5q19 0 37 -2.5t36.5 -7t36.5 -12.5l-87 -614h-23l86 611l5 -13q-26 8 -48 13.5t-46 5.5q-39 0 -56 -16.5t-22 -57.5l-10 -67h104l-2 -19h-104l-65 -457h-23z" />
    <glyph glyph-name="f_f" unicode="ff" horiz-adv-x="377" 
d="M32 0l65 457h-31l2 19h31l10 70q6 43 28 66.5t61 23.5q17 0 34 -0.5t27 -2.5l-3 -20q-9 2 -24 3t-37 1q-25 0 -41.5 -18t-22.5 -59l-9 -64h150l10 70q6 43 27.5 66.5t60.5 23.5q20 0 40.5 -1t31.5 -3l-3 -20l-22.5 2.5t-48.5 2.5q-28 0 -43 -19t-20 -52l-10 -70h125
l-2 -19h-125l-65 -457h-23l65 457h-150l-65 -457h-23z" />
    <glyph glyph-name="f_f_i" unicode="ffi" horiz-adv-x="490" 
d="M32 0l65 457h-31l2 19h31l10 70q6 43 28 66.5t61 23.5q17 0 33.5 -1t27.5 -3l-3 -20q-14 2 -25.5 3.5t-31.5 1.5q-26 0 -44 -16.5t-24 -60.5l-9 -64h150l10 70q4 29 14.5 49t32 30.5t57.5 10.5q28 0 52.5 -5.5t51.5 -16.5l-3 -20q-29 9 -52.5 16t-51.5 7q-29 0 -45 -11
t-23 -28t-10 -35l-10 -67h177l-67 -476h-23l65 457h-154l-65 -457h-23l65 457h-150l-65 -457h-23z" />
    <glyph glyph-name="f_f_l" unicode="ffl" horiz-adv-x="504" 
d="M32 0l65 457h-31l2 19h31l10 70q6 43 28 66.5t61 23.5q17 0 33.5 -1t27.5 -3l-3 -20q-14 2 -25.5 3.5t-31.5 1.5q-28 0 -44.5 -18t-22.5 -56l-10 -67h150l10 70q6 43 28 66.5t76 23.5q19 0 39 -2.5t37.5 -7t29.5 -12.5l-87 -614h-23l86 611l5 -13q-16 8 -41 13.5t-49 5.5
q-39 0 -55.5 -16.5t-22.5 -57.5l-10 -67h105l-2 -19h-105l-65 -457h-23l65 457h-150l-65 -457h-23z" />
    <glyph glyph-name=".notdef" horiz-adv-x="437" 
d="M58 0l-8 9v611l8 10h320l9 -9v-613l-9 -8h-320zM50 9l321 612h16l-320 -612h-17zM370 9l-320 612h16l321 -612h-17zM69 18h299v593h-299v-593z" />
    <glyph glyph-name=".null" horiz-adv-x="0" 
 />
    <glyph glyph-name="nonmarkingreturn" horiz-adv-x="333" 
 />
    <glyph glyph-name="CR" unicode="&#xd;" horiz-adv-x="600" 
 />
    <glyph glyph-name="space" unicode=" " horiz-adv-x="199" 
 />
    <glyph glyph-name="exclam" unicode="!" horiz-adv-x="146" 
d="M48 195l18 163l38 272h25l-39 -271l-29 -164h-13zM28 -5q-10 0 -15.5 6.5t-4.5 16.5q2 8 9 14.5t17 6.5q9 0 16 -6.5t5 -14.5q-1 -10 -9.5 -16.5t-17.5 -6.5z" />
    <glyph glyph-name="quotedbl" unicode="&#x22;" horiz-adv-x="241" 
d="M150 431l18 200h36l-40 -200h-14zM47 431l17 200h37l-40 -200h-14z" />
    <glyph glyph-name="numbersign" unicode="#" horiz-adv-x="674" 
d="M131 0l63 199h-145l5 16h145l58 186h-145l6 16h145l49 156h14l-48 -156h187l48 156h16l-49 -156h145l-6 -16h-145l-58 -186h145l-5 -16h-145l-62 -199h-16l63 199h-187l-63 -199h-15zM214 215h187l58 186h-187z" />
    <glyph glyph-name="dollar" unicode="$" horiz-adv-x="318" 
d="M113 54q-41 0 -63 13t-27.5 42.5t1.5 77.5l5 39h24l-5 -38q-4 -30 -4.5 -56.5t18 -42.5t68.5 -16q45 0 67 16.5t30 40t11 43.5l3 21q4 25 -2 45t-23.5 36t-49.5 29q-34 15 -58.5 31t-35 39.5t-5.5 59.5l4 31q6 44 36 72t87 28h22q51 -3 72 -31t12 -91l-7 -46h-23l6 43
q9 62 -11 84t-67 22q-55 0 -77.5 -25t-27.5 -62l-3 -20q-4 -31 4.5 -51.5t30.5 -35.5t58 -31q29 -13 49 -27t29 -38t3 -67l-2 -17q-3 -25 -12.5 -52t-35 -46t-79.5 -19zM251 679h22l-198 -740h-22z" />
    <glyph glyph-name="percent" unicode="%" horiz-adv-x="534" 
d="M53 0l406 591h23l-407 -591h-22zM354 -5q-38 0 -53.5 12.5t-17 31t0.5 36.5l20 139q3 18 9.5 36t25.5 30.5t57 12.5t55.5 -9.5t21 -28t-0.5 -45.5l-18 -131q-4 -27 -13 -46t-29 -28.5t-58 -9.5zM357 13q44 0 59 21t20 60l14 101q5 38 -3.5 59.5t-52.5 21.5
q-30 0 -44.5 -13t-20 -31.5t-7.5 -36.5l-15 -102q-2 -18 -2 -36.5t11.5 -31t40.5 -12.5zM130 293q-37 0 -52.5 12.5t-17 31t0.5 36.5l20 139q3 18 9.5 36t25 30.5t56.5 12.5q39 0 56.5 -9.5t21 -28t-0.5 -45.5l-18 -131q-4 -27 -13 -45.5t-29.5 -28.5t-58.5 -10zM132 311
q44 0 60 21t20 60l15 101q5 38 -4 59.5t-53 21.5q-29 0 -43.5 -13t-20 -31.5t-8.5 -36.5l-14 -102q-2 -18 -2.5 -36.5t10.5 -31t40 -12.5z" />
    <glyph glyph-name="ampersand" unicode="&#x26;" horiz-adv-x="493" 
d="M157 -9q-56 0 -84.5 21.5t-35.5 58.5t-1 85q10 68 41 107t80 53q-8 9 -14.5 32t-1.5 55q7 47 39 75t94 28q30 0 52 -4t35.5 -9t18.5 -9l-4 -23q-3 2 -18.5 7t-37.5 10t-48 5q-40 0 -63.5 -15.5t-33 -39t-7.5 -49.5t12 -48q5 -10 22 -35t37.5 -54t38 -52t22.5 -30l17 119
h131l-4 -21h-106q-5 -37 -8 -59t-5 -35.5t-5 -28.5q29 -38 54 -67.5t38 -40.5l-3 -29q-12 3 -38.5 33t-58.5 71q-15 -47 -41.5 -71t-56.5 -32t-57 -8zM159 11q55 0 90 31t45 83q-37 49 -72 95.5t-53 73.5q-42 -10 -70.5 -42t-37.5 -98q-10 -73 17.5 -108t80.5 -35z" />
    <glyph glyph-name="quotesingle" unicode="'" horiz-adv-x="137" 
d="M47 431l17 200h37l-40 -200h-14z" />
    <glyph glyph-name="parenleft" unicode="(" horiz-adv-x="344" 
d="M218 -122q-55 5 -92.5 37t-58.5 83.5t-26 116t5 134.5q10 74 37.5 145t68 130t88.5 97.5t99 45.5l-3 -17q-46 -13 -89 -50.5t-78.5 -92t-60.5 -121t-35 -138.5q-9 -65 -5 -125.5t21.5 -110t50 -80.5t80.5 -37z" />
    <glyph glyph-name="parenright" unicode=")" horiz-adv-x="333" 
d="M-6 -122l3 17q47 13 89.5 50.5t78 92t60.5 121t35 138.5q9 65 5 125.5t-21.5 109.5t-50 80.5t-80.5 37.5l2 17q55 -5 92.5 -37t58.5 -83.5t26 -116t-5 -134.5q-10 -73 -37.5 -144.5t-68 -130.5t-88.5 -97.5t-99 -45.5z" />
    <glyph glyph-name="asterisk" unicode="*" horiz-adv-x="532" 
d="M122 114l-28 22l162 167l-202 51l18 37l188 -82l15 215h40l-47 -215l212 82l6 -36l-215 -52l114 -166l-34 -22l-88 181z" />
    <glyph glyph-name="plus" unicode="+" horiz-adv-x="398" 
d="M165 131l21 147h-137l2 23h137l21 148h24l-20 -148h137l-3 -23h-137l-21 -147h-24z" />
    <glyph glyph-name="comma" unicode="," horiz-adv-x="157" 
d="M1 -99q10 16 23 36t15 36q2 12 -0.5 17.5t-5.5 10t-3 14.5q0 8 6 14.5t16 6.5t16 -6t6 -17q0 -16 -9.5 -36t-23 -39.5t-26.5 -36.5h-14z" />
    <glyph glyph-name="hyphen" unicode="-" horiz-adv-x="298" 
d="M48 243l3 21h199l-2 -21h-200z" />
    <glyph glyph-name="period" unicode="." horiz-adv-x="147" 
d="M41 -5q-10 0 -16.5 6.5t-6.5 15.5t6.5 15.5t16.5 6.5q9 0 16 -6.5t7 -15.5t-7 -15.5t-16 -6.5z" />
    <glyph glyph-name="slash" unicode="/" horiz-adv-x="461" 
d="M2 -46l439 677h26l-440 -677h-25z" />
    <glyph glyph-name="zero" unicode="0" horiz-adv-x="406" 
d="M166 -12q-38 0 -68 18.5t-44.5 57t-6.5 96.5l38 267q12 88 61 130t108 42t95 -42.5t24 -129.5l-38 -267q-8 -59 -33 -97.5t-60.5 -56.5t-75.5 -18zM169 6q52 0 92 40.5t50 113.5l37 266q11 74 -18 114.5t-80 40.5q-50 0 -90.5 -40.5t-51.5 -114.5l-36 -266
q-11 -73 18 -113.5t79 -40.5z" />
    <glyph glyph-name="one" unicode="1" horiz-adv-x="227" 
d="M89 0l76 541h-90l2 15h66q17 0 23.5 6.5t12.5 28.5h18l-84 -591h-24z" />
    <glyph glyph-name="two" unicode="2" horiz-adv-x="368" 
d="M19 0q4 27 7.5 53.5t7.5 54.5q7 47 26 74.5t50 46t71 37.5q37 15 67.5 38.5t51 56.5t26.5 74l2 13q8 59 -14 92.5t-81 33.5q-52 0 -86.5 -28.5t-42.5 -87.5l-8 -54h-24l7 52q11 71 52 105t105 34q50 0 77.5 -17.5t37 -50.5t2.5 -82q-6 -42 -25 -78.5t-49 -64.5t-69 -47
q-36 -15 -68 -32.5t-54 -44t-29 -69.5q-3 -21 -6.5 -42.5t-6.5 -43.5h255l-4 -23h-278z" />
    <glyph glyph-name="three" unicode="3" horiz-adv-x="390" 
d="M158 -8q-54 0 -83 20t-37.5 54t-3.5 74l8 53h26l-9 -61q-7 -55 19 -86.5t82 -33.5q53 0 90 31.5t45 87.5l7 53q8 53 -21 83t-82 32h-66l3 23h67q26 0 51 11t44 32q14 16 23 34.5t12 39.5l4 30q6 44 -16.5 75t-80.5 31t-90 -31t-38 -76l-5 -43h-27l4 35q9 63 47 99t111 36
t101 -36t19 -99l-2 -19q-7 -53 -39 -85t-71 -46q47 -11 66 -47t11 -87l-5 -36q-5 -40 -23 -74t-52 -54t-89 -20z" />
    <glyph glyph-name="four" unicode="4" horiz-adv-x="342" 
d="M203 0l18 122h-219l3 18l291 451h15l-63 -450h57l-3 -19h-57l-18 -122h-24zM31 141h193l53 380z" />
    <glyph glyph-name="five" unicode="5" horiz-adv-x="395" 
d="M165 -8q-46 0 -77 13.5t-43 48.5t-3 99l2 20h25l-2 -17q-11 -76 12 -109.5t90 -33.5q63 0 95 39t42 110l10 76q6 38 0.5 69.5t-28.5 50t-71 18.5q-44 0 -79.5 -23t-50.5 -61h-22l42 299h264l-4 -23h-239l-32 -230q23 29 55 43t70 14q66 0 99 -33t21 -122l-11 -76
q-10 -72 -35.5 -109t-59.5 -50t-70 -13z" />
    <glyph glyph-name="six" unicode="6" horiz-adv-x="401" 
d="M166 -8q-55 0 -83.5 20t-36.5 54t-2 74l43 308q10 68 55 106.5t111 38.5q64 0 95 -34t21 -105l-6 -37h-24l6 41q8 59 -17 86.5t-78 27.5q-56 0 -93 -34.5t-45 -84.5l-22 -156q23 29 57 46.5t74 17.5q59 0 94 -38.5t27 -102.5l-11 -80q-6 -40 -24 -74t-52 -54t-89 -20z
M168 11q53 0 91 32t48 96l11 80q8 59 -21 89t-82 32q-51 0 -88.5 -30t-45.5 -83l-12 -88q-9 -61 17.5 -93.5t81.5 -34.5z" />
    <glyph glyph-name="seven" unicode="7" horiz-adv-x="279" 
d="M25 0l246 570h-210l2 21h238l-4 -23l-244 -568h-28z" />
    <glyph glyph-name="eight" unicode="8" horiz-adv-x="395" 
d="M163 -8q-54 0 -83 20t-37.5 54t-3.5 74l5 36q5 30 17 56.5t33 45.5q13 11 29.5 19.5t36.5 12.5q-16 6 -29.5 16t-23.5 23q-13 17 -18.5 40t-1.5 53l2 18q6 42 25 72.5t52 46.5t81 16q49 0 77 -16t38.5 -46.5t4.5 -72.5l-2 -18q-5 -35 -21 -61.5t-39 -43.5t-50 -27
q24 -6 40.5 -18t26 -29.5t12 -39t-1.5 -47.5l-5 -36q-5 -40 -23 -73.5t-52 -54t-89 -20.5zM165 11q53 0 90 31.5t45 86.5l7 55q8 53 -20.5 82.5t-80.5 31.5q-51 0 -89 -30.5t-46 -83.5l-7 -55q-7 -53 19 -84.5t82 -33.5zM209 322q48 0 85 34t44 84l4 30q6 44 -16.5 75
t-80.5 31t-89.5 -31t-37.5 -75l-4 -30q-7 -51 21.5 -84.5t73.5 -33.5z" />
    <glyph glyph-name="nine" unicode="9" horiz-adv-x="400" 
d="M160 -8q-64 0 -95 34t-21 105l6 40h24l-6 -44q-8 -58 17 -86t77 -28q56 0 94 34.5t45 84.5l22 157q-23 -30 -56.5 -47t-74.5 -17q-39 0 -68.5 17.5t-43.5 49.5t-9 74l11 79q6 41 24 74.5t52.5 53.5t88.5 20q55 0 83.5 -20t36.5 -53.5t2 -74.5l-43 -308
q-10 -68 -55 -106.5t-111 -38.5zM198 245q50 0 88.5 30.5t45.5 83.5l12 87q9 62 -17 94t-82 34q-53 0 -91 -32t-48 -96l-11 -80q-8 -58 21.5 -88.5t81.5 -32.5z" />
    <glyph glyph-name="colon" unicode=":" horiz-adv-x="147" 
d="M81 281q-10 0 -16.5 6.5t-6.5 15.5t6.5 15.5t16.5 6.5q9 0 16 -6.5t7 -15.5t-7 -15.5t-16 -6.5zM41 -5q-10 0 -16.5 6.5t-6.5 15.5t6.5 15.5t16.5 6.5q9 0 16 -6.5t7 -15.5t-7 -15.5t-16 -6.5z" />
    <glyph glyph-name="semicolon" unicode=";" horiz-adv-x="157" 
d="M88 281q-10 0 -16.5 6.5t-6.5 15.5t6.5 15.5t16.5 6.5q9 0 16 -6.5t7 -15.5t-7 -15.5t-16 -6.5zM1 -99q10 16 23 36t15 36q2 12 -0.5 17.5t-5.5 10t-3 14.5q0 8 6 14.5t16 6.5t16 -6t6 -17q0 -16 -9.5 -36t-23 -39.5t-26.5 -36.5h-14z" />
    <glyph glyph-name="less" unicode="&#x3c;" horiz-adv-x="354" 
d="M270 154l-213 159l4 27l258 159l-5 -31l-229 -142l190 -140z" />
    <glyph glyph-name="equal" unicode="=" horiz-adv-x="398" 
d="M64 391l3 22h298l-3 -22h-298zM33 173l3 23h298l-3 -23h-298z" />
    <glyph glyph-name="greater" unicode="&#x3e;" horiz-adv-x="354" 
d="M35 154l4 32l229 140l-189 142l4 31l214 -159l-5 -27z" />
    <glyph glyph-name="question" unicode="?" horiz-adv-x="365" 
d="M105 144l18 122h28.5h28.5q22 1 49 13t48.5 39.5t27.5 72.5l9 57q8 59 -15.5 92t-82.5 33q-52 0 -82 -28.5t-38 -85.5l-5 -36h-24l4 33q21 139 148 139q72 0 100.5 -35.5t17.5 -112.5l-10 -69q-7 -46 -33 -75t-56.5 -42t-53.5 -14q-10 0 -20.5 -0.5t-21.5 -0.5l-15 -102
h-22zM95 -3q-10 0 -15 6t-4 16q1 9 8.5 15.5t17.5 6.5q9 0 15 -6.5t5 -15.5q-1 -10 -9.5 -16t-17.5 -6z" />
    <glyph glyph-name="at" unicode="@" horiz-adv-x="700" 
d="M302 -64q-115 0 -174.5 36.5t-76 107t-2.5 171.5q23 162 105.5 252t238.5 90q87 0 151 -30t94 -95.5t15 -171.5q-7 -54 -25.5 -104.5t-50 -83.5t-78.5 -33q-25 0 -39 11t-19.5 28t-6 33.5t0.5 26.5l11 7q-28 -45 -66.5 -63t-76.5 -18q-46 0 -71 20t-17 74q4 29 19 49
t46.5 36t82.5 31q25 6 44 13.5t32 15.5q11 7 15.5 16t6.5 20q3 26 -15.5 43.5t-65.5 17.5q-53 0 -78 -19t-30 -55l-5 -30h-23l5 29q4 31 18.5 52.5t43 32.5t74.5 11q43 0 66 -11t31 -33.5t3 -56.5l-26 -182q-5 -41 8.5 -60t38.5 -19t49.5 20.5t44.5 65t30 116.5
q12 82 -8.5 144.5t-75.5 98t-148 35.5q-92 0 -158.5 -31.5t-108 -103t-58.5 -192.5q-13 -91 -1 -149t44 -89t80.5 -43t108.5 -12q19 0 48.5 3t63.5 8.5t66 13.5t56 19l-4 -24q-19 -7 -52.5 -16.5t-79 -16t-101.5 -6.5zM314 120q34 0 61.5 15t44.5 36.5t20 41.5l15 108
q-13 -7 -39 -15t-53 -17q-43 -15 -68.5 -28t-38.5 -29.5t-17 -44.5q-5 -37 14 -52t61 -15z" />
    <glyph glyph-name="A" unicode="A" horiz-adv-x="352" 
d="M-18 0l233 591h20l64 -591h-24l-18 158h-189l-63 -158h-23zM73 175h183l-40 359z" />
    <glyph glyph-name="B" unicode="B" horiz-adv-x="416" 
d="M43 0l83 591h163q44 0 73 -21.5t21 -75.5l-10 -75q-4 -29 -16 -50.5t-26 -34.5q-18 -15 -39.5 -19t-33.5 -4v3q23 0 43 -4.5t30 -17.5q11 -15 16 -35.5t1 -47.5l-12 -89q-7 -52 -26.5 -77.5t-48 -34t-64.5 -8.5h-154zM69 18h129q30 0 53.5 7.5t39 30t21.5 67.5l13 88
q8 54 -22 72t-77 18h-117zM112 320h117q53 0 83 26t36 70l11 74q6 42 -16.5 62.5t-56.5 20.5h-139z" />
    <glyph glyph-name="C" unicode="C" horiz-adv-x="402" 
d="M167 -12q-39 0 -68.5 9t-43.5 37t-6 86l50 349q8 58 30 85.5t54.5 36t71.5 8.5q40 0 69.5 -9t43.5 -36.5t6 -84.5l-13 -90h-24l12 88q8 51 -3.5 75.5t-36 32t-57.5 7.5q-34 0 -61 -7.5t-44.5 -32t-25.5 -75.5l-48 -346q-7 -51 3.5 -75.5t35.5 -32t58 -7.5q34 0 61 7.5
t45 32t25 75.5l9 70h24l-10 -71q-8 -59 -29.5 -87t-54 -36.5t-73.5 -8.5z" />
    <glyph glyph-name="D" unicode="D" horiz-adv-x="422" 
d="M43 0l84 591h155q36 0 61.5 -10.5t37 -38.5t3.5 -80l-46 -332q-7 -52 -27 -80.5t-49 -39t-65 -10.5h-154zM70 18h130q44 0 74 23.5t40 90.5l46 326q10 67 -14.5 91t-68.5 24h-130z" />
    <glyph glyph-name="E" unicode="E" horiz-adv-x="349" 
d="M43 0l84 591h243l-4 -19h-218l-35 -251h168l-2 -19h-169l-39 -283h218l-3 -19h-243z" />
    <glyph glyph-name="F" unicode="F" horiz-adv-x="338" 
d="M43 0l84 591h243l-4 -19h-218l-35 -251h168l-2 -19h-169l-42 -302h-25z" />
    <glyph glyph-name="G" unicode="G" horiz-adv-x="406" 
d="M165 -12q-38 0 -67 9t-43 37t-6 85l50 350q8 58 29.5 85.5t54.5 36t73 8.5t69.5 -9t43 -36.5t5.5 -84.5l-10 -69h-24l9 66q8 51 -3 75.5t-35.5 32t-58.5 7.5t-61 -7.5t-45 -32t-25 -75.5l-48 -345q-7 -51 3.5 -75.5t35.5 -32t58 -7.5q50 0 86.5 30t44.5 85l18 128h-97
l2 18h121l-37 -267h-17l8 64q-7 -9 -14 -18.5t-13 -16.5q-20 -21 -46 -31t-61 -10z" />
    <glyph glyph-name="H" unicode="H" horiz-adv-x="433" 
d="M43 0l84 591h24l-38 -270h228l39 270h23l-84 -591h-23l42 301h-228l-43 -301h-24z" />
    <glyph glyph-name="I" unicode="I" horiz-adv-x="181" 
d="M43 0l84 591h24l-84 -591h-24z" />
    <glyph glyph-name="J" unicode="J" horiz-adv-x="201" 
d="M8 -1h-16.5t-17.5 1l3 20l34 -1q32 -1 48.5 12.5t21.5 50.5l72 509h24l-66 -473q-6 -44 -15 -70.5t-29 -37.5t-59 -11z" />
    <glyph glyph-name="K" unicode="K" horiz-adv-x="349" 
d="M269 0l-138 308l216 283h28l-218 -285l141 -306h-29zM43 0l84 591h24l-84 -591h-24z" />
    <glyph glyph-name="L" unicode="L" horiz-adv-x="296" 
d="M43 0l84 591h24l-80 -572h187l-3 -19h-212z" />
    <glyph glyph-name="M" unicode="M" horiz-adv-x="527" 
d="M43 0l84 591h23l84 -553l244 553h19l-84 -591h-23l71 505l-222 -505h-21l-80 505l-71 -505h-24z" />
    <glyph glyph-name="N" unicode="N" horiz-adv-x="433" 
d="M43 0l84 591h22l155 -537l76 537h23l-84 -591h-24l-153 526l-75 -526h-24z" />
    <glyph glyph-name="O" unicode="O" 
d="M167 -12q-39 0 -69 9t-43.5 37t-5.5 86l50 349q8 58 30 85.5t54.5 36t71.5 8.5q40 0 69.5 -9t43.5 -36.5t6 -84.5l-49 -349q-8 -59 -30 -87t-54.5 -36.5t-73.5 -8.5zM170 6q34 0 61 7.5t45 32t25 75.5l48 345q7 51 -4 75.5t-35.5 32t-57.5 7.5q-34 0 -61 -7.5t-45 -32
t-25 -75.5l-48 -345q-7 -51 4 -75.5t35.5 -32t57.5 -7.5z" />
    <glyph glyph-name="P" unicode="P" horiz-adv-x="379" 
d="M43 0l84 591h164q44 0 72.5 -21.5t20.5 -75.5l-16 -113q-4 -30 -17 -56t-43 -42t-84 -16h-118l-38 -267h-25zM108 285h117q52 0 82.5 25.5t37.5 75.5l14 103q6 43 -16.5 63.5t-55.5 20.5h-139z" />
    <glyph glyph-name="Q" unicode="Q" 
d="M261 -112l-46 103q-11 -1 -22.5 -2t-25.5 -1q-39 0 -68.5 9t-43.5 37t-6 86l50 349q8 58 30 85.5t54.5 36t71.5 8.5q40 0 69.5 -9t43.5 -36.5t6 -84.5l-49 -349q-8 -59 -30 -86.5t-55 -36.5l45 -96zM170 6q35 0 61.5 7.5t44.5 32t25 75.5l48 345q8 51 -3.5 75.5t-36 32
t-57.5 7.5q-34 0 -61 -7.5t-44.5 -32t-25.5 -75.5l-48 -345q-7 -51 3.5 -75.5t35.5 -32t58 -7.5z" />
    <glyph glyph-name="R" unicode="R" 
d="M43 0l84 591h164q44 0 72.5 -21.5t20.5 -75.5l-14 -98q-7 -55 -45.5 -80t-90.5 -25l1 2q32 1 45 -21.5t21 -68.5l35 -203h-24l-33 201q-3 21 -10 40.5t-21 32.5t-39 13h-101l-41 -287h-24zM110 304h118q52 0 82 22.5t37 77.5l12 86q6 43 -16.5 63t-55.5 20h-140z" />
    <glyph glyph-name="S" unicode="S" horiz-adv-x="362" 
d="M152 -6q-45 0 -74.5 16t-40.5 53.5t-1 102.5l5 32h22l-5 -32q-9 -59 0.5 -92.5t33.5 -47t58 -13.5q44 0 80.5 30t47.5 106q7 49 -4.5 75t-37 41t-62.5 30q-28 12 -52.5 28t-37 44.5t-6.5 75.5q7 48 25 81t49 50t77 17q60 0 89 -33.5t21 -92.5l-8 -61h-11h-11l8 59
q7 51 -16.5 80t-74.5 29q-56 0 -86 -32t-40 -96q-6 -43 7 -68.5t37 -40t52 -25.5q43 -18 68.5 -36.5t34.5 -46.5t2 -77q-8 -58 -30.5 -92t-53.5 -49t-65 -15z" />
    <glyph glyph-name="T" unicode="T" horiz-adv-x="262" 
d="M82 0l81 572h-105l3 19h237l-4 -19h-107l-81 -572h-24z" />
    <glyph glyph-name="U" unicode="U" horiz-adv-x="418" 
d="M173 -12q-27 0 -51 4.5t-41.5 17.5t-25.5 37.5t-2 64.5l67 479h24l-67 -478q-6 -45 6.5 -68t37.5 -31t54 -8q30 0 57 8t46.5 31t25.5 68l67 478h23l-67 -479q-6 -40 -20 -64.5t-35 -37.5t-46.5 -17.5t-52.5 -4.5z" />
    <glyph glyph-name="V" unicode="V" horiz-adv-x="310" 
d="M109 0l-36 591h22l34 -540h-4l186 540h23l-205 -591h-20z" />
    <glyph glyph-name="W" unicode="W" horiz-adv-x="513" 
d="M85 0l-12 591h22l12 -549l189 549h17l33 -548l168 548h22l-180 -591h-27l-33 526l-182 -526h-29z" />
    <glyph glyph-name="X" unicode="X" horiz-adv-x="287" 
d="M-14 0l143 298l-48 293h23l47 -287l140 287h22l-142 -294l56 -297h-24l-54 288l-138 -288h-25z" />
    <glyph glyph-name="Y" unicode="Y" horiz-adv-x="296" 
d="M95 0l37 265l-63 326h27l52 -291l1 -7l4 7l143 291h26l-165 -327l-38 -264h-24z" />
    <glyph glyph-name="Z" unicode="Z" horiz-adv-x="266" 
d="M-14 0l4 22l271 550h-182l3 19h210l-3 -22l-275 -550h198l-4 -19h-222z" />
    <glyph glyph-name="bracketleft" unicode="[" horiz-adv-x="269" 
d="M2 -57l96 687h169l-2 -18h-147l-91 -651h147l-3 -18h-169z" />
    <glyph glyph-name="backslash" unicode="\" horiz-adv-x="472" 
d="M346 -46l-248 677h26l247 -677h-25z" />
    <glyph glyph-name="bracketright" unicode="]" horiz-adv-x="269" 
d="M2 -57l2 18h147l91 651h-147l3 18h169l-96 -687h-169z" />
    <glyph glyph-name="asciicircum" unicode="^" horiz-adv-x="375" 
d="M37 495l154 166h18l104 -166h-29l-91 136l-125 -136h-31z" />
    <glyph glyph-name="underscore" unicode="_" horiz-adv-x="744" 
d="M48 -82l3 12h645l-3 -12h-645z" />
    <glyph glyph-name="grave" unicode="`" horiz-adv-x="88" 
d="M115 544l-61 87h32l44 -87h-15z" />
    <glyph glyph-name="a" unicode="a" horiz-adv-x="350" 
d="M113 -8q-9 0 -26 2.5t-32.5 13t-24 34t-1.5 66.5l45 276q9 57 27.5 82.5t43.5 32t53 6.5q30 0 60.5 -10.5t37.5 -39.5l5 40h25l-70 -495h-25l13 93q-8 -21 -24 -44.5t-42 -40t-65 -16.5zM122 10q29 0 51 16t37.5 40t25.5 50.5t15.5 48t6.5 31.5l32 226q-2 7 -9 22.5
t-25.5 29.5t-58.5 14t-60.5 -15t-28.5 -40t-13 -56l-42 -271q-5 -34 1.5 -54t19.5 -28.5t26.5 -11t21.5 -2.5z" />
    <glyph glyph-name="b" unicode="b" horiz-adv-x="355" 
d="M150 -7q-49 0 -68.5 15.5t-25.5 38.5l-9 -47h-18l89 630h23l-24 -166q14 18 39.5 29.5t66.5 11.5q42 0 64 -11.5t31 -30t9 -41.5t-3 -47l-35 -250q-3 -24 -10 -47.5t-21 -42.5t-40 -30.5t-68 -11.5zM152 13q50 0 72.5 18t30 45.5t11.5 55.5l33 233q3 21 4.5 42.5t-4 39
t-24 28t-56.5 10.5q-45 0 -68 -15t-31.5 -38t-12.5 -49l-31 -222q-3 -24 -5.5 -50t2 -48.5t23 -36t56.5 -13.5z" />
    <glyph glyph-name="c" unicode="c" horiz-adv-x="334" 
d="M134 -9q-34 0 -56.5 6t-34.5 20.5t-14.5 40t2.5 63.5l37 264q10 69 40 94.5t98 25.5q67 0 89.5 -25.5t12.5 -94.5l-8 -58h-24l8 57q8 54 -7 78.5t-74 24.5q-58 0 -80.5 -24.5t-30.5 -78.5l-37 -265q-8 -60 7 -84t73 -24q59 0 81 24t31 84l8 54h24l-7 -52q-7 -51 -22 -79
t-43 -39.5t-73 -11.5z" />
    <glyph glyph-name="d" unicode="d" horiz-adv-x="355" 
d="M130 -8q-41 0 -63 11t-30.5 30t-8.5 43t4 49l35 250q5 32 15.5 61.5t38.5 49t83 19.5q41 0 63.5 -11.5t31.5 -29.5l23 166h23l-89 -630h-17l4 47q-8 -15 -21.5 -27.5t-35.5 -20t-56 -7.5zM133 10q39 0 62 14t34.5 36.5t17 49t8.5 50.5q9 66 18 131t19 131q-1 13 -9 28
t-26.5 26t-53.5 11q-50 0 -72.5 -18.5t-29.5 -46.5t-11 -57l-33 -234q-3 -22 -4.5 -43.5t4 -39t23 -28t53.5 -10.5z" />
    <glyph glyph-name="e" unicode="e" horiz-adv-x="336" 
d="M134 -9q-45 0 -70 11.5t-32.5 39.5t-0.5 79l37 264q10 69 44.5 93t97.5 24q72 0 95.5 -31t7.5 -104q-10 -44 -40.5 -70.5t-69.5 -41t-75.5 -21t-57.5 -9.5l-15 -105q-9 -61 6.5 -85t73.5 -24q59 0 81.5 24t30.5 85l7 53h24l-7 -52q-7 -51 -21.5 -79t-42 -39.5
t-73.5 -11.5zM73 247q26 3 59.5 9.5t66 20t56.5 36t32 56.5q14 56 -1 85.5t-75 29.5q-57 0 -84 -23t-35 -78z" />
    <glyph glyph-name="f" unicode="f" horiz-adv-x="204" 
d="M32 0l65 457h-31l2 19h31l10 70q4 29 15 49t29.5 30.5t44.5 10.5q13 0 26.5 -0.5t25.5 -1.5t19 -2l-3 -20q-13 2 -28.5 3.5t-38.5 1.5q-28 0 -45 -16.5t-22 -57.5l-10 -67h125l-2 -19h-125l-65 -457h-23z" />
    <glyph glyph-name="g" unicode="g" horiz-adv-x="344" 
d="M103 -116q-9 0 -20.5 1t-22 2t-18 2t-10.5 2l2 18q11 -1 30.5 -4t37.5 -3q12 0 31.5 1.5t40.5 12t38 35.5t23 72l9 66q-10 -24 -27 -39.5t-38.5 -22.5t-47.5 -7q-16 0 -35 2.5t-35.5 13t-24.5 34.5t-2 67l34 244q8 53 25 78.5t43.5 34t60.5 8.5q21 0 42 -4.5t37 -15
t19 -30.5l10 40h19l-66 -473q-6 -41 -21.5 -67.5t-37.5 -41t-47 -20.5t-49 -6zM135 39q44 0 68.5 22t36.5 55t16 65l34 239q-3 13 -11.5 28t-27.5 26t-54 11q-49 0 -73 -22.5t-32 -82.5l-34 -246q-5 -34 2.5 -53.5t21.5 -28t28.5 -11t24.5 -2.5z" />
    <glyph glyph-name="h" unicode="h" horiz-adv-x="362" 
d="M30 0l88 630h24l-24 -168q16 19 41.5 30t64.5 11q42 0 64.5 -11.5t31.5 -30.5t8.5 -42t-3.5 -47l-52 -372h-24l51 363q3 18 4.5 39t-4.5 39.5t-24 30.5t-56 12q-35 0 -58 -11.5t-34.5 -26.5t-14.5 -26l-59 -420h-24z" />
    <glyph glyph-name="i" unicode="i" horiz-adv-x="151" 
d="M29 0l70 495h23l-70 -495h-23zM126 561q-9 0 -15.5 6.5t-6.5 15.5t6.5 15t15.5 6t15.5 -6t6.5 -15t-6.5 -15.5t-15.5 -6.5z" />
    <glyph glyph-name="j" unicode="j" horiz-adv-x="127" 
d="M-91 -110q-4 0 -10.5 0.5t-8.5 1.5l3 16q0 -1 6.5 -1.5t13.5 -0.5q42 0 68 13t33 59l72 517h23l-73 -518q-5 -39 -23 -57.5t-45 -24t-59 -5.5zM111 561q-9 0 -15.5 6.5t-6.5 15.5t6.5 15t15.5 6t15.5 -6t6.5 -15t-6.5 -15.5t-15.5 -6.5z" />
    <glyph glyph-name="k" unicode="k" horiz-adv-x="304" 
d="M29 0l90 636h23l-90 -636h-23zM225 0l-108 288l175 207h25l-174 -206l107 -289h-25z" />
    <glyph glyph-name="l" unicode="l" horiz-adv-x="151" 
d="M29 0l90 636h23l-90 -636h-23z" />
    <glyph glyph-name="m" unicode="m" horiz-adv-x="566" 
d="M30 0l69 495h19l-3 -49q14 27 46 41.5t61 14.5q51 0 74 -15.5t25 -50.5q18 29 47.5 47.5t67.5 18.5q69 0 86 -30.5t7 -100.5l-52 -371h-24l52 377q7 45 0.5 67.5t-25 30t-49.5 7.5q-40 0 -72 -27t-40 -67l-54 -388h-24l54 382q6 44 -1.5 65.5t-27 28t-48.5 6.5
q-41 0 -67 -22.5t-40 -52.5l-57 -407h-24z" />
    <glyph glyph-name="n" unicode="n" horiz-adv-x="362" 
d="M30 0l69 495h18l-2 -49q17 33 47.5 45t61.5 12q42 0 64.5 -11.5t31 -30.5t8 -42t-3.5 -47l-51 -372h-24l51 363q3 21 4.5 42.5t-4 38.5t-24 27.5t-56.5 10.5q-35 0 -57 -12.5t-34 -29.5t-18 -32l-57 -408h-24z" />
    <glyph glyph-name="o" unicode="o" horiz-adv-x="340" 
d="M135 -7q-43 0 -66 11.5t-32 30.5t-8.5 42.5t3.5 47.5l34 247q5 32 16 62t39.5 49.5t85.5 19.5q42 0 65 -11.5t31.5 -30.5t8 -42t-3.5 -47l-34 -247q-4 -32 -15.5 -62.5t-39.5 -50t-84 -19.5zM137 13q46 0 69 17.5t32 44.5t13 55l33 237q4 28 3 54.5t-19 44t-64 17.5
t-69 -17.5t-32 -44t-13 -54.5l-33 -237q-4 -28 -3 -55t19 -44.5t64 -17.5z" />
    <glyph glyph-name="p" unicode="p" horiz-adv-x="356" 
d="M14 -116l85 611h18l-3 -47q13 23 36.5 38.5t72.5 15.5q56 0 78.5 -19.5t25 -49t-2.5 -61.5l-35 -247q-4 -32 -14.5 -62.5t-38.5 -50t-84 -19.5q-40 0 -63 11.5t-31 29.5l-21 -150h-23zM153 13q50 0 72.5 18t30 45.5t11.5 55.5l32 231q3 21 4.5 42.5t-4 39t-24 28
t-56.5 10.5t-60 -14t-33.5 -36t-16.5 -48t-8 -50l-30 -212q-4 -29 -2.5 -54.5t20 -40.5t64.5 -15z" />
    <glyph glyph-name="q" unicode="q" horiz-adv-x="355" 
d="M217 -116l24 175q-12 -27 -40.5 -48t-69.5 -21q-42 0 -64 11.5t-31 30.5t-8.5 42.5t3.5 47.5l35 250q5 32 15.5 61.5t38.5 49t83 19.5q49 0 68.5 -15.5t23.5 -34.5l12 43h18l-85 -611h-23zM136 8q35 0 57 15.5t34 37.5t18 43t7 32l29 199q3 24 5 50.5t-3.5 49t-24 36.5
t-56.5 14q-50 0 -72.5 -18.5t-29.5 -46.5t-11 -57l-33 -234q-3 -22 -4.5 -43.5t4 -39t24.5 -28t56 -10.5z" />
    <glyph glyph-name="r" unicode="r" horiz-adv-x="232" 
d="M30 0l69 495h24l-29 -199q5 18 17.5 51.5t32.5 68.5t47 59.5t60 24.5h10t9 -1l-4 -19q-2 1 -6.5 1h-9.5q-26 0 -50 -23t-44.5 -60.5t-36.5 -81.5t-27 -87.5t-16 -77.5l-22 -151h-24z" />
    <glyph glyph-name="s" unicode="s" horiz-adv-x="333" 
d="M133 -6q-46 0 -69.5 12t-31.5 31.5t-6.5 43t4.5 46.5l5 39h24l-5 -38q-4 -30 -4.5 -56t17.5 -42t68 -16q45 0 67 16t30.5 39.5t11.5 43.5l3 21q4 25 -2 45t-23.5 36t-50.5 29q-34 15 -58 31t-34.5 39.5t-6.5 59.5l4 31q4 30 19 52.5t43 35t69 12.5q40 0 64 -11.5
t33 -38.5t2 -72l-7 -46h-23l6 43q8 61 -11.5 83t-65.5 22q-55 0 -78 -25t-28 -61l-3 -20q-4 -31 4.5 -51.5t30.5 -35.5t57 -31q29 -13 49.5 -27t29.5 -38t4 -67l-2 -17q-3 -27 -14.5 -54t-39.5 -45.5t-82 -18.5z" />
    <glyph glyph-name="t" unicode="t" horiz-adv-x="216" 
d="M107 0q-21 0 -34.5 6t-21 17.5t-9.5 28t1 38.5l55 386h-42l2 14l42 5l21 94h15l-13 -94h117l-2 -19h-117l-54 -382q-4 -33 5 -53.5t46 -20.5q14 0 30 1t26 2l-3 -19q-7 -1 -17 -2t-22 -1.5t-25 -0.5z" />
    <glyph glyph-name="u" unicode="u" horiz-adv-x="362" 
d="M138 -8q-42 0 -64.5 11.5t-31.5 30.5t-8.5 42t3.5 47l52 372h24l-51 -363q-3 -22 -4.5 -43.5t4 -39t24.5 -28t56 -10.5q36 0 58 13t34 30.5t17 32.5l57 408h24l-69 -495h-21l5 49q-16 -33 -47 -45t-62 -12z" />
    <glyph glyph-name="v" unicode="v" horiz-adv-x="292" 
d="M68 0l-20 495h25l19 -465q4 3 21.5 25t41.5 56t47.5 74t39.5 80q29 74 33 130t-16 100h26q11 -20 14 -48.5t-1 -61t-13 -66.5t-23 -64q-19 -43 -44.5 -86.5t-51 -79.5t-45.5 -60t-27 -29h-26z" />
    <glyph glyph-name="w" unicode="w" horiz-adv-x="544" 
d="M314 0l-23 471h24l22 -439q5 3 22.5 25t41.5 56t47 74t39 79q20 49 28 89.5t5.5 75.5t-16.5 64h26q15 -26 15.5 -67t-10 -86.5t-28.5 -86.5q-19 -43 -44.5 -86.5t-51.5 -79.5t-45.5 -60t-26.5 -29h-25zM69 0l-20 495h24l21 -495h-25zM70 0l220 471l22 -7l-217 -464h-25z
" />
    <glyph glyph-name="x" unicode="x" horiz-adv-x="286" 
d="M-22 0q9 38 29.5 79.5t45.5 80t48 66.5t36 38q-15 12 -30 38.5t-26 61t-16.5 69.5t-2.5 62h24q-2 -38 6.5 -81.5t24.5 -78.5t34 -50q12 6 31.5 31t39.5 58.5t35.5 66t19.5 54.5h24q-8 -32 -26 -69t-39.5 -71.5t-41.5 -59t-31 -31.5q12 -7 26.5 -33t28 -64t22 -81.5
t7.5 -85.5h-24q1 34 -6 72t-19 73t-25 60.5t-24 34.5q-12 -9 -39.5 -41.5t-57.5 -83t-50 -115.5h-24z" />
    <glyph glyph-name="y" unicode="y" horiz-adv-x="321" 
d="M-42 -116q-10 0 -20.5 1t-17.5 3l4 22q7 -2 14.5 -3t17.5 -1q55 0 103.5 29.5t89.5 80t70 113.5q22 47 39 102.5t26.5 112t9.5 106.5q0 16 -1 27.5t-3 17.5h26q3 -18 3 -41q0 -50 -11 -112t-30 -124t-43 -112q-29 -60 -72 -110.5t-95 -81t-110 -30.5zM76 -57l-22 552h25
l21 -549z" />
    <glyph glyph-name="z" unicode="z" horiz-adv-x="241" 
d="M-19 0l2 11l245 464h-172l3 20h201l-2 -12l-246 -462h182l-4 -21h-209z" />
    <glyph glyph-name="braceleft" unicode="{" horiz-adv-x="290" 
d="M155 -137q-37 6 -59.5 22t-31.5 42t-4 61q4 26 16 50t27 47.5t27 48t16 51.5q3 23 -11 39.5t-37 26.5t-48 11l2 11q25 2 50.5 10t44.5 24.5t22 41.5q4 27 -1.5 51t-14 47t-14 47.5t-1.5 52.5q5 36 20 59t42 36.5t67 21.5l-3 -22q-26 -4 -46.5 -12.5t-34.5 -27.5t-19 -55
q-4 -29 0.5 -53t12.5 -46t12.5 -45.5t0.5 -53.5q-2 -15 -11.5 -30.5t-27 -28.5t-43.5 -22q35 -14 48.5 -36.5t10.5 -46.5q-4 -31 -16 -54.5t-25.5 -45t-25 -44.5t-15.5 -53q-5 -36 3 -57.5t26.5 -32t42.5 -14.5z" />
    <glyph glyph-name="bar" unicode="|" horiz-adv-x="185" 
d="M19 -245l124 876h23l-124 -876h-23z" />
    <glyph glyph-name="braceright" unicode="}" horiz-adv-x="290" 
d="M23 -137l2 21q26 4 47 14.5t35.5 32t19.5 57.5q4 30 -1 53t-12.5 44.5t-12 45t-0.5 54.5q3 24 23 46.5t60 36.5q-23 9 -37 22t-19.5 28.5t-3.5 30.5q4 30 15.5 53.5t25.5 45.5t25.5 46t15.5 53q5 36 -3.5 55t-27 27.5t-43.5 12.5l3 22q38 -8 61 -21.5t31.5 -36.5t3.5 -59
q-4 -28 -16.5 -52.5t-27 -47.5t-26.5 -47t-16 -51q-3 -25 11 -41.5t37.5 -24.5t46.5 -10l-1 -11q-25 -1 -51 -11t-44.5 -26.5t-21.5 -39.5q-4 -27 1.5 -51.5t14 -48t14 -47.5t1.5 -50q-5 -35 -21.5 -61t-43.5 -42t-65 -22z" />
    <glyph glyph-name="asciitilde" unicode="~" horiz-adv-x="459" 
d="M317 510q-30 0 -59 9.5t-59 19t-65 9.5q-27 0 -45.5 -12.5t-20.5 -28.5h-23q7 25 22.5 38.5t35 19t38.5 5.5q32 0 60.5 -9t59.5 -18.5t69 -9.5q22 0 40 12t19 27h25q-7 -24 -22.5 -37.5t-35.5 -19t-39 -5.5z" />
    <glyph glyph-name="uni00A0" unicode="&#xa0;" horiz-adv-x="199" 
 />
    <glyph glyph-name="exclamdown" unicode="&#xa1;" horiz-adv-x="146" 
d="M89 295l-18 -163l-38 -272h-25l39 271l29 164h13zM109 495q10 0 15.5 -6.5t4.5 -16.5q-1 -8 -8.5 -14.5t-17.5 -6.5q-9 0 -15.5 6.5t-5.5 14.5q1 10 9.5 16.5t17.5 6.5z" />
    <glyph glyph-name="cent" unicode="&#xa2;" horiz-adv-x="333" 
d="M107 -62l16 112q-31 0 -54 8.5t-33.5 32t-4.5 69.5l41 295q7 46 24 69t42.5 31.5t56.5 9.5l12 80h21l-12 -80q30 -2 52.5 -10.5t33.5 -31.5t4 -68l-10 -75h-23l11 73q6 43 -3.5 63t-30 26.5t-48.5 6.5t-50 -6.5t-36.5 -26.5t-20.5 -63l-41 -290q-6 -43 3 -63.5t29.5 -27
t48.5 -6.5q30 0 52 6.5t36 27t20 63.5l8 57h22l-9 -60q-6 -46 -23 -69.5t-42 -32t-55 -8.5l-16 -112h-21z" />
    <glyph glyph-name="sterling" unicode="&#xa3;" horiz-adv-x="406" 
d="M8 0l2 16q28 26 57 67.5t49 91.5t19 99h-78l2 20h76q-2 29 -9 53.5t-13 50t-6 56.5q0 40 15.5 71.5t49.5 50.5t91 19q64 0 93 -28t29 -69q0 -19 -2 -32t-4 -23h-24q2 10 4 20.5t2 28.5q0 38 -26.5 61t-77.5 23q-52 0 -89.5 -29.5t-37.5 -84.5q0 -33 6.5 -60.5t13.5 -53
t8 -54.5h86l-2 -20h-84q-3 -47 -17.5 -90.5t-38.5 -82t-56 -71.5q13 2 25.5 2.5t26.5 0.5q34 0 70.5 -7t70.5 -7q29 0 45.5 15.5t23.5 67.5l5 41h22l-7 -52q-6 -43 -22 -62t-39 -26q-25 -7 -53.5 -4t-60.5 8.5t-69 5.5q-33 0 -49 -3t-27 -10z" />
    <glyph glyph-name="currency" unicode="&#xa4;" horiz-adv-x="424" 
d="M75 145l-19 19l60 59q-15 17 -23.5 36t-8.5 39q0 44 31 81l-66 65l17 18l69 -69q35 23 72 23q38 0 77 -25l66 65l17 -18l-64 -64q28 -36 28 -76q0 -38 -27 -71l71 -72l-19 -18l-72 73q-19 -12 -38.5 -19t-38.5 -7q-41 0 -73 21zM207 209q39 0 66.5 26.5t27.5 62.5
q0 39 -27.5 66.5t-66.5 27.5q-41 0 -67 -26.5t-26 -67.5q0 -36 26 -62.5t67 -26.5z" />
    <glyph glyph-name="yen" unicode="&#xa5;" horiz-adv-x="351" 
d="M116 0l20 137h-89l3 21h89l14 104h-89l3 21h84l-60 308h27l53 -297l146 297h27l-157 -308h83l-4 -21h-89l-14 -104h90l-4 -21h-89l-20 -137h-24z" />
    <glyph glyph-name="brokenbar" unicode="&#xa6;" horiz-adv-x="220" 
d="M46 -171l47 338h23l-47 -338h-23zM108 276l44 309h23l-43 -309h-24z" />
    <glyph glyph-name="section" unicode="&#xa7;" horiz-adv-x="456" 
d="M133 -197q-39 0 -65.5 16t-36.5 53.5t-1 102.5l4 32h22l-4 -33q-8 -59 0.5 -92t31 -46.5t53.5 -13.5q49 0 86.5 30t47.5 106q7 49 -4.5 75t-36.5 41t-62 30q-29 12 -53.5 28t-37 44.5t-6.5 74.5q5 37 17 64.5t31 46.5t45 28l5 -16q-32 -13 -50.5 -43.5t-25.5 -78.5
q-6 -43 6.5 -68t37 -39.5t52.5 -25.5q32 -13 54.5 -26.5t35.5 -30.5t16.5 -41.5t-1.5 -61.5q-12 -87 -57 -121.5t-104 -34.5zM281 8l-5 18q29 14 49 43t27 81q7 49 -4.5 75.5t-37 41.5t-62.5 29q-29 12 -53.5 28t-37 44.5t-6.5 75.5q7 48 25 80.5t49 49.5t77 17
q60 0 89.5 -33.5t21.5 -92.5l-9 -60h-22l9 60q6 50 -18 79t-74 29q-56 0 -86 -32t-39 -96q-6 -43 6.5 -68.5t36.5 -40t52 -25.5q43 -18 68.5 -36.5t34.5 -46.5t2 -77q-5 -40 -18 -68.5t-32 -46.5t-43 -28z" />
    <glyph glyph-name="dieresis" unicode="&#xa8;" horiz-adv-x="124" 
d="M69 561q-9 0 -15.5 6.5t-6.5 15.5t6.5 15t15.5 6t15.5 -6t6.5 -15t-6.5 -15.5t-15.5 -6.5zM149 561q-9 0 -15.5 6.5t-6.5 15.5t6.5 15t15.5 6t15.5 -6t6.5 -15t-6.5 -15.5t-15.5 -6.5z" />
    <glyph glyph-name="copyright" unicode="&#xa9;" horiz-adv-x="600" 
d="M290 31q-78 0 -136.5 38t-87 101.5t-17.5 141.5q8 58 37 108.5t72.5 89t97.5 60t112 21.5q78 0 136 -37.5t87 -101t18 -140.5q-8 -58 -37 -109t-72.5 -90t-97.5 -60.5t-112 -21.5zM292 47q55 0 105.5 21t91.5 58t68 84.5t34 101.5q11 72 -16 131.5t-81.5 95t-127.5 35.5
q-54 0 -104 -20.5t-91.5 -56.5t-68.5 -83.5t-35 -101.5q-7 -54 6.5 -101.5t44.5 -84.5t75.5 -58t98.5 -21zM305 158q-33 0 -51.5 7t-23.5 25t0 50l28 164q8 44 29.5 59.5t71.5 15.5q49 0 65.5 -15.5t8.5 -59.5l-6 -36h-17l6 36q5 34 -5.5 49t-53.5 15t-59.5 -15t-22.5 -49
l-27 -166q-7 -37 4 -52t54 -15t59 15t23 52l6 34h17l-5 -32q-5 -32 -16 -50t-31.5 -25t-53.5 -7z" />
    <glyph glyph-name="ordfeminine" unicode="&#xaa;" horiz-adv-x="211" 
d="M77 259q-7 0 -21.5 3t-24.5 18t-5 49l27 165q6 34 17 49.5t26 19.5t32 4q18 0 36.5 -6.5t22.5 -23.5l3 24h15l-42 -297h-15l7 56q-7 -19 -25 -40t-53 -21zM82 270q22 0 37 14.5t24.5 34t14.5 38t6 25.5l19 135q-1 4 -5 13.5t-15.5 18t-35.5 8.5q-36 0 -46 -19.5
t-15 -47.5l-25 -162q-4 -28 4 -40t19.5 -15t17.5 -3z" />
    <glyph glyph-name="guillemotleft" unicode="&#xab;" horiz-adv-x="437" 
d="M322 113l-95 171l156 187h30l-155 -187l94 -171h-30zM143 113l-95 171l157 187h29l-154 -187l93 -171h-30z" />
    <glyph glyph-name="logicalnot" unicode="&#xac;" horiz-adv-x="557" 
d="M473 209l24 174h-437l3 20h458l-27 -194h-21z" />
    <glyph glyph-name="uni00AD" unicode="&#xad;" horiz-adv-x="298" 
d="M48 243l3 21h199l-2 -21h-200z" />
    <glyph glyph-name="registered" unicode="&#xae;" horiz-adv-x="411" 
d="M183 279q-43 0 -75.5 21t-48.5 56.5t-10 78.5t32 78.5t64.5 56.5t81.5 21q44 0 76 -21t48 -56.5t10 -78.5t-32 -78.5t-64 -56.5t-82 -21zM185 294q39 0 73 19.5t57.5 51.5t28.5 70q6 39 -8 71t-43 50.5t-68 18.5q-37 0 -71.5 -18.5t-57.5 -50.5t-29 -71q-5 -38 9 -70
t43 -51.5t66 -19.5zM146 355l24 171h65q21 0 27 -10.5t3 -27.5q-2 -16 -11 -30.5t-32 -16.5q4 -3 8 -15t5 -17l18 -54h-15q-3 12 -8.5 29.5t-11 32.5t-9.5 21h-39l-11 -83h-13zM172 446h28q29 0 40 11t13 30q2 14 -4 21t-22 7h-46z" />
    <glyph glyph-name="macron" unicode="&#xaf;" horiz-adv-x="172" 
d="M46 570l2 17h171l-2 -17h-171z" />
    <glyph glyph-name="degree" unicode="&#xb0;" horiz-adv-x="320" 
d="M145 375q-57 0 -79.5 31.5t-16.5 75.5q6 45 36 77t92 32q41 0 62.5 -14.5t28.5 -39t3 -53.5q-7 -47 -38 -78t-88 -31zM148 391q42 0 68.5 25t32.5 67q5 37 -13.5 65t-62.5 28q-41 0 -68 -26t-33 -68q-6 -41 16.5 -66t59.5 -25z" />
    <glyph glyph-name="plusminus" unicode="&#xb1;" horiz-adv-x="395" 
d="M174 166l20 146h-135l4 25h135l21 145h26l-21 -145h135l-3 -25h-135l-20 -146h-27zM15 0l5 26h296l-4 -26h-297z" />
    <glyph glyph-name="uni00B2" unicode="&#xb2;" horiz-adv-x="238" 
d="M42 236l9 66q6 44 28 62t62 36q3 2 6 3.5t7 2.5q26 12 45.5 35.5t23.5 55.5q1 3 1.5 6t0.5 6q5 32 -8.5 50.5t-45.5 18.5q-28 0 -47 -15.5t-24 -48.5l-6 -40h-22q1 7 2 13l2 12t2 11q7 44 32 64.5t63 20.5q32 0 49.5 -10t23.5 -30.5t1 -50.5q-3 -26 -14.5 -48.5
t-30 -39.5t-43.5 -28q-22 -11 -40 -20.5t-30 -23.5t-16 -40q-1 -13 -3 -24.5t-4 -23.5h150l-2 -20h-172z" />
    <glyph glyph-name="uni00B3" unicode="&#xb3;" horiz-adv-x="228" 
d="M121 236q-54 0 -71.5 26t-12.5 63l5 33h23l-5 -34q-9 -67 62 -69q33 -1 55.5 16.5t27.5 49.5l4 33q5 29 -13.5 46t-53.5 17h-42l3 18h42q35 0 57 20t26 46l2 19q4 25 -10.5 42.5t-50.5 17.5t-55.5 -18t-23.5 -45l-3 -24h-23l3 23q5 38 30 60t74 22q48 0 67.5 -21.5
t14.5 -59.5l-2 -14q-4 -33 -25 -51.5t-46 -25.5q31 -6 44 -27.5t8 -51.5l-3 -22q-5 -37 -29.5 -63t-78.5 -26z" />
    <glyph glyph-name="acute" unicode="&#xb4;" horiz-adv-x="82" 
d="M42 544l62 87h32l-79 -87h-15z" />
    <glyph glyph-name="uni00B5" unicode="&#xb5;" horiz-adv-x="339" 
d="M5 -129l88 624h24l-57 -407q5 -36 27 -56.5t63 -20.5q27 0 48.5 6.5t36.5 29.5t22 71l53 377h24l-52 -371q-6 -46 -19.5 -75t-39.5 -42.5t-73 -13.5q-30 0 -58 12t-38 44l-29 -178h-20z" />
    <glyph glyph-name="paragraph" unicode="&#xb6;" horiz-adv-x="600" 
d="M167 -61l38 273q-57 0 -89.5 23t-43.5 63.5t-4 90.5q8 53 27.5 90.5t50.5 60.5t73.5 34t96.5 11h63l-90 -646h-21l88 624h-78l-88 -624h-23z" />
    <glyph glyph-name="periodcentered" unicode="&#xb7;" horiz-adv-x="146" 
d="M41 248q-10 0 -16.5 6.5t-6.5 15.5t6.5 15.5t16.5 6.5q9 0 16 -6.5t7 -15.5t-7 -15.5t-16 -6.5z" />
    <glyph glyph-name="cedilla" unicode="&#xb8;" horiz-adv-x="102" 
d="M-12 -132q-13 0 -22.5 4t-17.5 8l8 14q5 -4 16 -7.5t17 -3.5q23 0 35 10t13 23q5 32 -31 32q-7 0 -15.5 -3t-16.5 -8l-11 7l40 58h17l-35 -50l-5 1q8 5 17 6.5t16 1.5q23 0 34 -13.5t9 -28.5q-3 -23 -21 -37t-47 -14z" />
    <glyph glyph-name="uni00B9" unicode="&#xb9;" horiz-adv-x="140" 
d="M67 236l40 283h-44l2 14q30 0 42 17t16 41h15l-50 -355h-21z" />
    <glyph glyph-name="ordmasculine" unicode="&#xba;" horiz-adv-x="204" 
d="M81 267q-34 0 -47.5 12t-15 30t0.5 37l21 148q3 19 9.5 37t23.5 30t51 12t47.5 -12t15 -30t-1.5 -37l-21 -148q-2 -19 -9 -37t-23.5 -30t-50.5 -12zM82 279q28 0 41.5 10.5t19.5 26.5t8 33l19 142q3 17 2 33t-11.5 26.5t-38.5 10.5q-27 0 -41 -10.5t-19 -26.5t-8 -33
l-20 -142q-2 -17 -1.5 -33t11.5 -26.5t38 -10.5z" />
    <glyph glyph-name="guillemotright" unicode="&#xbb;" horiz-adv-x="437" 
d="M214 113l141 171l-102 187h29l105 -187l-143 -171h-30zM35 113l142 171l-102 187h29l104 -187l-143 -171h-30z" />
    <glyph glyph-name="onequarter" unicode="&#xbc;" horiz-adv-x="486" 
d="M67 236l40 283h-44l2 14q30 0 42 17t16 41h15l-50 -355h-21zM15 0l401 585h24l-403 -585h-22zM341 0l10 73h-140l3 18l182 264h18l-37 -265h38l-3 -17h-38l-10 -73h-23zM236 90h118l29 210z" />
    <glyph glyph-name="onehalf" unicode="&#xbd;" horiz-adv-x="532" 
d="M67 236l40 283h-44l2 14q30 0 42 17t16 41h15l-50 -355h-21zM15 0l401 585h24l-403 -585h-22zM300 -1l9 66q6 44 28 62t62 36q3 2 6 3.5t7 2.5q26 12 45.5 35.5t23.5 55.5q1 3 1.5 6t0.5 6q5 32 -8.5 50.5t-45.5 18.5q-28 0 -47 -15.5t-24 -48.5l-6 -40h-22q1 7 2 13
l2 12t2 11q7 44 32 64.5t63 20.5q32 0 49.5 -10t23.5 -30.5t1 -50.5q-3 -26 -14.5 -48.5t-30 -39.5t-43.5 -28q-22 -11 -40 -20.5t-30 -23.5t-16 -40q-1 -13 -3 -24.5t-4 -23.5h150l-2 -20h-172z" />
    <glyph glyph-name="threequarters" unicode="&#xbe;" horiz-adv-x="561" 
d="M121 236q-54 0 -71.5 26t-12.5 63l5 33h23l-5 -34q-9 -67 62 -69q33 -1 55.5 16.5t27.5 49.5l4 33q5 29 -13.5 46t-53.5 17h-42l3 18h42q35 0 57 20t26 46l2 19q4 25 -10.5 42.5t-50.5 17.5t-55.5 -18t-23.5 -45l-3 -24h-23l3 23q5 38 30 60t74 22q48 0 67.5 -21.5
t14.5 -59.5l-2 -14q-4 -33 -25 -51.5t-46 -25.5q31 -6 44 -27.5t8 -51.5l-3 -22q-5 -37 -29.5 -63t-78.5 -26zM103 0l401 585h24l-403 -585h-22zM439 0l10 73h-140l3 18l182 264h18l-37 -265h38l-3 -17h-38l-10 -73h-23zM334 90h118l29 210z" />
    <glyph glyph-name="questiondown" unicode="&#xbf;" horiz-adv-x="366" 
d="M261 347l-18 -122h-28.5h-28.5q-22 0 -49 -12.5t-48.5 -40t-27.5 -72.5l-9 -57q-8 -58 16 -91.5t82 -33.5q53 0 82.5 28.5t37.5 85.5l5 36h24l-4 -33q-21 -139 -148 -139q-72 0 -100.5 35.5t-17.5 112.5l10 69q8 47 33.5 75.5t56 42t53.5 13.5q11 0 21.5 0.5t20.5 0.5
l15 102h22zM271 494q10 0 15.5 -6t3.5 -16q-1 -9 -8.5 -15.5t-17.5 -6.5q-9 0 -15 6.5t-5 15.5q2 10 10 16t17 6z" />
    <glyph glyph-name="Agrave" unicode="&#xc0;" horiz-adv-x="352" 
d="M-18 0l233 591h20l64 -591h-24l-18 158h-189l-63 -158h-23zM73 175h183l-40 359zM240 633l-93 75h34l81 -75h-22z" />
    <glyph glyph-name="Aacute" unicode="&#xc1;" horiz-adv-x="352" 
d="M-18 0l233 591h20l64 -591h-24l-18 158h-189l-63 -158h-23zM73 175h183l-40 359zM180 633l91 75h34l-103 -75h-22z" />
    <glyph glyph-name="Acircumflex" unicode="&#xc2;" horiz-adv-x="352" 
d="M-18 0l233 591h20l64 -591h-24l-18 158h-189l-63 -158h-23zM73 175h183l-40 359zM132 628l97 82h25l73 -82h-21l-68 65l-84 -65h-22z" />
    <glyph glyph-name="Atilde" unicode="&#xc3;" horiz-adv-x="352" 
d="M-18 0l233 591h20l64 -591h-24l-18 158h-189l-63 -158h-23zM73 175h183l-40 359zM270 641q-12 0 -19 3.5t-19 13.5q-7 5 -16 12t-21 7t-21.5 -8t-15.5 -27h-18q6 23 21 38t37 15q12 0 22 -6t20 -14q9 -7 16 -11t17 -4q12 0 21.5 7t15.5 26h18q-6 -22 -21 -37t-37 -15z
" />
    <glyph glyph-name="Adieresis" unicode="&#xc4;" horiz-adv-x="352" 
d="M-18 0l233 591h20l64 -591h-24l-18 158h-189l-63 -158h-23zM73 175h183l-40 359zM194 626q-9 0 -15.5 6.5t-6.5 15.5t6.5 15t15.5 6t15.5 -6t6.5 -15t-6.5 -15.5t-15.5 -6.5zM274 626q-9 0 -15.5 6.5t-6.5 15.5t6.5 15t15.5 6t15.5 -6t6.5 -15t-6.5 -15.5t-15.5 -6.5z
" />
    <glyph glyph-name="Aring" unicode="&#xc5;" horiz-adv-x="352" 
d="M-18 0l233 591h20l64 -591h-24l-18 158h-189l-63 -158h-23zM73 175h183l-40 359zM221 573q-32 0 -49.5 20.5t-13.5 48.5q4 29 27.5 49.5t55.5 20.5q35 0 51.5 -20.5t12.5 -49.5q-4 -28 -29 -48.5t-55 -20.5zM224 591q25 0 41.5 14.5t19.5 36.5q3 24 -9.5 38t-37.5 14
t-41 -14t-19 -38q-3 -22 9 -36.5t37 -14.5z" />
    <glyph glyph-name="AE" unicode="&#xc6;" horiz-adv-x="526" 
d="M-27 0l304 591h241l-3 -19h-218l-33 -251h189l-3 -19h-188l-36 -283h222l-4 -19h-245l20 158h-142l-82 -158h-22zM84 175h138l47 349l2 10l-3 -8z" />
    <glyph glyph-name="Ccedilla" unicode="&#xc7;" horiz-adv-x="402" 
d="M167 -12q-39 0 -68.5 9t-43.5 37t-6 86l50 349q8 58 30 85.5t54.5 36t71.5 8.5q40 0 69.5 -9t43.5 -36.5t6 -84.5l-13 -90h-24l12 88q8 51 -3.5 75.5t-36 32t-57.5 7.5q-34 0 -61 -7.5t-44.5 -32t-25.5 -75.5l-48 -346q-7 -51 3.5 -75.5t35.5 -32t58 -7.5q34 0 61 7.5
t45 32t25 75.5l9 70h24l-10 -71q-8 -59 -29.5 -87t-54 -36.5t-73.5 -8.5zM143 -134q-13 0 -22.5 4t-17.5 8l8 14q5 -4 16 -7.5t17 -3.5q23 0 35 10t13 23q5 32 -31 32q-7 0 -15.5 -3t-16.5 -8l-11 7l40 58h17l-35 -50l-5 1q8 5 17 6.5t16 1.5q23 0 34 -13.5t9 -28.5
q-3 -23 -21 -37t-47 -14z" />
    <glyph glyph-name="Egrave" unicode="&#xc8;" horiz-adv-x="349" 
d="M43 0l84 591h243l-4 -19h-218l-35 -251h168l-2 -19h-169l-39 -283h218l-3 -19h-243zM262 633l-93 75h34l81 -75h-22z" />
    <glyph glyph-name="Eacute" unicode="&#xc9;" horiz-adv-x="349" 
d="M43 0l84 591h243l-4 -19h-218l-35 -251h168l-2 -19h-169l-39 -283h218l-3 -19h-243zM202 633l91 75h34l-103 -75h-22z" />
    <glyph glyph-name="Ecircumflex" unicode="&#xca;" horiz-adv-x="349" 
d="M43 0l84 591h243l-4 -19h-218l-35 -251h168l-2 -19h-169l-39 -283h218l-3 -19h-243zM154 628l97 82h25l73 -82h-21l-68 65l-84 -65h-22z" />
    <glyph glyph-name="Edieresis" unicode="&#xcb;" horiz-adv-x="349" 
d="M43 0l84 591h243l-4 -19h-218l-35 -251h168l-2 -19h-169l-39 -283h218l-3 -19h-243zM216 626q-9 0 -15.5 6.5t-6.5 15.5t6.5 15t15.5 6t15.5 -6t6.5 -15t-6.5 -15.5t-15.5 -6.5zM296 626q-9 0 -15.5 6.5t-6.5 15.5t6.5 15t15.5 6t15.5 -6t6.5 -15t-6.5 -15.5t-15.5 -6.5z
" />
    <glyph glyph-name="Igrave" unicode="&#xcc;" horiz-adv-x="181" 
d="M43 0l84 591h24l-84 -591h-24zM155 633l-93 75h34l81 -75h-22z" />
    <glyph glyph-name="Iacute" unicode="&#xcd;" horiz-adv-x="181" 
d="M43 0l84 591h24l-84 -591h-24zM95 633l91 75h34l-103 -75h-22z" />
    <glyph glyph-name="Icircumflex" unicode="&#xce;" horiz-adv-x="181" 
d="M43 0l84 591h24l-84 -591h-24zM47 628l97 82h25l73 -82h-21l-68 65l-84 -65h-22z" />
    <glyph glyph-name="Idieresis" unicode="&#xcf;" horiz-adv-x="181" 
d="M43 0l84 591h24l-84 -591h-24zM109 626q-9 0 -15.5 6.5t-6.5 15.5t6.5 15t15.5 6t15.5 -6t6.5 -15t-6.5 -15.5t-15.5 -6.5zM189 626q-9 0 -15.5 6.5t-6.5 15.5t6.5 15t15.5 6t15.5 -6t6.5 -15t-6.5 -15.5t-15.5 -6.5z" />
    <glyph glyph-name="Eth" unicode="&#xd0;" horiz-adv-x="428" 
d="M41 0l84 591h155q36 0 61.5 -10.5t37 -38.5t3.5 -80l-46 -332q-7 -52 -27 -80.5t-49 -39t-65 -10.5h-154zM18 278l2 21h161l-2 -21h-161zM68 18h129q45 0 75 23.5t40 90.5l46 326q10 67 -14 91t-69 24h-130z" />
    <glyph glyph-name="Ntilde" unicode="&#xd1;" horiz-adv-x="433" 
d="M43 0l84 591h22l155 -537l76 537h23l-84 -591h-24l-153 526l-75 -526h-24zM313 652q-12 0 -19 3.5t-19 13.5q-7 5 -16 12t-21 7t-21.5 -8t-15.5 -27h-18q6 23 21 38t37 15q12 0 22 -6t20 -14q9 -7 16 -11t17 -4q12 0 21.5 7t15.5 26h18q-6 -22 -21 -37t-37 -15z" />
    <glyph glyph-name="Ograve" unicode="&#xd2;" 
d="M167 -12q-39 0 -69 9t-43.5 37t-5.5 86l50 349q8 58 30 85.5t54.5 36t71.5 8.5q40 0 69.5 -9t43.5 -36.5t6 -84.5l-49 -349q-8 -59 -30 -87t-54.5 -36.5t-73.5 -8.5zM170 6q34 0 61 7.5t45 32t25 75.5l48 345q7 51 -4 75.5t-35.5 32t-57.5 7.5q-34 0 -61 -7.5t-45 -32
t-25 -75.5l-48 -345q-7 -51 4 -75.5t35.5 -32t57.5 -7.5zM269 633l-93 75h34l81 -75h-22z" />
    <glyph glyph-name="Oacute" unicode="&#xd3;" 
d="M167 -12q-39 0 -69 9t-43.5 37t-5.5 86l50 349q8 58 30 85.5t54.5 36t71.5 8.5q40 0 69.5 -9t43.5 -36.5t6 -84.5l-49 -349q-8 -59 -30 -87t-54.5 -36.5t-73.5 -8.5zM170 6q34 0 61 7.5t45 32t25 75.5l48 345q7 51 -4 75.5t-35.5 32t-57.5 7.5q-34 0 -61 -7.5t-45 -32
t-25 -75.5l-48 -345q-7 -51 4 -75.5t35.5 -32t57.5 -7.5zM209 633l91 75h34l-103 -75h-22z" />
    <glyph glyph-name="Ocircumflex" unicode="&#xd4;" 
d="M167 -12q-39 0 -69 9t-43.5 37t-5.5 86l50 349q8 58 30 85.5t54.5 36t71.5 8.5q40 0 69.5 -9t43.5 -36.5t6 -84.5l-49 -349q-8 -59 -30 -87t-54.5 -36.5t-73.5 -8.5zM170 6q34 0 61 7.5t45 32t25 75.5l48 345q7 51 -4 75.5t-35.5 32t-57.5 7.5q-34 0 -61 -7.5t-45 -32
t-25 -75.5l-48 -345q-7 -51 4 -75.5t35.5 -32t57.5 -7.5zM161 628l97 82h25l73 -82h-21l-68 65l-84 -65h-22z" />
    <glyph glyph-name="Otilde" unicode="&#xd5;" 
d="M167 -12q-39 0 -69 9t-43.5 37t-5.5 86l50 349q8 58 30 85.5t54.5 36t71.5 8.5q40 0 69.5 -9t43.5 -36.5t6 -84.5l-49 -349q-8 -59 -30 -87t-54.5 -36.5t-73.5 -8.5zM170 6q34 0 61 7.5t45 32t25 75.5l48 345q7 51 -4 75.5t-35.5 32t-57.5 7.5q-34 0 -61 -7.5t-45 -32
t-25 -75.5l-48 -345q-7 -51 4 -75.5t35.5 -32t57.5 -7.5zM299 641q-12 0 -19 3.5t-19 13.5q-7 5 -16 12t-21 7t-21.5 -8t-15.5 -27h-18q6 23 21 38t37 15q12 0 22 -6t20 -14q9 -7 16 -11t17 -4q12 0 21.5 7t15.5 26h18q-6 -22 -21 -37t-37 -15z" />
    <glyph glyph-name="Odieresis" unicode="&#xd6;" 
d="M167 -12q-39 0 -69 9t-43.5 37t-5.5 86l50 349q8 58 30 85.5t54.5 36t71.5 8.5q40 0 69.5 -9t43.5 -36.5t6 -84.5l-49 -349q-8 -59 -30 -87t-54.5 -36.5t-73.5 -8.5zM170 6q34 0 61 7.5t45 32t25 75.5l48 345q7 51 -4 75.5t-35.5 32t-57.5 7.5q-34 0 -61 -7.5t-45 -32
t-25 -75.5l-48 -345q-7 -51 4 -75.5t35.5 -32t57.5 -7.5zM223 626q-9 0 -15.5 6.5t-6.5 15.5t6.5 15t15.5 6t15.5 -6t6.5 -15t-6.5 -15.5t-15.5 -6.5zM303 626q-9 0 -15.5 6.5t-6.5 15.5t6.5 15t15.5 6t15.5 -6t6.5 -15t-6.5 -15.5t-15.5 -6.5z" />
    <glyph glyph-name="multiply" unicode="&#xd7;" horiz-adv-x="341" 
d="M257 141l-89 103l-109 -95l-16 19l108 95l-88 102l22 19l87 -103l111 97l16 -19l-109 -96l87 -104z" />
    <glyph glyph-name="Oslash" unicode="&#xd8;" horiz-adv-x="427" 
d="M-22 -42l426 662h24l-426 -662h-24zM169 -12q-39 0 -68.5 9t-43.5 37t-6 86l49 349q8 58 30 85.5t55 36t72 8.5q40 0 69.5 -9t43.5 -36.5t6 -84.5l-50 -349q-8 -59 -30 -87t-54 -36.5t-73 -8.5zM172 6q34 0 61 7.5t45 32t25 75.5l48 345q7 51 -4 75.5t-35.5 32t-57.5 7.5
q-34 0 -61 -7.5t-45 -32t-25 -75.5l-48 -345q-7 -51 4 -75.5t35.5 -32t57.5 -7.5z" />
    <glyph glyph-name="Ugrave" unicode="&#xd9;" horiz-adv-x="418" 
d="M173 -12q-27 0 -51 4.5t-41.5 17.5t-25.5 37.5t-2 64.5l67 479h24l-67 -478q-6 -45 6.5 -68t37.5 -31t54 -8q30 0 57 8t46.5 31t25.5 68l67 478h23l-67 -479q-6 -40 -20 -64.5t-35 -37.5t-46.5 -17.5t-52.5 -4.5zM273 633l-93 75h34l81 -75h-22z" />
    <glyph glyph-name="Uacute" unicode="&#xda;" horiz-adv-x="418" 
d="M173 -12q-27 0 -51 4.5t-41.5 17.5t-25.5 37.5t-2 64.5l67 479h24l-67 -478q-6 -45 6.5 -68t37.5 -31t54 -8q30 0 57 8t46.5 31t25.5 68l67 478h23l-67 -479q-6 -40 -20 -64.5t-35 -37.5t-46.5 -17.5t-52.5 -4.5zM213 633l91 75h34l-103 -75h-22z" />
    <glyph glyph-name="Ucircumflex" unicode="&#xdb;" horiz-adv-x="418" 
d="M173 -12q-27 0 -51 4.5t-41.5 17.5t-25.5 37.5t-2 64.5l67 479h24l-67 -478q-6 -45 6.5 -68t37.5 -31t54 -8q30 0 57 8t46.5 31t25.5 68l67 478h23l-67 -479q-6 -40 -20 -64.5t-35 -37.5t-46.5 -17.5t-52.5 -4.5zM165 628l97 82h25l73 -82h-21l-68 65l-84 -65h-22z" />
    <glyph glyph-name="Udieresis" unicode="&#xdc;" horiz-adv-x="418" 
d="M173 -12q-27 0 -51 4.5t-41.5 17.5t-25.5 37.5t-2 64.5l67 479h24l-67 -478q-6 -45 6.5 -68t37.5 -31t54 -8q30 0 57 8t46.5 31t25.5 68l67 478h23l-67 -479q-6 -40 -20 -64.5t-35 -37.5t-46.5 -17.5t-52.5 -4.5zM227 626q-9 0 -15.5 6.5t-6.5 15.5t6.5 15t15.5 6
t15.5 -6t6.5 -15t-6.5 -15.5t-15.5 -6.5zM307 626q-9 0 -15.5 6.5t-6.5 15.5t6.5 15t15.5 6t15.5 -6t6.5 -15t-6.5 -15.5t-15.5 -6.5z" />
    <glyph glyph-name="Yacute" unicode="&#xdd;" horiz-adv-x="296" 
d="M95 0l37 265l-63 326h27l52 -291l1 -7l4 7l143 291h26l-165 -327l-38 -264h-24zM152 633l91 75h34l-103 -75h-22z" />
    <glyph glyph-name="Thorn" unicode="&#xde;" horiz-adv-x="369" 
d="M7 0l84 591h25l-17 -117h139q44 0 72.5 -22t20.5 -75l-16 -113q-4 -30 -17 -56t-42.5 -42.5t-83.5 -16.5h-119l-21 -149h-25zM56 167h117q53 0 82.5 25.5t36.5 75.5l15 103q6 44 -16.5 64.5t-55.5 20.5h-139z" />
    <glyph glyph-name="germandbls" unicode="&#xdf;" horiz-adv-x="347" 
d="M-39 -147q-11 0 -26.5 1.5t-23.5 2.5l3 17q3 -1 6 -1t7 -1q5 -1 12.5 -1.5t17.5 -0.5q37 0 52 21t19 50l74 533h-32l3 21h32l4 27q6 38 18 62t39.5 35.5t77.5 11.5q59 0 87 -21.5t20 -76.5l-14 -95q-5 -42 -24.5 -68t-39.5 -28l-1 -4q15 -2 28 -13t20 -31t2 -50l-17 -123
q-7 -52 -25 -78t-45 -34.5t-62 -8.5h-79l3 19h79q28 0 49.5 8t36.5 31t21 69l16 112q5 36 -7.5 56t-35.5 27.5t-51 7.5h-45l3 19h56q50 0 70 26t26 70l12 86q6 41 -15 61.5t-70 20.5q-43 0 -65.5 -13.5t-31 -33t-11.5 -38.5l-82 -583q-3 -22 -9.5 -39t-17.5 -29t-27 -18
t-37 -6z" />
    <glyph glyph-name="agrave" unicode="&#xe0;" horiz-adv-x="350" 
d="M113 -8q-9 0 -26 2.5t-32.5 13t-24 34t-1.5 66.5l45 276q9 57 27.5 82.5t43.5 32t53 6.5q30 0 60.5 -10.5t37.5 -39.5l5 40h25l-70 -495h-25l13 93q-8 -21 -24 -44.5t-42 -40t-65 -16.5zM122 10q29 0 51 16t37.5 40t25.5 50.5t15.5 48t6.5 31.5l32 226q-2 7 -9 22.5
t-25.5 29.5t-58.5 14t-60.5 -15t-28.5 -40t-13 -56l-42 -271q-5 -34 1.5 -54t19.5 -28.5t26.5 -11t21.5 -2.5zM232 544l-61 87h32l44 -87h-15z" />
    <glyph glyph-name="aacute" unicode="&#xe1;" horiz-adv-x="350" 
d="M113 -8q-9 0 -26 2.5t-32.5 13t-24 34t-1.5 66.5l45 276q9 57 27.5 82.5t43.5 32t53 6.5q30 0 60.5 -10.5t37.5 -39.5l5 40h25l-70 -495h-25l13 93q-8 -21 -24 -44.5t-42 -40t-65 -16.5zM122 10q29 0 51 16t37.5 40t25.5 50.5t15.5 48t6.5 31.5l32 226q-2 7 -9 22.5
t-25.5 29.5t-58.5 14t-60.5 -15t-28.5 -40t-13 -56l-42 -271q-5 -34 1.5 -54t19.5 -28.5t26.5 -11t21.5 -2.5zM197 544l62 87h32l-79 -87h-15z" />
    <glyph glyph-name="acircumflex" unicode="&#xe2;" horiz-adv-x="350" 
d="M113 -8q-9 0 -26 2.5t-32.5 13t-24 34t-1.5 66.5l45 276q9 57 27.5 82.5t43.5 32t53 6.5q30 0 60.5 -10.5t37.5 -39.5l5 40h25l-70 -495h-25l13 93q-8 -21 -24 -44.5t-42 -40t-65 -16.5zM122 10q29 0 51 16t37.5 40t25.5 50.5t15.5 48t6.5 31.5l32 226q-2 7 -9 22.5
t-25.5 29.5t-58.5 14t-60.5 -15t-28.5 -40t-13 -56l-42 -271q-5 -34 1.5 -54t19.5 -28.5t26.5 -11t21.5 -2.5zM127 547l97 82h25l73 -82h-21l-68 65l-84 -65h-22z" />
    <glyph glyph-name="atilde" unicode="&#xe3;" horiz-adv-x="350" 
d="M113 -8q-9 0 -26 2.5t-32.5 13t-24 34t-1.5 66.5l45 276q9 57 27.5 82.5t43.5 32t53 6.5q30 0 60.5 -10.5t37.5 -39.5l5 40h25l-70 -495h-25l13 93q-8 -21 -24 -44.5t-42 -40t-65 -16.5zM122 10q29 0 51 16t37.5 40t25.5 50.5t15.5 48t6.5 31.5l32 226q-2 7 -9 22.5
t-25.5 29.5t-58.5 14t-60.5 -15t-28.5 -40t-13 -56l-42 -271q-5 -34 1.5 -54t19.5 -28.5t26.5 -11t21.5 -2.5zM265 556q-12 0 -19 3.5t-19 13.5q-7 5 -16 12t-21 7t-21.5 -8t-15.5 -27h-18q6 23 21 38t37 15q12 0 22 -6t20 -14q9 -7 16 -11t17 -4q12 0 21.5 7t15.5 26h18
q-6 -22 -21 -37t-37 -15z" />
    <glyph glyph-name="adieresis" unicode="&#xe4;" horiz-adv-x="350" 
d="M113 -8q-9 0 -26 2.5t-32.5 13t-24 34t-1.5 66.5l45 276q9 57 27.5 82.5t43.5 32t53 6.5q30 0 60.5 -10.5t37.5 -39.5l5 40h25l-70 -495h-25l13 93q-8 -21 -24 -44.5t-42 -40t-65 -16.5zM122 10q29 0 51 16t37.5 40t25.5 50.5t15.5 48t6.5 31.5l32 226q-2 7 -9 22.5
t-25.5 29.5t-58.5 14t-60.5 -15t-28.5 -40t-13 -56l-42 -271q-5 -34 1.5 -54t19.5 -28.5t26.5 -11t21.5 -2.5zM188 561q-9 0 -15.5 6.5t-6.5 15.5t6.5 15t15.5 6t15.5 -6t6.5 -15t-6.5 -15.5t-15.5 -6.5zM268 561q-9 0 -15.5 6.5t-6.5 15.5t6.5 15t15.5 6t15.5 -6t6.5 -15
t-6.5 -15.5t-15.5 -6.5z" />
    <glyph glyph-name="aring" unicode="&#xe5;" horiz-adv-x="350" 
d="M113 -8q-9 0 -26 2.5t-32.5 13t-24 34t-1.5 66.5l45 276q9 57 27.5 82.5t43.5 32t53 6.5q30 0 60.5 -10.5t37.5 -39.5l5 40h25l-70 -495h-25l13 93q-8 -21 -24 -44.5t-42 -40t-65 -16.5zM122 10q29 0 51 16t37.5 40t25.5 50.5t15.5 48t6.5 31.5l32 226q-2 7 -9 22.5
t-25.5 29.5t-58.5 14t-60.5 -15t-28.5 -40t-13 -56l-42 -271q-5 -34 1.5 -54t19.5 -28.5t26.5 -11t21.5 -2.5zM223 545q-32 0 -49.5 20.5t-13.5 48.5q4 29 27.5 49.5t55.5 20.5q35 0 51.5 -20.5t12.5 -49.5q-4 -28 -29 -48.5t-55 -20.5zM226 563q25 0 41.5 14.5t19.5 36.5
q3 24 -9.5 38t-37.5 14t-41 -14t-19 -38q-3 -22 9 -36.5t37 -14.5z" />
    <glyph glyph-name="ae" unicode="&#xe6;" horiz-adv-x="553" 
d="M118 -3q-15 0 -32.5 3t-31.5 14t-21 34.5t-2 64.5l4 35q5 47 40 77.5t84 54.5q42 21 71 38t45 33.5t18 34.5l4 28q5 31 -7 46.5t-32.5 21t-43.5 5.5q-59 0 -80.5 -29t-29.5 -82l-6 -42h-23l6 44q5 37 18.5 65.5t41.5 45t76 16.5q51 0 72 -14.5t24.5 -37.5t-0.5 -50
l-48 -345l-9 28q-22 -49 -58 -69t-80 -20zM125 16q59 0 92 38t43 103l26 181q-18 -22 -51.5 -39t-68.5 -35q-46 -25 -73.5 -51t-33.5 -69l-4 -30q-6 -47 4.5 -68t29.5 -25.5t36 -4.5zM359 -2q-34 0 -56 5t-34 18t-14.5 37.5t2.5 62.5l37 264q10 68 39.5 94t97.5 26
q67 0 89.5 -25.5t12.5 -94.5l-17 -123h-216l-20 -143q-5 -40 -1 -62t23.5 -30.5t58.5 -8.5t61.5 9.5t34 33t16.5 65.5l6 46h24l-6 -44q-5 -39 -15 -64t-25.5 -39.5t-39.5 -20.5t-58 -6zM302 281h192l15 103q8 54 -7.5 78.5t-74.5 24.5q-58 0 -80 -24.5t-30 -78.5z" />
    <glyph glyph-name="ccedilla" unicode="&#xe7;" horiz-adv-x="334" 
d="M134 -9q-34 0 -56.5 6t-34.5 20.5t-14.5 40t2.5 63.5l37 264q10 69 40 94.5t98 25.5q67 0 89.5 -25.5t12.5 -94.5l-8 -58h-24l8 57q8 54 -7 78.5t-74 24.5q-58 0 -80.5 -24.5t-30.5 -78.5l-37 -265q-8 -60 7 -84t73 -24q59 0 81 24t31 84l8 54h24l-7 -52q-7 -51 -22 -79
t-43 -39.5t-73 -11.5zM114 -134q-13 0 -22.5 4t-17.5 8l8 14q5 -4 16 -7.5t17 -3.5q23 0 35 10t13 23q5 32 -31 32q-7 0 -15.5 -3t-16.5 -8l-11 7l40 58h17l-35 -50l-5 1q8 5 17 6.5t16 1.5q23 0 34 -13.5t9 -28.5q-3 -23 -21 -37t-47 -14z" />
    <glyph glyph-name="egrave" unicode="&#xe8;" horiz-adv-x="336" 
d="M134 -9q-45 0 -70 11.5t-32.5 39.5t-0.5 79l37 264q10 69 44.5 93t97.5 24q72 0 95.5 -31t7.5 -104q-10 -44 -40.5 -70.5t-69.5 -41t-75.5 -21t-57.5 -9.5l-15 -105q-9 -61 6.5 -85t73.5 -24q59 0 81.5 24t30.5 85l7 53h24l-7 -52q-7 -51 -21.5 -79t-42 -39.5
t-73.5 -11.5zM73 247q26 3 59.5 9.5t66 20t56.5 36t32 56.5q14 56 -1 85.5t-75 29.5q-57 0 -84 -23t-35 -78zM218 544l-61 87h32l44 -87h-15z" />
    <glyph glyph-name="eacute" unicode="&#xe9;" horiz-adv-x="336" 
d="M134 -9q-45 0 -70 11.5t-32.5 39.5t-0.5 79l37 264q10 69 44.5 93t97.5 24q72 0 95.5 -31t7.5 -104q-10 -44 -40.5 -70.5t-69.5 -41t-75.5 -21t-57.5 -9.5l-15 -105q-9 -61 6.5 -85t73.5 -24q59 0 81.5 24t30.5 85l7 53h24l-7 -52q-7 -51 -21.5 -79t-42 -39.5
t-73.5 -11.5zM73 247q26 3 59.5 9.5t66 20t56.5 36t32 56.5q14 56 -1 85.5t-75 29.5q-57 0 -84 -23t-35 -78zM183 544l62 87h32l-79 -87h-15z" />
    <glyph glyph-name="ecircumflex" unicode="&#xea;" horiz-adv-x="336" 
d="M134 -9q-45 0 -70 11.5t-32.5 39.5t-0.5 79l37 264q10 69 44.5 93t97.5 24q72 0 95.5 -31t7.5 -104q-10 -44 -40.5 -70.5t-69.5 -41t-75.5 -21t-57.5 -9.5l-15 -105q-9 -61 6.5 -85t73.5 -24q59 0 81.5 24t30.5 85l7 53h24l-7 -52q-7 -51 -21.5 -79t-42 -39.5
t-73.5 -11.5zM73 247q26 3 59.5 9.5t66 20t56.5 36t32 56.5q14 56 -1 85.5t-75 29.5q-57 0 -84 -23t-35 -78zM113 547l97 82h25l73 -82h-21l-68 65l-84 -65h-22z" />
    <glyph glyph-name="edieresis" unicode="&#xeb;" horiz-adv-x="336" 
d="M134 -9q-45 0 -70 11.5t-32.5 39.5t-0.5 79l37 264q10 69 44.5 93t97.5 24q72 0 95.5 -31t7.5 -104q-10 -44 -40.5 -70.5t-69.5 -41t-75.5 -21t-57.5 -9.5l-15 -105q-9 -61 6.5 -85t73.5 -24q59 0 81.5 24t30.5 85l7 53h24l-7 -52q-7 -51 -21.5 -79t-42 -39.5
t-73.5 -11.5zM73 247q26 3 59.5 9.5t66 20t56.5 36t32 56.5q14 56 -1 85.5t-75 29.5q-57 0 -84 -23t-35 -78zM174 561q-9 0 -15.5 6.5t-6.5 15.5t6.5 15t15.5 6t15.5 -6t6.5 -15t-6.5 -15.5t-15.5 -6.5zM254 561q-9 0 -15.5 6.5t-6.5 15.5t6.5 15t15.5 6t15.5 -6t6.5 -15
t-6.5 -15.5t-15.5 -6.5z" />
    <glyph glyph-name="igrave" unicode="&#xec;" horiz-adv-x="151" 
d="M29 0l70 495h23l-70 -495h-23zM129 544l-61 87h32l44 -87h-15z" />
    <glyph glyph-name="iacute" unicode="&#xed;" horiz-adv-x="151" 
d="M29 0l70 495h23l-70 -495h-23zM94 544l62 87h32l-79 -87h-15z" />
    <glyph glyph-name="icircumflex" unicode="&#xee;" horiz-adv-x="151" 
d="M29 0l70 495h23l-70 -495h-23zM24 547l97 82h25l73 -82h-21l-68 65l-84 -65h-22z" />
    <glyph glyph-name="idieresis" unicode="&#xef;" horiz-adv-x="151" 
d="M29 0l70 495h23l-70 -495h-23zM85 561q-9 0 -15.5 6.5t-6.5 15.5t6.5 15t15.5 6t15.5 -6t6.5 -15t-6.5 -15.5t-15.5 -6.5zM165 561q-9 0 -15.5 6.5t-6.5 15.5t6.5 15t15.5 6t15.5 -6t6.5 -15t-6.5 -15.5t-15.5 -6.5z" />
    <glyph glyph-name="eth" unicode="&#xf0;" horiz-adv-x="346" 
d="M129 -8q-17 0 -36.5 2.5t-36 13t-24.5 34.5t-2 67l37 264q9 57 28 83t46 32.5t57 6.5q29 0 58 -9t37 -35q7 63 7 105.5t-18.5 64.5t-70.5 22q-28 0 -53 -5t-40 -9l3 18q15 3 39.5 9.5t54.5 6.5q65 0 89 -28.5t22.5 -84.5t-13.5 -140l-37 -256q-3 -26 -11 -54t-24 -52.5
t-43 -40t-69 -15.5zM131 10q44 0 68.5 22.5t36.5 55.5t17 64l36 260q1 5 -6 21t-27 30.5t-60 14.5q-41 0 -62 -14.5t-29.5 -39t-13.5 -56.5l-37 -263q-5 -34 2.5 -53.5t21 -28t28.5 -11t25 -2.5zM186 546l-10 15l171 131l10 -16z" />
    <glyph glyph-name="ntilde" unicode="&#xf1;" horiz-adv-x="362" 
d="M30 0l69 495h18l-2 -49q17 33 47.5 45t61.5 12q42 0 64.5 -11.5t31 -30.5t8 -42t-3.5 -47l-51 -372h-24l51 363q3 21 4.5 42.5t-4 38.5t-24 27.5t-56.5 10.5q-35 0 -57 -12.5t-34 -29.5t-18 -32l-57 -408h-24zM271 556q-12 0 -19 3.5t-19 13.5q-7 5 -16 12t-21 7
t-21.5 -8t-15.5 -27h-18q6 23 21 38t37 15q12 0 22 -6t20 -14q9 -7 16 -11t17 -4q12 0 21.5 7t15.5 26h18q-6 -22 -21 -37t-37 -15z" />
    <glyph glyph-name="ograve" unicode="&#xf2;" horiz-adv-x="340" 
d="M135 -7q-43 0 -66 11.5t-32 30.5t-8.5 42.5t3.5 47.5l34 247q5 32 16 62t39.5 49.5t85.5 19.5q42 0 65 -11.5t31.5 -30.5t8 -42t-3.5 -47l-34 -247q-4 -32 -15.5 -62.5t-39.5 -50t-84 -19.5zM137 13q46 0 69 17.5t32 44.5t13 55l33 237q4 28 3 54.5t-19 44t-64 17.5
t-69 -17.5t-32 -44t-13 -54.5l-33 -237q-4 -28 -3 -55t19 -44.5t64 -17.5zM220 544l-61 87h32l44 -87h-15z" />
    <glyph glyph-name="oacute" unicode="&#xf3;" horiz-adv-x="340" 
d="M135 -7q-43 0 -66 11.5t-32 30.5t-8.5 42.5t3.5 47.5l34 247q5 32 16 62t39.5 49.5t85.5 19.5q42 0 65 -11.5t31.5 -30.5t8 -42t-3.5 -47l-34 -247q-4 -32 -15.5 -62.5t-39.5 -50t-84 -19.5zM137 13q46 0 69 17.5t32 44.5t13 55l33 237q4 28 3 54.5t-19 44t-64 17.5
t-69 -17.5t-32 -44t-13 -54.5l-33 -237q-4 -28 -3 -55t19 -44.5t64 -17.5zM185 544l62 87h32l-79 -87h-15z" />
    <glyph glyph-name="ocircumflex" unicode="&#xf4;" horiz-adv-x="340" 
d="M135 -7q-43 0 -66 11.5t-32 30.5t-8.5 42.5t3.5 47.5l34 247q5 32 16 62t39.5 49.5t85.5 19.5q42 0 65 -11.5t31.5 -30.5t8 -42t-3.5 -47l-34 -247q-4 -32 -15.5 -62.5t-39.5 -50t-84 -19.5zM137 13q46 0 69 17.5t32 44.5t13 55l33 237q4 28 3 54.5t-19 44t-64 17.5
t-69 -17.5t-32 -44t-13 -54.5l-33 -237q-4 -28 -3 -55t19 -44.5t64 -17.5zM115 547l97 82h25l73 -82h-21l-68 65l-84 -65h-22z" />
    <glyph glyph-name="otilde" unicode="&#xf5;" horiz-adv-x="340" 
d="M135 -7q-43 0 -66 11.5t-32 30.5t-8.5 42.5t3.5 47.5l34 247q5 32 16 62t39.5 49.5t85.5 19.5q42 0 65 -11.5t31.5 -30.5t8 -42t-3.5 -47l-34 -247q-4 -32 -15.5 -62.5t-39.5 -50t-84 -19.5zM137 13q46 0 69 17.5t32 44.5t13 55l33 237q4 28 3 54.5t-19 44t-64 17.5
t-69 -17.5t-32 -44t-13 -54.5l-33 -237q-4 -28 -3 -55t19 -44.5t64 -17.5zM253 556q-12 0 -19 3.5t-19 13.5q-7 5 -16 12t-21 7t-21.5 -8t-15.5 -27h-18q6 23 21 38t37 15q12 0 22 -6t20 -14q9 -7 16 -11t17 -4q12 0 21.5 7t15.5 26h18q-6 -22 -21 -37t-37 -15z" />
    <glyph glyph-name="odieresis" unicode="&#xf6;" horiz-adv-x="340" 
d="M135 -7q-43 0 -66 11.5t-32 30.5t-8.5 42.5t3.5 47.5l34 247q5 32 16 62t39.5 49.5t85.5 19.5q42 0 65 -11.5t31.5 -30.5t8 -42t-3.5 -47l-34 -247q-4 -32 -15.5 -62.5t-39.5 -50t-84 -19.5zM137 13q46 0 69 17.5t32 44.5t13 55l33 237q4 28 3 54.5t-19 44t-64 17.5
t-69 -17.5t-32 -44t-13 -54.5l-33 -237q-4 -28 -3 -55t19 -44.5t64 -17.5zM176 561q-9 0 -15.5 6.5t-6.5 15.5t6.5 15t15.5 6t15.5 -6t6.5 -15t-6.5 -15.5t-15.5 -6.5zM256 561q-9 0 -15.5 6.5t-6.5 15.5t6.5 15t15.5 6t15.5 -6t6.5 -15t-6.5 -15.5t-15.5 -6.5z" />
    <glyph glyph-name="divide" unicode="&#xf7;" horiz-adv-x="354" 
d="M50 282l3 21h254l-3 -21h-254zM152 102q-10 0 -15.5 6t-4.5 16q1 9 8 15t17 6q9 0 15.5 -6t5.5 -15q-1 -10 -9.5 -16t-16.5 -6zM196 421q-9 0 -15 6t-5 16q2 9 9 15.5t17 6.5q9 0 15.5 -6.5t4.5 -15.5q-1 -10 -9 -16t-17 -6z" />
    <glyph glyph-name="oslash" unicode="&#xf8;" horiz-adv-x="341" 
d="M-22 -26l358 542h21l-359 -542h-20zM135 -7q-43 0 -66 11.5t-32 30.5t-8.5 42.5t3.5 47.5l34 247q5 32 16 62t39.5 49.5t85.5 19.5q42 0 65 -11.5t31.5 -30.5t8 -42t-3.5 -47l-34 -247q-4 -32 -15.5 -62.5t-39.5 -50t-84 -19.5zM137 13q46 0 69 17.5t32 44.5t13 55
l33 237q4 28 3 54.5t-19 44t-64 17.5t-69 -17.5t-32 -44t-13 -54.5l-33 -237q-4 -28 -3 -55t19 -44.5t64 -17.5z" />
    <glyph glyph-name="ugrave" unicode="&#xf9;" horiz-adv-x="362" 
d="M138 -8q-42 0 -64.5 11.5t-31.5 30.5t-8.5 42t3.5 47l52 372h24l-51 -363q-3 -22 -4.5 -43.5t4 -39t24.5 -28t56 -10.5q36 0 58 13t34 30.5t17 32.5l57 408h24l-69 -495h-21l5 49q-16 -33 -47 -45t-62 -12zM231 544l-61 87h32l44 -87h-15z" />
    <glyph glyph-name="uacute" unicode="&#xfa;" horiz-adv-x="362" 
d="M138 -8q-42 0 -64.5 11.5t-31.5 30.5t-8.5 42t3.5 47l52 372h24l-51 -363q-3 -22 -4.5 -43.5t4 -39t24.5 -28t56 -10.5q36 0 58 13t34 30.5t17 32.5l57 408h24l-69 -495h-21l5 49q-16 -33 -47 -45t-62 -12zM196 544l62 87h32l-79 -87h-15z" />
    <glyph glyph-name="ucircumflex" unicode="&#xfb;" horiz-adv-x="362" 
d="M138 -8q-42 0 -64.5 11.5t-31.5 30.5t-8.5 42t3.5 47l52 372h24l-51 -363q-3 -22 -4.5 -43.5t4 -39t24.5 -28t56 -10.5q36 0 58 13t34 30.5t17 32.5l57 408h24l-69 -495h-21l5 49q-16 -33 -47 -45t-62 -12zM126 547l97 82h25l73 -82h-21l-68 65l-84 -65h-22z" />
    <glyph glyph-name="udieresis" unicode="&#xfc;" horiz-adv-x="362" 
d="M138 -8q-42 0 -64.5 11.5t-31.5 30.5t-8.5 42t3.5 47l52 372h24l-51 -363q-3 -22 -4.5 -43.5t4 -39t24.5 -28t56 -10.5q36 0 58 13t34 30.5t17 32.5l57 408h24l-69 -495h-21l5 49q-16 -33 -47 -45t-62 -12zM187 561q-9 0 -15.5 6.5t-6.5 15.5t6.5 15t15.5 6t15.5 -6
t6.5 -15t-6.5 -15.5t-15.5 -6.5zM267 561q-9 0 -15.5 6.5t-6.5 15.5t6.5 15t15.5 6t15.5 -6t6.5 -15t-6.5 -15.5t-15.5 -6.5z" />
    <glyph glyph-name="yacute" unicode="&#xfd;" horiz-adv-x="321" 
d="M-42 -116q-10 0 -20.5 1t-17.5 3l4 22q7 -2 14.5 -3t17.5 -1q55 0 103.5 29.5t89.5 80t70 113.5q22 47 39 102.5t26.5 112t9.5 106.5q0 16 -1 27.5t-3 17.5h26q3 -18 3 -41q0 -50 -11 -112t-30 -124t-43 -112q-29 -60 -72 -110.5t-95 -81t-110 -30.5zM76 -57l-22 552h25
l21 -549zM159 544l62 87h32l-79 -87h-15z" />
    <glyph glyph-name="thorn" unicode="&#xfe;" horiz-adv-x="355" 
d="M14 -116l104 746h23l-25 -180q17 25 42.5 39t65.5 14q56 0 78 -19t24.5 -48.5t-2.5 -60.5l-35 -250q-4 -32 -14.5 -62.5t-38.5 -50t-84 -19.5q-49 0 -68.5 15.5t-26.5 38.5l-20 -163h-23zM153 10q50 0 72.5 18t29.5 46t11 57l33 234q3 21 4.5 42.5t-4 39t-24 28
t-56.5 10.5t-61.5 -16.5t-35.5 -43t-16 -56.5l-29 -209q-4 -24 -6.5 -50.5t2.5 -49t23.5 -36.5t56.5 -14z" />
    <glyph glyph-name="ydieresis" unicode="&#xff;" horiz-adv-x="321" 
d="M-42 -116q-10 0 -20.5 1t-17.5 3l4 22q7 -2 14.5 -3t17.5 -1q55 0 103.5 29.5t89.5 80t70 113.5q22 47 39 102.5t26.5 112t9.5 106.5q0 16 -1 27.5t-3 17.5h26q3 -18 3 -41q0 -50 -11 -112t-30 -124t-43 -112q-29 -60 -72 -110.5t-95 -81t-110 -30.5zM76 -57l-22 552h25
l21 -549zM150 561q-9 0 -15.5 6.5t-6.5 15.5t6.5 15t15.5 6t15.5 -6t6.5 -15t-6.5 -15.5t-15.5 -6.5zM230 561q-9 0 -15.5 6.5t-6.5 15.5t6.5 15t15.5 6t15.5 -6t6.5 -15t-6.5 -15.5t-15.5 -6.5z" />
    <glyph glyph-name="Amacron" unicode="&#x100;" horiz-adv-x="352" 
d="M-18 0l233 591h20l64 -591h-24l-18 158h-189l-63 -158h-23zM73 175h183l-40 359zM148 655l2 17h171l-2 -17h-171z" />
    <glyph glyph-name="amacron" unicode="&#x101;" horiz-adv-x="350" 
d="M113 -8q-9 0 -26 2.5t-32.5 13t-24 34t-1.5 66.5l45 276q9 57 27.5 82.5t43.5 32t53 6.5q30 0 60.5 -10.5t37.5 -39.5l5 40h25l-70 -495h-25l13 93q-8 -21 -24 -44.5t-42 -40t-65 -16.5zM122 10q29 0 51 16t37.5 40t25.5 50.5t15.5 48t6.5 31.5l32 226q-2 7 -9 22.5
t-25.5 29.5t-58.5 14t-60.5 -15t-28.5 -40t-13 -56l-42 -271q-5 -34 1.5 -54t19.5 -28.5t26.5 -11t21.5 -2.5zM142 570l2 17h171l-2 -17h-171z" />
    <glyph glyph-name="Abreve" unicode="&#x102;" horiz-adv-x="352" 
d="M-18 0l233 591h20l64 -591h-24l-18 158h-189l-63 -158h-23zM73 175h183l-40 359zM228 627q-24 0 -39.5 8t-23.5 20.5t-11 26.5t-2 26h19q1 -32 17 -48t43 -16q29 0 50 15.5t29 48.5h19q-4 -16 -16 -35t-32.5 -32.5t-52.5 -13.5z" />
    <glyph glyph-name="abreve" unicode="&#x103;" horiz-adv-x="350" 
d="M113 -8q-9 0 -26 2.5t-32.5 13t-24 34t-1.5 66.5l45 276q9 57 27.5 82.5t43.5 32t53 6.5q30 0 60.5 -10.5t37.5 -39.5l5 40h25l-70 -495h-25l13 93q-8 -21 -24 -44.5t-42 -40t-65 -16.5zM122 10q29 0 51 16t37.5 40t25.5 50.5t15.5 48t6.5 31.5l32 226q-2 7 -9 22.5
t-25.5 29.5t-58.5 14t-60.5 -15t-28.5 -40t-13 -56l-42 -271q-5 -34 1.5 -54t19.5 -28.5t26.5 -11t21.5 -2.5zM223 543q-24 0 -39.5 8t-23.5 20.5t-11 26.5t-2 26h19q1 -32 17 -48t43 -16q29 0 50 15.5t29 48.5h19q-4 -16 -16 -35t-32.5 -32.5t-52.5 -13.5z" />
    <glyph glyph-name="Aogonek" unicode="&#x104;" horiz-adv-x="352" 
d="M-18 0l233 591h20l64 -591h-24l-18 158h-189l-63 -158h-23zM73 175h183l-40 359zM266 -129q-23 0 -39 14.5t-13 39.5q5 29 26 47.5t40 27.5h21q-28 -14 -45 -33t-20 -39t8.5 -30t24.5 -10q10 0 18 2.5t12 4.5l4 -14q-7 -4 -16.5 -7t-20.5 -3z" />
    <glyph glyph-name="aogonek" unicode="&#x105;" horiz-adv-x="350" 
d="M113 -8q-9 0 -26 2.5t-32.5 13t-24 34t-1.5 66.5l45 276q9 57 27.5 82.5t43.5 32t53 6.5q30 0 60.5 -10.5t37.5 -39.5l5 40h25l-70 -495h-25l13 93q-8 -21 -24 -44.5t-42 -40t-65 -16.5zM122 10q29 0 51 16t37.5 40t25.5 50.5t15.5 48t6.5 31.5l32 226q-2 7 -9 22.5
t-25.5 29.5t-58.5 14t-60.5 -15t-28.5 -40t-13 -56l-42 -271q-5 -34 1.5 -54t19.5 -28.5t26.5 -11t21.5 -2.5zM223 -129q-23 0 -39 14.5t-13 39.5q5 29 26 47.5t40 27.5h21q-28 -14 -45 -33t-20 -39t8.5 -30t24.5 -10q10 0 18 2.5t12 4.5l4 -14q-7 -4 -16.5 -7t-20.5 -3z
" />
    <glyph glyph-name="Cacute" unicode="&#x106;" horiz-adv-x="402" 
d="M167 -12q-39 0 -68.5 9t-43.5 37t-6 86l50 349q8 58 30 85.5t54.5 36t71.5 8.5q40 0 69.5 -9t43.5 -36.5t6 -84.5l-13 -90h-24l12 88q8 51 -3.5 75.5t-36 32t-57.5 7.5q-34 0 -61 -7.5t-44.5 -32t-25.5 -75.5l-48 -346q-7 -51 3.5 -75.5t35.5 -32t58 -7.5q34 0 61 7.5
t45 32t25 75.5l9 70h24l-10 -71q-8 -59 -29.5 -87t-54 -36.5t-73.5 -8.5zM205 633l91 75h34l-103 -75h-22z" />
    <glyph glyph-name="cacute" unicode="&#x107;" horiz-adv-x="334" 
d="M134 -9q-34 0 -56.5 6t-34.5 20.5t-14.5 40t2.5 63.5l37 264q10 69 40 94.5t98 25.5q67 0 89.5 -25.5t12.5 -94.5l-8 -58h-24l8 57q8 54 -7 78.5t-74 24.5q-58 0 -80.5 -24.5t-30.5 -78.5l-37 -265q-8 -60 7 -84t73 -24q59 0 81 24t31 84l8 54h24l-7 -52q-7 -51 -22 -79
t-43 -39.5t-73 -11.5zM182 544l62 87h32l-79 -87h-15z" />
    <glyph glyph-name="Ccircumflex" unicode="&#x108;" horiz-adv-x="402" 
d="M167 -12q-39 0 -68.5 9t-43.5 37t-6 86l50 349q8 58 30 85.5t54.5 36t71.5 8.5q40 0 69.5 -9t43.5 -36.5t6 -84.5l-13 -90h-24l12 88q8 51 -3.5 75.5t-36 32t-57.5 7.5q-34 0 -61 -7.5t-44.5 -32t-25.5 -75.5l-48 -346q-7 -51 3.5 -75.5t35.5 -32t58 -7.5q34 0 61 7.5
t45 32t25 75.5l9 70h24l-10 -71q-8 -59 -29.5 -87t-54 -36.5t-73.5 -8.5zM157 628l97 82h25l73 -82h-21l-68 65l-84 -65h-22z" />
    <glyph glyph-name="ccircumflex" unicode="&#x109;" horiz-adv-x="334" 
d="M134 -9q-34 0 -56.5 6t-34.5 20.5t-14.5 40t2.5 63.5l37 264q10 69 40 94.5t98 25.5q67 0 89.5 -25.5t12.5 -94.5l-8 -58h-24l8 57q8 54 -7 78.5t-74 24.5q-58 0 -80.5 -24.5t-30.5 -78.5l-37 -265q-8 -60 7 -84t73 -24q59 0 81 24t31 84l8 54h24l-7 -52q-7 -51 -22 -79
t-43 -39.5t-73 -11.5zM112 547l97 82h25l73 -82h-21l-68 65l-84 -65h-22z" />
    <glyph glyph-name="Cdotaccent" unicode="&#x10a;" horiz-adv-x="402" 
d="M167 -12q-39 0 -68.5 9t-43.5 37t-6 86l50 349q8 58 30 85.5t54.5 36t71.5 8.5q40 0 69.5 -9t43.5 -36.5t6 -84.5l-13 -90h-24l12 88q8 51 -3.5 75.5t-36 32t-57.5 7.5q-34 0 -61 -7.5t-44.5 -32t-25.5 -75.5l-48 -346q-7 -51 3.5 -75.5t35.5 -32t58 -7.5q34 0 61 7.5
t45 32t25 75.5l9 70h24l-10 -71q-8 -59 -29.5 -87t-54 -36.5t-73.5 -8.5zM257 627q-9 0 -15.5 6.5t-6.5 15.5t6.5 15t15.5 6t15.5 -6t6.5 -15t-6.5 -15.5t-15.5 -6.5z" />
    <glyph glyph-name="cdotaccent" unicode="&#x10b;" horiz-adv-x="334" 
d="M134 -9q-34 0 -56.5 6t-34.5 20.5t-14.5 40t2.5 63.5l37 264q10 69 40 94.5t98 25.5q67 0 89.5 -25.5t12.5 -94.5l-8 -58h-24l8 57q8 54 -7 78.5t-74 24.5q-58 0 -80.5 -24.5t-30.5 -78.5l-37 -265q-8 -60 7 -84t73 -24q59 0 81 24t31 84l8 54h24l-7 -52q-7 -51 -22 -79
t-43 -39.5t-73 -11.5zM214 561q-9 0 -15.5 6.5t-6.5 15.5t6.5 15t15.5 6t15.5 -6t6.5 -15t-6.5 -15.5t-15.5 -6.5z" />
    <glyph glyph-name="Ccaron" unicode="&#x10c;" horiz-adv-x="402" 
d="M167 -12q-39 0 -68.5 9t-43.5 37t-6 86l50 349q8 58 30 85.5t54.5 36t71.5 8.5q40 0 69.5 -9t43.5 -36.5t6 -84.5l-13 -90h-24l12 88q8 51 -3.5 75.5t-36 32t-57.5 7.5q-34 0 -61 -7.5t-44.5 -32t-25.5 -75.5l-48 -346q-7 -51 3.5 -75.5t35.5 -32t58 -7.5q34 0 61 7.5
t45 32t25 75.5l9 70h24l-10 -71q-8 -59 -29.5 -87t-54 -36.5t-73.5 -8.5zM241 628l-73 82h22l66 -65l86 65h21l-97 -82h-25z" />
    <glyph glyph-name="ccaron" unicode="&#x10d;" horiz-adv-x="334" 
d="M134 -9q-34 0 -56.5 6t-34.5 20.5t-14.5 40t2.5 63.5l37 264q10 69 40 94.5t98 25.5q67 0 89.5 -25.5t12.5 -94.5l-8 -58h-24l8 57q8 54 -7 78.5t-74 24.5q-58 0 -80.5 -24.5t-30.5 -78.5l-37 -265q-8 -60 7 -84t73 -24q59 0 81 24t31 84l8 54h24l-7 -52q-7 -51 -22 -79
t-43 -39.5t-73 -11.5zM202 547l-73 82h22l66 -65l86 65h21l-97 -82h-25z" />
    <glyph glyph-name="Dcaron" unicode="&#x10e;" horiz-adv-x="422" 
d="M43 0l84 591h155q36 0 61.5 -10.5t37 -38.5t3.5 -80l-46 -332q-7 -52 -27 -80.5t-49 -39t-65 -10.5h-154zM70 18h130q44 0 74 23.5t40 90.5l46 326q10 67 -14.5 91t-68.5 24h-130zM251 628l-73 82h22l66 -65l86 65h21l-97 -82h-25z" />
    <glyph glyph-name="dcaron" unicode="&#x10f;" horiz-adv-x="355" 
d="M130 -8q-41 0 -63 11t-30.5 30t-8.5 43t4 49l35 250q5 32 15.5 61.5t38.5 49t83 19.5q41 0 63.5 -11.5t31.5 -29.5l23 166h23l-89 -630h-17l4 47q-8 -15 -21.5 -27.5t-35.5 -20t-56 -7.5zM133 10q39 0 62 14t34.5 36.5t17 49t8.5 50.5q9 66 18 131t19 131q-1 13 -9 28
t-26.5 26t-53.5 11q-50 0 -72.5 -18.5t-29.5 -46.5t-11 -57l-33 -234q-3 -22 -4.5 -43.5t4 -39t23 -28t53.5 -10.5zM369 534l31 117h21l-38 -117h-14z" />
    <glyph glyph-name="Dcroat" unicode="&#x110;" horiz-adv-x="428" 
d="M41 0l84 591h155q36 0 61.5 -10.5t37 -38.5t3.5 -80l-46 -332q-7 -52 -27 -80.5t-49 -39t-65 -10.5h-154zM18 278l2 21h161l-2 -21h-161zM68 18h129q45 0 75 23.5t40 90.5l46 326q10 67 -14 91t-69 24h-130z" />
    <glyph glyph-name="dcroat" unicode="&#x111;" horiz-adv-x="345" 
d="M172 556l3 19h201l-3 -19h-201zM130 -8q-41 0 -63 11t-30.5 30t-8.5 43t4 49l35 250q5 32 15.5 61.5t38.5 49t83 19.5q41 0 63.5 -11.5t31.5 -29.5l23 166h23l-89 -630h-17l4 47q-8 -15 -21.5 -27.5t-35.5 -20t-56 -7.5zM133 10q39 0 62 14t34.5 36.5t17 49t8.5 50.5
q9 66 18 131t19 131q-1 13 -9 28t-26.5 26t-53.5 11q-50 0 -72.5 -18.5t-29.5 -46.5t-11 -57l-33 -234q-3 -22 -4.5 -43.5t4 -39t23 -28t53.5 -10.5z" />
    <glyph glyph-name="Emacron" unicode="&#x112;" horiz-adv-x="349" 
d="M43 0l84 591h243l-4 -19h-218l-35 -251h168l-2 -19h-169l-39 -283h218l-3 -19h-243zM170 655l2 17h171l-2 -17h-171z" />
    <glyph glyph-name="emacron" unicode="&#x113;" horiz-adv-x="336" 
d="M134 -9q-45 0 -70 11.5t-32.5 39.5t-0.5 79l37 264q10 69 44.5 93t97.5 24q72 0 95.5 -31t7.5 -104q-10 -44 -40.5 -70.5t-69.5 -41t-75.5 -21t-57.5 -9.5l-15 -105q-9 -61 6.5 -85t73.5 -24q59 0 81.5 24t30.5 85l7 53h24l-7 -52q-7 -51 -21.5 -79t-42 -39.5
t-73.5 -11.5zM73 247q26 3 59.5 9.5t66 20t56.5 36t32 56.5q14 56 -1 85.5t-75 29.5q-57 0 -84 -23t-35 -78zM128 570l2 17h171l-2 -17h-171z" />
    <glyph glyph-name="Ebreve" unicode="&#x114;" horiz-adv-x="349" 
d="M43 0l84 591h243l-4 -19h-218l-35 -251h168l-2 -19h-169l-39 -283h218l-3 -19h-243zM250 627q-24 0 -39.5 8t-23.5 20.5t-11 26.5t-2 26h19q1 -32 17 -48t43 -16q29 0 50 15.5t29 48.5h19q-4 -16 -16 -35t-32.5 -32.5t-52.5 -13.5z" />
    <glyph glyph-name="ebreve" unicode="&#x115;" horiz-adv-x="336" 
d="M134 -9q-45 0 -70 11.5t-32.5 39.5t-0.5 79l37 264q10 69 44.5 93t97.5 24q72 0 95.5 -31t7.5 -104q-10 -44 -40.5 -70.5t-69.5 -41t-75.5 -21t-57.5 -9.5l-15 -105q-9 -61 6.5 -85t73.5 -24q59 0 81.5 24t30.5 85l7 53h24l-7 -52q-7 -51 -21.5 -79t-42 -39.5
t-73.5 -11.5zM73 247q26 3 59.5 9.5t66 20t56.5 36t32 56.5q14 56 -1 85.5t-75 29.5q-57 0 -84 -23t-35 -78zM209 543q-24 0 -39.5 8t-23.5 20.5t-11 26.5t-2 26h19q1 -32 17 -48t43 -16q29 0 50 15.5t29 48.5h19q-4 -16 -16 -35t-32.5 -32.5t-52.5 -13.5z" />
    <glyph glyph-name="Edotaccent" unicode="&#x116;" horiz-adv-x="349" 
d="M43 0l84 591h243l-4 -19h-218l-35 -251h168l-2 -19h-169l-39 -283h218l-3 -19h-243zM254 627q-9 0 -15.5 6.5t-6.5 15.5t6.5 15t15.5 6t15.5 -6t6.5 -15t-6.5 -15.5t-15.5 -6.5z" />
    <glyph glyph-name="edotaccent" unicode="&#x117;" horiz-adv-x="336" 
d="M134 -9q-45 0 -70 11.5t-32.5 39.5t-0.5 79l37 264q10 69 44.5 93t97.5 24q72 0 95.5 -31t7.5 -104q-10 -44 -40.5 -70.5t-69.5 -41t-75.5 -21t-57.5 -9.5l-15 -105q-9 -61 6.5 -85t73.5 -24q59 0 81.5 24t30.5 85l7 53h24l-7 -52q-7 -51 -21.5 -79t-42 -39.5
t-73.5 -11.5zM73 247q26 3 59.5 9.5t66 20t56.5 36t32 56.5q14 56 -1 85.5t-75 29.5q-57 0 -84 -23t-35 -78zM215 561q-9 0 -15.5 6.5t-6.5 15.5t6.5 15t15.5 6t15.5 -6t6.5 -15t-6.5 -15.5t-15.5 -6.5z" />
    <glyph glyph-name="Eogonek" unicode="&#x118;" horiz-adv-x="349" 
d="M43 0l84 591h243l-4 -19h-218l-35 -251h168l-2 -19h-169l-39 -283h218l-3 -19h-243zM248 -119q-23 0 -39 14.5t-13 39.5q5 29 26 47.5t40 27.5h21q-28 -14 -45 -33t-20 -39t8.5 -30t24.5 -10q10 0 18 2.5t12 4.5l4 -14q-7 -4 -16.5 -7t-20.5 -3z" />
    <glyph glyph-name="eogonek" unicode="&#x119;" horiz-adv-x="336" 
d="M134 -9q-45 0 -70 11.5t-32.5 39.5t-0.5 79l37 264q10 69 44.5 93t97.5 24q72 0 95.5 -31t7.5 -104q-10 -44 -40.5 -70.5t-69.5 -41t-75.5 -21t-57.5 -9.5l-15 -105q-9 -61 6.5 -85t73.5 -24q59 0 81.5 24t30.5 85l7 53h24l-7 -52q-7 -51 -21.5 -79t-42 -39.5
t-73.5 -11.5zM73 247q26 3 59.5 9.5t66 20t56.5 36t32 56.5q14 56 -1 85.5t-75 29.5q-57 0 -84 -23t-35 -78zM144 -129q-23 0 -39 14.5t-13 39.5q5 29 26 47.5t40 27.5h21q-28 -14 -45 -33t-20 -39t8.5 -30t24.5 -10q10 0 18 2.5t12 4.5l4 -14q-7 -4 -16.5 -7t-20.5 -3z" />
    <glyph glyph-name="Ecaron" unicode="&#x11a;" horiz-adv-x="349" 
d="M43 0l84 591h243l-4 -19h-218l-35 -251h168l-2 -19h-169l-39 -283h218l-3 -19h-243zM238 628l-73 82h22l66 -65l86 65h21l-97 -82h-25z" />
    <glyph glyph-name="ecaron" unicode="&#x11b;" horiz-adv-x="336" 
d="M134 -9q-45 0 -70 11.5t-32.5 39.5t-0.5 79l37 264q10 69 44.5 93t97.5 24q72 0 95.5 -31t7.5 -104q-10 -44 -40.5 -70.5t-69.5 -41t-75.5 -21t-57.5 -9.5l-15 -105q-9 -61 6.5 -85t73.5 -24q59 0 81.5 24t30.5 85l7 53h24l-7 -52q-7 -51 -21.5 -79t-42 -39.5
t-73.5 -11.5zM73 247q26 3 59.5 9.5t66 20t56.5 36t32 56.5q14 56 -1 85.5t-75 29.5q-57 0 -84 -23t-35 -78zM203 547l-73 82h22l66 -65l86 65h21l-97 -82h-25z" />
    <glyph glyph-name="Gcircumflex" unicode="&#x11c;" horiz-adv-x="406" 
d="M165 -12q-38 0 -67 9t-43 37t-6 85l50 350q8 58 29.5 85.5t54.5 36t73 8.5t69.5 -9t43 -36.5t5.5 -84.5l-10 -69h-24l9 66q8 51 -3 75.5t-35.5 32t-58.5 7.5t-61 -7.5t-45 -32t-25 -75.5l-48 -345q-7 -51 3.5 -75.5t35.5 -32t58 -7.5q50 0 86.5 30t44.5 85l18 128h-97
l2 18h121l-37 -267h-17l8 64q-7 -9 -14 -18.5t-13 -16.5q-20 -21 -46 -31t-61 -10zM159 628l97 82h25l73 -82h-21l-68 65l-84 -65h-22z" />
    <glyph glyph-name="gcircumflex" unicode="&#x11d;" horiz-adv-x="344" 
d="M103 -116q-9 0 -20.5 1t-22 2t-18 2t-10.5 2l2 18q11 -1 30.5 -4t37.5 -3q12 0 31.5 1.5t40.5 12t38 35.5t23 72l9 66q-10 -24 -27 -39.5t-38.5 -22.5t-47.5 -7q-16 0 -35 2.5t-35.5 13t-24.5 34.5t-2 67l34 244q8 53 25 78.5t43.5 34t60.5 8.5q21 0 42 -4.5t37 -15
t19 -30.5l10 40h19l-66 -473q-6 -41 -21.5 -67.5t-37.5 -41t-47 -20.5t-49 -6zM135 39q44 0 68.5 22t36.5 55t16 65l34 239q-3 13 -11.5 28t-27.5 26t-54 11q-49 0 -73 -22.5t-32 -82.5l-34 -246q-5 -34 2.5 -53.5t21.5 -28t28.5 -11t24.5 -2.5zM116 547l97 82h25l73 -82
h-21l-68 65l-84 -65h-22z" />
    <glyph glyph-name="Gbreve" unicode="&#x11e;" horiz-adv-x="406" 
d="M165 -12q-38 0 -67 9t-43 37t-6 85l50 350q8 58 29.5 85.5t54.5 36t73 8.5t69.5 -9t43 -36.5t5.5 -84.5l-10 -69h-24l9 66q8 51 -3 75.5t-35.5 32t-58.5 7.5t-61 -7.5t-45 -32t-25 -75.5l-48 -345q-7 -51 3.5 -75.5t35.5 -32t58 -7.5q50 0 86.5 30t44.5 85l18 128h-97
l2 18h121l-37 -267h-17l8 64q-7 -9 -14 -18.5t-13 -16.5q-20 -21 -46 -31t-61 -10zM255 627q-24 0 -39.5 8t-23.5 20.5t-11 26.5t-2 26h19q1 -32 17 -48t43 -16q29 0 50 15.5t29 48.5h19q-4 -16 -16 -35t-32.5 -32.5t-52.5 -13.5z" />
    <glyph glyph-name="gbreve" unicode="&#x11f;" horiz-adv-x="344" 
d="M103 -116q-9 0 -20.5 1t-22 2t-18 2t-10.5 2l2 18q11 -1 30.5 -4t37.5 -3q12 0 31.5 1.5t40.5 12t38 35.5t23 72l9 66q-10 -24 -27 -39.5t-38.5 -22.5t-47.5 -7q-16 0 -35 2.5t-35.5 13t-24.5 34.5t-2 67l34 244q8 53 25 78.5t43.5 34t60.5 8.5q21 0 42 -4.5t37 -15
t19 -30.5l10 40h19l-66 -473q-6 -41 -21.5 -67.5t-37.5 -41t-47 -20.5t-49 -6zM135 39q44 0 68.5 22t36.5 55t16 65l34 239q-3 13 -11.5 28t-27.5 26t-54 11q-49 0 -73 -22.5t-32 -82.5l-34 -246q-5 -34 2.5 -53.5t21.5 -28t28.5 -11t24.5 -2.5zM212 543q-24 0 -39.5 8
t-23.5 20.5t-11 26.5t-2 26h19q1 -32 17 -48t43 -16q29 0 50 15.5t29 48.5h19q-4 -16 -16 -35t-32.5 -32.5t-52.5 -13.5z" />
    <glyph glyph-name="Gdotaccent" unicode="&#x120;" horiz-adv-x="406" 
d="M165 -12q-38 0 -67 9t-43 37t-6 85l50 350q8 58 29.5 85.5t54.5 36t73 8.5t69.5 -9t43 -36.5t5.5 -84.5l-10 -69h-24l9 66q8 51 -3 75.5t-35.5 32t-58.5 7.5t-61 -7.5t-45 -32t-25 -75.5l-48 -345q-7 -51 3.5 -75.5t35.5 -32t58 -7.5q50 0 86.5 30t44.5 85l18 128h-97
l2 18h121l-37 -267h-17l8 64q-7 -9 -14 -18.5t-13 -16.5q-20 -21 -46 -31t-61 -10zM259 627q-9 0 -15.5 6.5t-6.5 15.5t6.5 15t15.5 6t15.5 -6t6.5 -15t-6.5 -15.5t-15.5 -6.5z" />
    <glyph glyph-name="gdotaccent" unicode="&#x121;" horiz-adv-x="344" 
d="M103 -116q-9 0 -20.5 1t-22 2t-18 2t-10.5 2l2 18q11 -1 30.5 -4t37.5 -3q12 0 31.5 1.5t40.5 12t38 35.5t23 72l9 66q-10 -24 -27 -39.5t-38.5 -22.5t-47.5 -7q-16 0 -35 2.5t-35.5 13t-24.5 34.5t-2 67l34 244q8 53 25 78.5t43.5 34t60.5 8.5q21 0 42 -4.5t37 -15
t19 -30.5l10 40h19l-66 -473q-6 -41 -21.5 -67.5t-37.5 -41t-47 -20.5t-49 -6zM135 39q44 0 68.5 22t36.5 55t16 65l34 239q-3 13 -11.5 28t-27.5 26t-54 11q-49 0 -73 -22.5t-32 -82.5l-34 -246q-5 -34 2.5 -53.5t21.5 -28t28.5 -11t24.5 -2.5zM218 561q-9 0 -15.5 6.5
t-6.5 15.5t6.5 15t15.5 6t15.5 -6t6.5 -15t-6.5 -15.5t-15.5 -6.5z" />
    <glyph glyph-name="uni0122" unicode="&#x122;" horiz-adv-x="406" 
d="M165 -12q-38 0 -67 9t-43 37t-6 85l50 350q8 58 29.5 85.5t54.5 36t73 8.5t69.5 -9t43 -36.5t5.5 -84.5l-10 -69h-24l9 66q8 51 -3 75.5t-35.5 32t-58.5 7.5t-61 -7.5t-45 -32t-25 -75.5l-48 -345q-7 -51 3.5 -75.5t35.5 -32t58 -7.5q50 0 86.5 30t44.5 85l18 128h-97
l2 18h121l-37 -267h-17l8 64q-7 -9 -14 -18.5t-13 -16.5q-20 -21 -46 -31t-61 -10zM121 -133q16 22 24 37.5t8 22.5q0 5 -2.5 8t-5.5 7t-3 11q0 6 5.5 12t13.5 6t13 -5t5 -13q0 -10 -7 -25t-17 -31t-21 -30h-13z" />
    <glyph glyph-name="uni0123" unicode="&#x123;" horiz-adv-x="344" 
d="M256 650q-16 -22 -24 -37.5t-8 -22.5q0 -4 3 -7.5t5.5 -7.5t2.5 -11q0 -6 -5.5 -12t-13.5 -6t-13 5.5t-5 12.5q0 10 7 25t17.5 31.5t20.5 29.5h13zM103 -116q-9 0 -20.5 1t-22 2t-18 2t-10.5 2l2 18q11 -1 30.5 -4t37.5 -3q12 0 31.5 1.5t40.5 12t38 35.5t23 72l9 66
q-10 -24 -27 -39.5t-38.5 -22.5t-47.5 -7q-16 0 -35 2.5t-35.5 13t-24.5 34.5t-2 67l34 244q8 53 25 78.5t43.5 34t60.5 8.5q21 0 42 -4.5t37 -15t19 -30.5l10 40h19l-66 -473q-6 -41 -21.5 -67.5t-37.5 -41t-47 -20.5t-49 -6zM135 39q44 0 68.5 22t36.5 55t16 65l34 239
q-3 13 -11.5 28t-27.5 26t-54 11q-49 0 -73 -22.5t-32 -82.5l-34 -246q-5 -34 2.5 -53.5t21.5 -28t28.5 -11t24.5 -2.5z" />
    <glyph glyph-name="Hcircumflex" unicode="&#x124;" horiz-adv-x="433" 
d="M43 0l84 591h24l-38 -270h228l39 270h23l-84 -591h-23l42 301h-228l-43 -301h-24zM173 628l97 82h25l73 -82h-21l-68 65l-84 -65h-22z" />
    <glyph glyph-name="hcircumflex" unicode="&#x125;" horiz-adv-x="362" 
d="M30 0l88 630h24l-24 -168q16 19 41.5 30t64.5 11q42 0 64.5 -11.5t31.5 -30.5t8.5 -42t-3.5 -47l-52 -372h-24l51 363q3 18 4.5 39t-4.5 39.5t-24 30.5t-56 12q-35 0 -58 -11.5t-34.5 -26.5t-14.5 -26l-59 -420h-24zM38 667l97 82h25l73 -82h-21l-68 65l-84 -65h-22z" />
    <glyph glyph-name="Hbar" unicode="&#x126;" horiz-adv-x="432" 
d="M43 0l84 591h24l-38 -270h228l39 270h23l-84 -591h-23l42 301h-228l-43 -301h-24zM69 465l3 21h356l-3 -21h-356z" />
    <glyph glyph-name="hbar" unicode="&#x127;" horiz-adv-x="362" 
d="M30 0l88 630h24l-24 -168q16 19 41.5 30t64.5 11q42 0 64.5 -11.5t31.5 -30.5t8.5 -42t-3.5 -47l-52 -372h-24l51 363q3 18 4.5 39t-4.5 39.5t-24 30.5t-56 12q-35 0 -58 -11.5t-34.5 -26.5t-14.5 -26l-59 -420h-24zM68 538l2 17h171l-2 -17h-171z" />
    <glyph glyph-name="Itilde" unicode="&#x128;" horiz-adv-x="181" 
d="M43 0l84 591h24l-84 -591h-24zM185 641q-12 0 -19 3.5t-19 13.5q-7 5 -16 12t-21 7t-21.5 -8t-15.5 -27h-18q6 23 21 38t37 15q12 0 22 -6t20 -14q9 -7 16 -11t17 -4q12 0 21.5 7t15.5 26h18q-6 -22 -21 -37t-37 -15z" />
    <glyph glyph-name="itilde" unicode="&#x129;" horiz-adv-x="151" 
d="M29 0l70 495h23l-70 -495h-23zM162 556q-12 0 -19 3.5t-19 13.5q-7 5 -16 12t-21 7t-21.5 -8t-15.5 -27h-18q6 23 21 38t37 15q12 0 22 -6t20 -14q9 -7 16 -11t17 -4q12 0 21.5 7t15.5 26h18q-6 -22 -21 -37t-37 -15z" />
    <glyph glyph-name="Imacron" unicode="&#x12a;" horiz-adv-x="181" 
d="M43 0l84 591h24l-84 -591h-24zM63 655l2 17h171l-2 -17h-171z" />
    <glyph glyph-name="imacron" unicode="&#x12b;" horiz-adv-x="151" 
d="M29 0l70 495h23l-70 -495h-23zM39 570l2 17h171l-2 -17h-171z" />
    <glyph glyph-name="Ibreve" unicode="&#x12c;" horiz-adv-x="181" 
d="M43 0l84 591h24l-84 -591h-24zM143 627q-24 0 -39.5 8t-23.5 20.5t-11 26.5t-2 26h19q1 -32 17 -48t43 -16q29 0 50 15.5t29 48.5h19q-4 -16 -16 -35t-32.5 -32.5t-52.5 -13.5z" />
    <glyph glyph-name="ibreve" unicode="&#x12d;" horiz-adv-x="151" 
d="M29 0l70 495h23l-70 -495h-23zM120 543q-24 0 -39.5 8t-23.5 20.5t-11 26.5t-2 26h19q1 -32 17 -48t43 -16q29 0 50 15.5t29 48.5h19q-4 -16 -16 -35t-32.5 -32.5t-52.5 -13.5z" />
    <glyph glyph-name="Iogonek" unicode="&#x12e;" horiz-adv-x="181" 
d="M43 0l84 591h24l-84 -591h-24zM34 -129q-23 0 -39 14.5t-13 39.5q5 29 26 47.5t40 27.5h21q-28 -14 -45 -33t-20 -39t8.5 -30t24.5 -10q10 0 18 2.5t12 4.5l4 -14q-7 -4 -16.5 -7t-20.5 -3z" />
    <glyph glyph-name="iogonek" unicode="&#x12f;" horiz-adv-x="151" 
d="M29 0l70 495h23l-70 -495h-23zM126 561q-9 0 -15.5 6.5t-6.5 15.5t6.5 15t15.5 6t15.5 -6t6.5 -15t-6.5 -15.5t-15.5 -6.5zM19 -129q-23 0 -39 14.5t-13 39.5q5 29 26 47.5t40 27.5h21q-28 -14 -45 -33t-20 -39t8.5 -30t24.5 -10q10 0 18 2.5t12 4.5l4 -14
q-7 -4 -16.5 -7t-20.5 -3z" />
    <glyph glyph-name="Idotaccent" unicode="&#x130;" horiz-adv-x="181" 
d="M43 0l84 591h24l-84 -591h-24zM147 627q-9 0 -15.5 6.5t-6.5 15.5t6.5 15t15.5 6t15.5 -6t6.5 -15t-6.5 -15.5t-15.5 -6.5z" />
    <glyph glyph-name="dotlessi" unicode="&#x131;" horiz-adv-x="151" 
d="M29 0l70 495h23l-70 -495h-23z" />
    <glyph glyph-name="Jcircumflex" unicode="&#x134;" horiz-adv-x="201" 
d="M8 -1h-16.5t-17.5 1l3 20l34 -1q32 -1 48.5 12.5t21.5 50.5l72 509h24l-66 -473q-6 -44 -15 -70.5t-29 -37.5t-59 -11zM73 628l97 82h25l73 -82h-21l-68 65l-84 -65h-22z" />
    <glyph glyph-name="jcircumflex" unicode="&#x135;" horiz-adv-x="127" 
d="M-91 -110q-4 0 -10.5 0.5t-8.5 1.5l3 16q0 -1 6.5 -1.5t13.5 -0.5q42 0 68 13t33 59l72 517h23l-73 -518q-5 -39 -23 -57.5t-45 -24t-59 -5.5zM9 547l97 82h25l73 -82h-21l-68 65l-84 -65h-22z" />
    <glyph glyph-name="uni0136" unicode="&#x136;" horiz-adv-x="349" 
d="M269 0l-138 308l216 283h28l-218 -285l141 -306h-29zM43 0l84 591h24l-84 -591h-24zM118 -133q16 22 24 37.5t8 22.5q0 5 -2.5 8t-5.5 7t-3 11q0 6 5.5 12t13.5 6t13 -5t5 -13q0 -10 -7 -25t-17 -31t-21 -30h-13z" />
    <glyph glyph-name="uni0137" unicode="&#x137;" horiz-adv-x="304" 
d="M29 0l90 636h23l-90 -636h-23zM225 0l-108 288l175 207h25l-174 -206l107 -289h-25zM94 -133q16 22 24 37.5t8 22.5q0 5 -2.5 8t-5.5 7t-3 11q0 6 5.5 12t13.5 6t13 -5t5 -13q0 -10 -7 -25t-17 -31t-21 -30h-13z" />
    <glyph glyph-name="kgreenlandic" unicode="&#x138;" horiz-adv-x="304" 
d="M222 0l-109 288l175 207h25l-174 -206l108 -289h-25zM26 0l76 546h23l-76 -546h-23z" />
    <glyph glyph-name="Lacute" unicode="&#x139;" horiz-adv-x="296" 
d="M43 0l84 591h24l-80 -572h187l-3 -19h-212zM123 633l91 75h34l-103 -75h-22z" />
    <glyph glyph-name="lacute" unicode="&#x13a;" horiz-adv-x="151" 
d="M29 0l90 636h23l-90 -636h-23zM85 672l91 75h34l-103 -75h-22z" />
    <glyph glyph-name="uni013B" unicode="&#x13b;" horiz-adv-x="296" 
d="M43 0l84 591h24l-80 -572h187l-3 -19h-212zM106 -133q16 22 24 37.5t8 22.5q0 5 -2.5 8t-5.5 7t-3 11q0 6 5.5 12t13.5 6t13 -5t5 -13q0 -10 -7 -25t-17 -31t-21 -30h-13z" />
    <glyph glyph-name="uni013C" unicode="&#x13c;" horiz-adv-x="151" 
d="M29 0l90 636h23l-90 -636h-23zM-7 -133q16 22 24 37.5t8 22.5q0 5 -2.5 8t-5.5 7t-3 11q0 6 5.5 12t13.5 6t13 -5t5 -13q0 -10 -7 -25t-17 -31t-21 -30h-13z" />
    <glyph glyph-name="Lcaron" unicode="&#x13d;" horiz-adv-x="296" 
d="M43 0l84 591h24l-80 -572h187l-3 -19h-212zM254 490l31 117h21l-38 -117h-14z" />
    <glyph glyph-name="lcaron" unicode="&#x13e;" horiz-adv-x="151" 
d="M29 0l90 636h23l-90 -636h-23zM166 525l31 117h21l-38 -117h-14z" />
    <glyph glyph-name="Ldot" unicode="&#x13f;" horiz-adv-x="296" 
d="M43 0l84 591h24l-80 -572h187l-3 -19h-212zM309 248q-10 0 -16.5 6.5t-6.5 15.5t6.5 15.5t16.5 6.5q9 0 16 -6.5t7 -15.5t-7 -15.5t-16 -6.5z" />
    <glyph glyph-name="ldot" unicode="&#x140;" horiz-adv-x="151" 
d="M29 0l90 636h23l-90 -636h-23zM159 248q-10 0 -16.5 6.5t-6.5 15.5t6.5 15.5t16.5 6.5q9 0 16 -6.5t7 -15.5t-7 -15.5t-16 -6.5z" />
    <glyph glyph-name="Lslash" unicode="&#x141;" horiz-adv-x="301" 
d="M48 0l26 178l-68 -29l3 23l68 29l55 390h24l-54 -380l117 51l-3 -22l-117 -51l-24 -170h188l-4 -19h-211z" />
    <glyph glyph-name="lslash" unicode="&#x142;" horiz-adv-x="271" 
d="M78 0l26 183l-78 -33l2 22l80 33l60 431h22l-59 -420l81 34l-3 -21l-81 -35l-28 -194h-22z" />
    <glyph glyph-name="Nacute" unicode="&#x143;" horiz-adv-x="433" 
d="M43 0l84 591h22l155 -537l76 537h23l-84 -591h-24l-153 526l-75 -526h-24zM221 633l91 75h34l-103 -75h-22z" />
    <glyph glyph-name="nacute" unicode="&#x144;" horiz-adv-x="362" 
d="M30 0l69 495h18l-2 -49q17 33 47.5 45t61.5 12q42 0 64.5 -11.5t31 -30.5t8 -42t-3.5 -47l-51 -372h-24l51 363q3 21 4.5 42.5t-4 38.5t-24 27.5t-56.5 10.5q-35 0 -57 -12.5t-34 -29.5t-18 -32l-57 -408h-24zM203 544l62 87h32l-79 -87h-15z" />
    <glyph glyph-name="uni0145" unicode="&#x145;" horiz-adv-x="433" 
d="M43 0l84 591h22l155 -537l76 537h23l-84 -591h-24l-153 526l-75 -526h-24zM135 -133q16 22 24 37.5t8 22.5q0 5 -2.5 8t-5.5 7t-3 11q0 6 5.5 12t13.5 6t13 -5t5 -13q0 -10 -7 -25t-17 -31t-21 -30h-13z" />
    <glyph glyph-name="uni0146" unicode="&#x146;" horiz-adv-x="362" 
d="M30 0l69 495h18l-2 -49q17 33 47.5 45t61.5 12q42 0 64.5 -11.5t31 -30.5t8 -42t-3.5 -47l-51 -372h-24l51 363q3 21 4.5 42.5t-4 38.5t-24 27.5t-56.5 10.5q-35 0 -57 -12.5t-34 -29.5t-18 -32l-57 -408h-24zM105 -133q16 22 24 37.5t8 22.5q0 5 -2.5 8t-5.5 7t-3 11
q0 6 5.5 12t13.5 6t13 -5t5 -13q0 -10 -7 -25t-17 -31t-21 -30h-13z" />
    <glyph glyph-name="Ncaron" unicode="&#x147;" horiz-adv-x="433" 
d="M43 0l84 591h22l155 -537l76 537h23l-84 -591h-24l-153 526l-75 -526h-24zM257 628l-73 82h22l66 -65l86 65h21l-97 -82h-25z" />
    <glyph glyph-name="ncaron" unicode="&#x148;" horiz-adv-x="362" 
d="M30 0l69 495h18l-2 -49q17 33 47.5 45t61.5 12q42 0 64.5 -11.5t31 -30.5t8 -42t-3.5 -47l-51 -372h-24l51 363q3 21 4.5 42.5t-4 38.5t-24 27.5t-56.5 10.5q-35 0 -57 -12.5t-34 -29.5t-18 -32l-57 -408h-24zM223 547l-73 82h22l66 -65l86 65h21l-97 -82h-25z" />
    <glyph glyph-name="Eng" unicode="&#x14a;" horiz-adv-x="433" 
d="M210 -164h-16.5t-17.5 1l3 20l34 -1q32 -1 48.5 12.5t21.5 50.5l12 82l-153 525l-75 -526h-24l84 591h22l155 -537l76 537h23l-90 -636q-5 -44 -14.5 -70t-29.5 -37.5t-59 -11.5z" />
    <glyph glyph-name="eng" unicode="&#x14b;" horiz-adv-x="362" 
d="M143 -110q-5 0 -11.5 0.5t-8.5 1.5l2 16q1 0 4.5 -0.5t8.5 -1t9 -0.5q41 0 66 13t32 59l54 385q3 22 5 43.5t-3.5 39t-24 28t-56.5 10.5q-36 0 -57.5 -13t-33.5 -30.5t-18 -32.5l-58 -408h-24l70 495h18l-2 -49q17 33 47.5 45t61.5 12q42 0 64.5 -11.5t31 -30.5
t8.5 -42.5t-3 -46.5l-56 -395q-5 -38 -22.5 -57t-44 -24.5t-59.5 -5.5z" />
    <glyph glyph-name="Omacron" unicode="&#x14c;" 
d="M167 -12q-39 0 -69 9t-43.5 37t-5.5 86l50 349q8 58 30 85.5t54.5 36t71.5 8.5q40 0 69.5 -9t43.5 -36.5t6 -84.5l-49 -349q-8 -59 -30 -87t-54.5 -36.5t-73.5 -8.5zM170 6q34 0 61 7.5t45 32t25 75.5l48 345q7 51 -4 75.5t-35.5 32t-57.5 7.5q-34 0 -61 -7.5t-45 -32
t-25 -75.5l-48 -345q-7 -51 4 -75.5t35.5 -32t57.5 -7.5zM177 655l2 17h171l-2 -17h-171z" />
    <glyph glyph-name="omacron" unicode="&#x14d;" horiz-adv-x="340" 
d="M135 -7q-43 0 -66 11.5t-32 30.5t-8.5 42.5t3.5 47.5l34 247q5 32 16 62t39.5 49.5t85.5 19.5q42 0 65 -11.5t31.5 -30.5t8 -42t-3.5 -47l-34 -247q-4 -32 -15.5 -62.5t-39.5 -50t-84 -19.5zM137 13q46 0 69 17.5t32 44.5t13 55l33 237q4 28 3 54.5t-19 44t-64 17.5
t-69 -17.5t-32 -44t-13 -54.5l-33 -237q-4 -28 -3 -55t19 -44.5t64 -17.5zM130 570l2 17h171l-2 -17h-171z" />
    <glyph glyph-name="Obreve" unicode="&#x14e;" 
d="M167 -12q-39 0 -69 9t-43.5 37t-5.5 86l50 349q8 58 30 85.5t54.5 36t71.5 8.5q40 0 69.5 -9t43.5 -36.5t6 -84.5l-49 -349q-8 -59 -30 -87t-54.5 -36.5t-73.5 -8.5zM170 6q34 0 61 7.5t45 32t25 75.5l48 345q7 51 -4 75.5t-35.5 32t-57.5 7.5q-34 0 -61 -7.5t-45 -32
t-25 -75.5l-48 -345q-7 -51 4 -75.5t35.5 -32t57.5 -7.5zM257 627q-24 0 -39.5 8t-23.5 20.5t-11 26.5t-2 26h19q1 -32 17 -48t43 -16q29 0 50 15.5t29 48.5h19q-4 -16 -16 -35t-32.5 -32.5t-52.5 -13.5z" />
    <glyph glyph-name="obreve" unicode="&#x14f;" horiz-adv-x="340" 
d="M135 -7q-43 0 -66 11.5t-32 30.5t-8.5 42.5t3.5 47.5l34 247q5 32 16 62t39.5 49.5t85.5 19.5q42 0 65 -11.5t31.5 -30.5t8 -42t-3.5 -47l-34 -247q-4 -32 -15.5 -62.5t-39.5 -50t-84 -19.5zM137 13q46 0 69 17.5t32 44.5t13 55l33 237q4 28 3 54.5t-19 44t-64 17.5
t-69 -17.5t-32 -44t-13 -54.5l-33 -237q-4 -28 -3 -55t19 -44.5t64 -17.5zM211 543q-24 0 -39.5 8t-23.5 20.5t-11 26.5t-2 26h19q1 -32 17 -48t43 -16q29 0 50 15.5t29 48.5h19q-4 -16 -16 -35t-32.5 -32.5t-52.5 -13.5z" />
    <glyph glyph-name="Ohungarumlaut" unicode="&#x150;" 
d="M167 -12q-39 0 -69 9t-43.5 37t-5.5 86l50 349q8 58 30 85.5t54.5 36t71.5 8.5q40 0 69.5 -9t43.5 -36.5t6 -84.5l-49 -349q-8 -59 -30 -87t-54.5 -36.5t-73.5 -8.5zM170 6q34 0 61 7.5t45 32t25 75.5l48 345q7 51 -4 75.5t-35.5 32t-57.5 7.5q-34 0 -61 -7.5t-45 -32
t-25 -75.5l-48 -345q-7 -51 4 -75.5t35.5 -32t57.5 -7.5zM226 628l46 87h30l-61 -87h-15zM280 628l46 87h30l-61 -87h-15z" />
    <glyph glyph-name="ohungarumlaut" unicode="&#x151;" horiz-adv-x="340" 
d="M135 -7q-43 0 -66 11.5t-32 30.5t-8.5 42.5t3.5 47.5l34 247q5 32 16 62t39.5 49.5t85.5 19.5q42 0 65 -11.5t31.5 -30.5t8 -42t-3.5 -47l-34 -247q-4 -32 -15.5 -62.5t-39.5 -50t-84 -19.5zM137 13q46 0 69 17.5t32 44.5t13 55l33 237q4 28 3 54.5t-19 44t-64 17.5
t-69 -17.5t-32 -44t-13 -54.5l-33 -237q-4 -28 -3 -55t19 -44.5t64 -17.5zM173 544l46 87h30l-61 -87h-15zM227 544l46 87h30l-61 -87h-15z" />
    <glyph glyph-name="OE" unicode="&#x152;" horiz-adv-x="589" 
d="M167 -12q-39 0 -68.5 9t-43.5 37t-6 86l49 349q8 58 30 85.5t55 36t72 8.5q40 0 69.5 -9t43.5 -36.5t6 -84.5l-50 -349q-8 -59 -29.5 -87t-54 -36.5t-73.5 -8.5zM170 6q34 0 61 7.5t45 32t25 75.5l48 345q8 51 -3.5 75.5t-36 32t-58.5 7.5q-33 0 -60 -7.5t-45 -32
t-25 -75.5l-48 -345q-7 -51 3.5 -75.5t35.5 -32t58 -7.5zM284 0l83 591h243l-3 -19h-218l-36 -251h169l-3 -19h-169l-40 -283h219l-2 -19h-243z" />
    <glyph glyph-name="oe" unicode="&#x153;" horiz-adv-x="566" 
d="M135 -7q-43 0 -66 11.5t-32 30.5t-8.5 42.5t3.5 47.5l34 247q5 32 16 62t39.5 49.5t85.5 19.5q42 0 65 -11.5t31.5 -30.5t8.5 -42t-4 -47l-33 -247q-5 -32 -16 -62.5t-39 -50t-85 -19.5zM137 11q46 0 69 17.5t32 45t13 56.5l34 238q4 28 2.5 55t-19 44.5t-63.5 17.5
t-69.5 -17.5t-32.5 -44.5t-13 -55l-33 -238q-4 -29 -3 -56.5t19 -45t64 -17.5zM361 -9q-34 0 -56 6t-34 20.5t-15 40t3 63.5l36 264q11 69 40.5 94.5t97.5 25.5t90.5 -25.5t12.5 -94.5l-17 -123h-217l-20 -143q-8 -60 7 -84t73 -24q59 0 81.5 24t31.5 84l7 53h24l-7 -51
q-7 -51 -22 -79t-42.5 -39.5t-73.5 -11.5zM305 281h192l15 103q8 54 -7 78.5t-74 24.5q-58 0 -81 -24.5t-30 -78.5z" />
    <glyph glyph-name="Racute" unicode="&#x154;" 
d="M43 0l84 591h164q44 0 72.5 -21.5t20.5 -75.5l-14 -98q-7 -55 -45.5 -80t-90.5 -25l1 2q32 1 45 -21.5t21 -68.5l35 -203h-24l-33 201q-3 21 -10 40.5t-21 32.5t-39 13h-101l-41 -287h-24zM110 304h118q52 0 82 22.5t37 77.5l12 86q6 43 -16.5 63t-55.5 20h-140zM209 633
l91 75h34l-103 -75h-22z" />
    <glyph glyph-name="racute" unicode="&#x155;" horiz-adv-x="232" 
d="M30 0l69 495h24l-29 -199q5 18 17.5 51.5t32.5 68.5t47 59.5t60 24.5h10t9 -1l-4 -19q-2 1 -6.5 1h-9.5q-26 0 -50 -23t-44.5 -60.5t-36.5 -81.5t-27 -87.5t-16 -77.5l-22 -151h-24zM162 544l62 87h32l-79 -87h-15z" />
    <glyph glyph-name="uni0156" unicode="&#x156;" 
d="M43 0l84 591h164q44 0 72.5 -21.5t20.5 -75.5l-14 -98q-7 -55 -45.5 -80t-90.5 -25l1 2q32 1 45 -21.5t21 -68.5l35 -203h-24l-33 201q-3 21 -10 40.5t-21 32.5t-39 13h-101l-41 -287h-24zM110 304h118q52 0 82 22.5t37 77.5l12 86q6 43 -16.5 63t-55.5 20h-140z
M146 -133q16 22 24 37.5t8 22.5q0 5 -2.5 8t-5.5 7t-3 11q0 6 5.5 12t13.5 6t13 -5t5 -13q0 -10 -7 -25t-17 -31t-21 -30h-13z" />
    <glyph glyph-name="uni0157" unicode="&#x157;" horiz-adv-x="232" 
d="M30 0l69 495h24l-29 -199q5 18 17.5 51.5t32.5 68.5t47 59.5t60 24.5h10t9 -1l-4 -19q-2 1 -6.5 1h-9.5q-26 0 -50 -23t-44.5 -60.5t-36.5 -81.5t-27 -87.5t-16 -77.5l-22 -151h-24zM-4 -133q16 22 24 37.5t8 22.5q0 5 -2.5 8t-5.5 7t-3 11q0 6 5.5 12t13.5 6t13 -5
t5 -13q0 -10 -7 -25t-17 -31t-21 -30h-13z" />
    <glyph glyph-name="Rcaron" unicode="&#x158;" 
d="M43 0l84 591h164q44 0 72.5 -21.5t20.5 -75.5l-14 -98q-7 -55 -45.5 -80t-90.5 -25l1 2q32 1 45 -21.5t21 -68.5l35 -203h-24l-33 201q-3 21 -10 40.5t-21 32.5t-39 13h-101l-41 -287h-24zM110 304h118q52 0 82 22.5t37 77.5l12 86q6 43 -16.5 63t-55.5 20h-140zM245 628
l-73 82h22l66 -65l86 65h21l-97 -82h-25z" />
    <glyph glyph-name="rcaron" unicode="&#x159;" horiz-adv-x="232" 
d="M30 0l69 495h24l-29 -199q5 18 17.5 51.5t32.5 68.5t47 59.5t60 24.5h10t9 -1l-4 -19q-2 1 -6.5 1h-9.5q-26 0 -50 -23t-44.5 -60.5t-36.5 -81.5t-27 -87.5t-16 -77.5l-22 -151h-24zM182 547l-73 82h22l66 -65l86 65h21l-97 -82h-25z" />
    <glyph glyph-name="Sacute" unicode="&#x15a;" horiz-adv-x="362" 
d="M152 -6q-45 0 -74.5 16t-40.5 53.5t-1 102.5l5 32h22l-5 -32q-9 -59 0.5 -92.5t33.5 -47t58 -13.5q44 0 80.5 30t47.5 106q7 49 -4.5 75t-37 41t-62.5 30q-28 12 -52.5 28t-37 44.5t-6.5 75.5q7 48 25 81t49 50t77 17q60 0 89 -33.5t21 -92.5l-8 -61h-11h-11l8 59
q7 51 -16.5 80t-74.5 29q-56 0 -86 -32t-40 -96q-6 -43 7 -68.5t37 -40t52 -25.5q43 -18 68.5 -36.5t34.5 -46.5t2 -77q-8 -58 -30.5 -92t-53.5 -49t-65 -15zM195 633l91 75h34l-103 -75h-22z" />
    <glyph glyph-name="sacute" unicode="&#x15b;" horiz-adv-x="333" 
d="M133 -6q-46 0 -69.5 12t-31.5 31.5t-6.5 43t4.5 46.5l5 39h24l-5 -38q-4 -30 -4.5 -56t17.5 -42t68 -16q45 0 67 16t30.5 39.5t11.5 43.5l3 21q4 25 -2 45t-23.5 36t-50.5 29q-34 15 -58 31t-34.5 39.5t-6.5 59.5l4 31q4 30 19 52.5t43 35t69 12.5q40 0 64 -11.5
t33 -38.5t2 -72l-7 -46h-23l6 43q8 61 -11.5 83t-65.5 22q-55 0 -78 -25t-28 -61l-3 -20q-4 -31 4.5 -51.5t30.5 -35.5t57 -31q29 -13 49.5 -27t29.5 -38t4 -67l-2 -17q-3 -27 -14.5 -54t-39.5 -45.5t-82 -18.5zM187 544l62 87h32l-79 -87h-15z" />
    <glyph glyph-name="Scircumflex" unicode="&#x15c;" horiz-adv-x="362" 
d="M152 -6q-45 0 -74.5 16t-40.5 53.5t-1 102.5l5 32h22l-5 -32q-9 -59 0.5 -92.5t33.5 -47t58 -13.5q44 0 80.5 30t47.5 106q7 49 -4.5 75t-37 41t-62.5 30q-28 12 -52.5 28t-37 44.5t-6.5 75.5q7 48 25 81t49 50t77 17q60 0 89 -33.5t21 -92.5l-8 -61h-11h-11l8 59
q7 51 -16.5 80t-74.5 29q-56 0 -86 -32t-40 -96q-6 -43 7 -68.5t37 -40t52 -25.5q43 -18 68.5 -36.5t34.5 -46.5t2 -77q-8 -58 -30.5 -92t-53.5 -49t-65 -15zM147 628l97 82h25l73 -82h-21l-68 65l-84 -65h-22z" />
    <glyph glyph-name="scircumflex" unicode="&#x15d;" horiz-adv-x="333" 
d="M133 -6q-46 0 -69.5 12t-31.5 31.5t-6.5 43t4.5 46.5l5 39h24l-5 -38q-4 -30 -4.5 -56t17.5 -42t68 -16q45 0 67 16t30.5 39.5t11.5 43.5l3 21q4 25 -2 45t-23.5 36t-50.5 29q-34 15 -58 31t-34.5 39.5t-6.5 59.5l4 31q4 30 19 52.5t43 35t69 12.5q40 0 64 -11.5
t33 -38.5t2 -72l-7 -46h-23l6 43q8 61 -11.5 83t-65.5 22q-55 0 -78 -25t-28 -61l-3 -20q-4 -31 4.5 -51.5t30.5 -35.5t57 -31q29 -13 49.5 -27t29.5 -38t4 -67l-2 -17q-3 -27 -14.5 -54t-39.5 -45.5t-82 -18.5zM117 547l97 82h25l73 -82h-21l-68 65l-84 -65h-22z" />
    <glyph glyph-name="Scedilla" unicode="&#x15e;" horiz-adv-x="362" 
d="M152 -6q-45 0 -74.5 16t-40.5 53.5t-1 102.5l5 32h22l-5 -32q-9 -59 0.5 -92.5t33.5 -47t58 -13.5q44 0 80.5 30t47.5 106q7 49 -4.5 75t-37 41t-62.5 30q-28 12 -52.5 28t-37 44.5t-6.5 75.5q7 48 25 81t49 50t77 17q60 0 89 -33.5t21 -92.5l-8 -61h-11h-11l8 59
q7 51 -16.5 80t-74.5 29q-56 0 -86 -32t-40 -96q-6 -43 7 -68.5t37 -40t52 -25.5q43 -18 68.5 -36.5t34.5 -46.5t2 -77q-8 -58 -30.5 -92t-53.5 -49t-65 -15zM128 -134q-13 0 -22.5 4t-17.5 8l8 14q5 -4 16 -7.5t17 -3.5q23 0 35 10t13 23q5 32 -31 32q-7 0 -15.5 -3
t-16.5 -8l-11 7l40 58h17l-35 -50l-5 1q8 5 17 6.5t16 1.5q23 0 34 -13.5t9 -28.5q-3 -23 -21 -37t-47 -14z" />
    <glyph glyph-name="scedilla" unicode="&#x15f;" horiz-adv-x="333" 
d="M133 -6q-46 0 -69.5 12t-31.5 31.5t-6.5 43t4.5 46.5l5 39h24l-5 -38q-4 -30 -4.5 -56t17.5 -42t68 -16q45 0 67 16t30.5 39.5t11.5 43.5l3 21q4 25 -2 45t-23.5 36t-50.5 29q-34 15 -58 31t-34.5 39.5t-6.5 59.5l4 31q4 30 19 52.5t43 35t69 12.5q40 0 64 -11.5
t33 -38.5t2 -72l-7 -46h-23l6 43q8 61 -11.5 83t-65.5 22q-55 0 -78 -25t-28 -61l-3 -20q-4 -31 4.5 -51.5t30.5 -35.5t57 -31q29 -13 49.5 -27t29.5 -38t4 -67l-2 -17q-3 -27 -14.5 -54t-39.5 -45.5t-82 -18.5zM112 -134q-13 0 -22.5 4t-17.5 8l8 14q5 -4 16 -7.5t17 -3.5
q23 0 35 10t13 23q5 32 -31 32q-7 0 -15.5 -3t-16.5 -8l-11 7l40 58h17l-35 -50l-5 1q8 5 17 6.5t16 1.5q23 0 34 -13.5t9 -28.5q-3 -23 -21 -37t-47 -14z" />
    <glyph glyph-name="Scaron" unicode="&#x160;" horiz-adv-x="362" 
d="M152 -6q-45 0 -74.5 16t-40.5 53.5t-1 102.5l5 32h22l-5 -32q-9 -59 0.5 -92.5t33.5 -47t58 -13.5q44 0 80.5 30t47.5 106q7 49 -4.5 75t-37 41t-62.5 30q-28 12 -52.5 28t-37 44.5t-6.5 75.5q7 48 25 81t49 50t77 17q60 0 89 -33.5t21 -92.5l-8 -61h-11h-11l8 59
q7 51 -16.5 80t-74.5 29q-56 0 -86 -32t-40 -96q-6 -43 7 -68.5t37 -40t52 -25.5q43 -18 68.5 -36.5t34.5 -46.5t2 -77q-8 -58 -30.5 -92t-53.5 -49t-65 -15zM231 628l-73 82h22l66 -65l86 65h21l-97 -82h-25z" />
    <glyph glyph-name="scaron" unicode="&#x161;" horiz-adv-x="333" 
d="M133 -6q-46 0 -69.5 12t-31.5 31.5t-6.5 43t4.5 46.5l5 39h24l-5 -38q-4 -30 -4.5 -56t17.5 -42t68 -16q45 0 67 16t30.5 39.5t11.5 43.5l3 21q4 25 -2 45t-23.5 36t-50.5 29q-34 15 -58 31t-34.5 39.5t-6.5 59.5l4 31q4 30 19 52.5t43 35t69 12.5q40 0 64 -11.5
t33 -38.5t2 -72l-7 -46h-23l6 43q8 61 -11.5 83t-65.5 22q-55 0 -78 -25t-28 -61l-3 -20q-4 -31 4.5 -51.5t30.5 -35.5t57 -31q29 -13 49.5 -27t29.5 -38t4 -67l-2 -17q-3 -27 -14.5 -54t-39.5 -45.5t-82 -18.5zM207 547l-73 82h22l66 -65l86 65h21l-97 -82h-25z" />
    <glyph glyph-name="uni0162" unicode="&#x162;" horiz-adv-x="262" 
d="M82 0l81 572h-105l3 19h237l-4 -19h-107l-81 -572h-24zM72 -134q-13 0 -22.5 4t-17.5 8l8 14q5 -4 16 -7.5t17 -3.5q23 0 35 10t13 23q5 32 -31 32q-7 0 -15.5 -3t-16.5 -8l-11 7l40 58h17l-35 -50l-5 1q8 5 17 6.5t16 1.5q23 0 34 -13.5t9 -28.5q-3 -23 -21 -37t-47 -14
z" />
    <glyph glyph-name="uni0163" unicode="&#x163;" horiz-adv-x="216" 
d="M107 0q-21 0 -34.5 6t-21 17.5t-9.5 28t1 38.5l55 386h-42l2 14l42 5l21 94h15l-13 -94h117l-2 -19h-117l-54 -382q-4 -33 5 -53.5t46 -20.5q14 0 30 1t26 2l-3 -19q-7 -1 -17 -2t-22 -1.5t-25 -0.5zM73 -134q-13 0 -22.5 4t-17.5 8l8 14q5 -4 16 -7.5t17 -3.5
q23 0 35 10t13 23q5 32 -31 32q-7 0 -15.5 -3t-16.5 -8l-11 7l40 58h17l-35 -50l-5 1q8 5 17 6.5t16 1.5q23 0 34 -13.5t9 -28.5q-3 -23 -21 -37t-47 -14z" />
    <glyph glyph-name="Tcaron" unicode="&#x164;" horiz-adv-x="262" 
d="M82 0l81 572h-105l3 19h237l-4 -19h-107l-81 -572h-24zM171 628l-73 82h22l66 -65l86 65h21l-97 -82h-25z" />
    <glyph glyph-name="tcaron" unicode="&#x165;" horiz-adv-x="216" 
d="M107 0q-21 0 -34.5 6t-21 17.5t-9.5 28t1 38.5l55 386h-42l2 14l42 5l21 94h15l-13 -94h117l-2 -19h-117l-54 -382q-4 -33 5 -53.5t46 -20.5q14 0 30 1t26 2l-3 -19q-7 -1 -17 -2t-22 -1.5t-25 -0.5zM197 545l31 117h21l-38 -117h-14z" />
    <glyph glyph-name="Tbar" unicode="&#x166;" horiz-adv-x="262" 
d="M82 0l81 572h-105l3 19h237l-4 -19h-107l-81 -572h-24zM75 465l2 17h171l-2 -17h-171z" />
    <glyph glyph-name="tbar" unicode="&#x167;" horiz-adv-x="216" 
d="M107 0q-21 0 -34.5 6t-21 17.5t-9.5 28t1 38.5l55 386h-42l2 14l42 5l21 94h15l-13 -94h117l-2 -19h-117l-54 -382q-4 -33 5 -53.5t46 -20.5q14 0 30 1t26 2l-3 -19q-7 -1 -17 -2t-22 -1.5t-25 -0.5zM51 369l2 17h171l-2 -17h-171z" />
    <glyph glyph-name="Utilde" unicode="&#x168;" horiz-adv-x="418" 
d="M173 -12q-27 0 -51 4.5t-41.5 17.5t-25.5 37.5t-2 64.5l67 479h24l-67 -478q-6 -45 6.5 -68t37.5 -31t54 -8q30 0 57 8t46.5 31t25.5 68l67 478h23l-67 -479q-6 -40 -20 -64.5t-35 -37.5t-46.5 -17.5t-52.5 -4.5zM303 641q-12 0 -19 3.5t-19 13.5q-7 5 -16 12t-21 7
t-21.5 -8t-15.5 -27h-18q6 23 21 38t37 15q12 0 22 -6t20 -14q9 -7 16 -11t17 -4q12 0 21.5 7t15.5 26h18q-6 -22 -21 -37t-37 -15z" />
    <glyph glyph-name="utilde" unicode="&#x169;" horiz-adv-x="362" 
d="M138 -8q-42 0 -64.5 11.5t-31.5 30.5t-8.5 42t3.5 47l52 372h24l-51 -363q-3 -22 -4.5 -43.5t4 -39t24.5 -28t56 -10.5q36 0 58 13t34 30.5t17 32.5l57 408h24l-69 -495h-21l5 49q-16 -33 -47 -45t-62 -12zM264 556q-12 0 -19 3.5t-19 13.5q-7 5 -16 12t-21 7t-21.5 -8
t-15.5 -27h-18q6 23 21 38t37 15q12 0 22 -6t20 -14q9 -7 16 -11t17 -4q12 0 21.5 7t15.5 26h18q-6 -22 -21 -37t-37 -15z" />
    <glyph glyph-name="Umacron" unicode="&#x16a;" horiz-adv-x="418" 
d="M173 -12q-27 0 -51 4.5t-41.5 17.5t-25.5 37.5t-2 64.5l67 479h24l-67 -478q-6 -45 6.5 -68t37.5 -31t54 -8q30 0 57 8t46.5 31t25.5 68l67 478h23l-67 -479q-6 -40 -20 -64.5t-35 -37.5t-46.5 -17.5t-52.5 -4.5zM181 655l2 17h171l-2 -17h-171z" />
    <glyph glyph-name="umacron" unicode="&#x16b;" horiz-adv-x="362" 
d="M138 -8q-42 0 -64.5 11.5t-31.5 30.5t-8.5 42t3.5 47l52 372h24l-51 -363q-3 -22 -4.5 -43.5t4 -39t24.5 -28t56 -10.5q36 0 58 13t34 30.5t17 32.5l57 408h24l-69 -495h-21l5 49q-16 -33 -47 -45t-62 -12zM141 570l2 17h171l-2 -17h-171z" />
    <glyph glyph-name="Ubreve" unicode="&#x16c;" horiz-adv-x="418" 
d="M173 -12q-27 0 -51 4.5t-41.5 17.5t-25.5 37.5t-2 64.5l67 479h24l-67 -478q-6 -45 6.5 -68t37.5 -31t54 -8q30 0 57 8t46.5 31t25.5 68l67 478h23l-67 -479q-6 -40 -20 -64.5t-35 -37.5t-46.5 -17.5t-52.5 -4.5zM261 627q-24 0 -39.5 8t-23.5 20.5t-11 26.5t-2 26h19
q1 -32 17 -48t43 -16q29 0 50 15.5t29 48.5h19q-4 -16 -16 -35t-32.5 -32.5t-52.5 -13.5z" />
    <glyph glyph-name="ubreve" unicode="&#x16d;" horiz-adv-x="362" 
d="M138 -8q-42 0 -64.5 11.5t-31.5 30.5t-8.5 42t3.5 47l52 372h24l-51 -363q-3 -22 -4.5 -43.5t4 -39t24.5 -28t56 -10.5q36 0 58 13t34 30.5t17 32.5l57 408h24l-69 -495h-21l5 49q-16 -33 -47 -45t-62 -12zM222 543q-24 0 -39.5 8t-23.5 20.5t-11 26.5t-2 26h19
q1 -32 17 -48t43 -16q29 0 50 15.5t29 48.5h19q-4 -16 -16 -35t-32.5 -32.5t-52.5 -13.5z" />
    <glyph glyph-name="Uring" unicode="&#x16e;" horiz-adv-x="418" 
d="M173 -12q-27 0 -51 4.5t-41.5 17.5t-25.5 37.5t-2 64.5l67 479h24l-67 -478q-6 -45 6.5 -68t37.5 -31t54 -8q30 0 57 8t46.5 31t25.5 68l67 478h23l-67 -479q-6 -40 -20 -64.5t-35 -37.5t-46.5 -17.5t-52.5 -4.5zM259 609q-32 0 -49.5 20.5t-13.5 48.5q4 29 27.5 49.5
t55.5 20.5q35 0 51.5 -20.5t12.5 -49.5q-4 -28 -29 -48.5t-55 -20.5zM262 627q25 0 41.5 14.5t19.5 36.5q3 24 -9.5 38t-37.5 14t-41 -14t-19 -38q-3 -22 9 -36.5t37 -14.5z" />
    <glyph glyph-name="uring" unicode="&#x16f;" horiz-adv-x="362" 
d="M138 -8q-42 0 -64.5 11.5t-31.5 30.5t-8.5 42t3.5 47l52 372h24l-51 -363q-3 -22 -4.5 -43.5t4 -39t24.5 -28t56 -10.5q36 0 58 13t34 30.5t17 32.5l57 408h24l-69 -495h-21l5 49q-16 -33 -47 -45t-62 -12zM222 545q-32 0 -49.5 20.5t-13.5 48.5q4 29 27.5 49.5
t55.5 20.5q35 0 51.5 -20.5t12.5 -49.5q-4 -28 -29 -48.5t-55 -20.5zM225 563q25 0 41.5 14.5t19.5 36.5q3 24 -9.5 38t-37.5 14t-41 -14t-19 -38q-3 -22 9 -36.5t37 -14.5z" />
    <glyph glyph-name="Uhungarumlaut" unicode="&#x170;" horiz-adv-x="418" 
d="M173 -12q-27 0 -51 4.5t-41.5 17.5t-25.5 37.5t-2 64.5l67 479h24l-67 -478q-6 -45 6.5 -68t37.5 -31t54 -8q30 0 57 8t46.5 31t25.5 68l67 478h23l-67 -479q-6 -40 -20 -64.5t-35 -37.5t-46.5 -17.5t-52.5 -4.5zM230 628l46 87h30l-61 -87h-15zM284 628l46 87h30
l-61 -87h-15z" />
    <glyph glyph-name="uhungarumlaut" unicode="&#x171;" horiz-adv-x="362" 
d="M138 -8q-42 0 -64.5 11.5t-31.5 30.5t-8.5 42t3.5 47l52 372h24l-51 -363q-3 -22 -4.5 -43.5t4 -39t24.5 -28t56 -10.5q36 0 58 13t34 30.5t17 32.5l57 408h24l-69 -495h-21l5 49q-16 -33 -47 -45t-62 -12zM184 544l46 87h30l-61 -87h-15zM238 544l46 87h30l-61 -87h-15z
" />
    <glyph glyph-name="Uogonek" unicode="&#x172;" horiz-adv-x="418" 
d="M173 -12q-27 0 -51 4.5t-41.5 17.5t-25.5 37.5t-2 64.5l67 479h24l-67 -478q-6 -45 6.5 -68t37.5 -31t54 -8q30 0 57 8t46.5 31t25.5 68l67 478h23l-67 -479q-6 -40 -20 -64.5t-35 -37.5t-46.5 -17.5t-52.5 -4.5zM179 -129q-23 0 -39 14.5t-13 39.5q5 29 26 47.5t40 27.5
h21q-28 -14 -45 -33t-20 -39t8.5 -30t24.5 -10q10 0 18 2.5t12 4.5l4 -14q-7 -4 -16.5 -7t-20.5 -3z" />
    <glyph glyph-name="uogonek" unicode="&#x173;" horiz-adv-x="362" 
d="M138 -8q-42 0 -64.5 11.5t-31.5 30.5t-8.5 42t3.5 47l52 372h24l-51 -363q-3 -22 -4.5 -43.5t4 -39t24.5 -28t56 -10.5q36 0 58 13t34 30.5t17 32.5l57 408h24l-69 -495h-21l5 49q-16 -33 -47 -45t-62 -12zM230 -129q-23 0 -39 14.5t-13 39.5q5 29 26 47.5t40 27.5h21
q-28 -14 -45 -33t-20 -39t8.5 -30t24.5 -10q10 0 18 2.5t12 4.5l4 -14q-7 -4 -16.5 -7t-20.5 -3z" />
    <glyph glyph-name="Wcircumflex" unicode="&#x174;" horiz-adv-x="513" 
d="M85 0l-12 591h22l12 -549l189 549h17l33 -548l168 548h22l-180 -591h-27l-33 526l-182 -526h-29zM213 628l97 82h25l73 -82h-21l-68 65l-84 -65h-22z" />
    <glyph glyph-name="wcircumflex" unicode="&#x175;" horiz-adv-x="544" 
d="M314 0l-23 471h24l22 -439q5 3 22.5 25t41.5 56t47 74t39 79q20 49 28 89.5t5.5 75.5t-16.5 64h26q15 -26 15.5 -67t-10 -86.5t-28.5 -86.5q-19 -43 -44.5 -86.5t-51.5 -79.5t-45.5 -60t-26.5 -29h-25zM69 0l-20 495h24l21 -495h-25zM70 0l220 471l22 -7l-217 -464h-25z
M217 547l97 82h25l73 -82h-21l-68 65l-84 -65h-22z" />
    <glyph glyph-name="Ycircumflex" unicode="&#x176;" horiz-adv-x="296" 
d="M95 0l37 265l-63 326h27l52 -291l1 -7l4 7l143 291h26l-165 -327l-38 -264h-24zM104 628l97 82h25l73 -82h-21l-68 65l-84 -65h-22z" />
    <glyph glyph-name="ycircumflex" unicode="&#x177;" horiz-adv-x="321" 
d="M-42 -116q-10 0 -20.5 1t-17.5 3l4 22q7 -2 14.5 -3t17.5 -1q55 0 103.5 29.5t89.5 80t70 113.5q22 47 39 102.5t26.5 112t9.5 106.5q0 16 -1 27.5t-3 17.5h26q3 -18 3 -41q0 -50 -11 -112t-30 -124t-43 -112q-29 -60 -72 -110.5t-95 -81t-110 -30.5zM76 -57l-22 552h25
l21 -549zM89 547l97 82h25l73 -82h-21l-68 65l-84 -65h-22z" />
    <glyph glyph-name="Ydieresis" unicode="&#x178;" horiz-adv-x="296" 
d="M95 0l37 265l-63 326h27l52 -291l1 -7l4 7l143 291h26l-165 -327l-38 -264h-24zM166 626q-9 0 -15.5 6.5t-6.5 15.5t6.5 15t15.5 6t15.5 -6t6.5 -15t-6.5 -15.5t-15.5 -6.5zM246 626q-9 0 -15.5 6.5t-6.5 15.5t6.5 15t15.5 6t15.5 -6t6.5 -15t-6.5 -15.5t-15.5 -6.5z" />
    <glyph glyph-name="Zacute" unicode="&#x179;" horiz-adv-x="266" 
d="M-14 0l4 22l271 550h-182l3 19h210l-3 -22l-275 -550h198l-4 -19h-222zM137 633l91 75h34l-103 -75h-22z" />
    <glyph glyph-name="zacute" unicode="&#x17a;" horiz-adv-x="241" 
d="M-19 0l2 11l245 464h-172l3 20h201l-2 -12l-246 -462h182l-4 -21h-209zM138 544l62 87h32l-79 -87h-15z" />
    <glyph glyph-name="Zdotaccent" unicode="&#x17b;" horiz-adv-x="266" 
d="M-14 0l4 22l271 550h-182l3 19h210l-3 -22l-275 -550h198l-4 -19h-222zM189 627q-9 0 -15.5 6.5t-6.5 15.5t6.5 15t15.5 6t15.5 -6t6.5 -15t-6.5 -15.5t-15.5 -6.5z" />
    <glyph glyph-name="zdotaccent" unicode="&#x17c;" horiz-adv-x="241" 
d="M-19 0l2 11l245 464h-172l3 20h201l-2 -12l-246 -462h182l-4 -21h-209zM170 561q-9 0 -15.5 6.5t-6.5 15.5t6.5 15t15.5 6t15.5 -6t6.5 -15t-6.5 -15.5t-15.5 -6.5z" />
    <glyph glyph-name="Zcaron" unicode="&#x17d;" horiz-adv-x="266" 
d="M-14 0l4 22l271 550h-182l3 19h210l-3 -22l-275 -550h198l-4 -19h-222zM173 628l-73 82h22l66 -65l86 65h21l-97 -82h-25z" />
    <glyph glyph-name="zcaron" unicode="&#x17e;" horiz-adv-x="241" 
d="M-19 0l2 11l245 464h-172l3 20h201l-2 -12l-246 -462h182l-4 -21h-209zM158 547l-73 82h22l66 -65l86 65h21l-97 -82h-25z" />
    <glyph glyph-name="longs" unicode="&#x17f;" horiz-adv-x="213" 
d="M-27 -147q-19 0 -39 1t-31 3l2 20l23 -3q11 -1 23 -1.5t25 -0.5q30 1 44.5 25t18.5 49l67 474h-31l2 20h31l16 106q4 29 14.5 49t29.5 30.5t45 10.5q27 0 48.5 -3t43.5 -8l-6 -18q-20 4 -40.5 7t-48.5 3q-30 0 -45 -24.5t-19 -50.5l-84 -597q-4 -29 -15 -49.5
t-29.5 -31.5t-44.5 -11z" />
    <glyph glyph-name="uni018F" unicode="&#x18f;" horiz-adv-x="399" 
d="M145 -12q-40 0 -70 8.5t-43 36.5t-3 87l22 127h24l-22 -126q-9 -51 1 -75.5t34.5 -32t58.5 -7.5t60.5 7.5t45.5 32t28 75.5l60 346q9 51 -1.5 75.5t-34.5 32t-58 7.5q-33 0 -60 -7.5t-46 -32t-28 -75.5l-15 -88h-24l16 90q10 57 32.5 84.5t55 36.5t71.5 9q40 0 69.5 -8.5
t43 -36t3.5 -85.5l-61 -349q-10 -58 -33 -86t-55 -37t-71 -9zM51 226l4 21h258l-4 -21h-258z" />
    <glyph glyph-name="florin" unicode="&#x192;" horiz-adv-x="282" 
d="M-88 -148q-13 0 -27 1t-25 2t-15 1l4 19l65 -4q24 0 40 11.5t25.5 29t14.5 34.5l123 465h-46l4 17h46l30 110q12 43 35 67t65 24h20t19.5 -0.5t17.5 -1.5t14 -2l-5 -17q-7 2 -25.5 2.5t-40.5 0.5q-35 0 -52 -24t-25 -50l-31 -109h112l-3 -17h-112l-123 -467
q-11 -43 -36 -67.5t-69 -24.5z" />
    <glyph glyph-name="Ohorn" unicode="&#x1a0;" 
d="M167 -12q-39 0 -69 9t-43.5 37t-5.5 86l50 349q8 58 30 85.5t54.5 36t71.5 8.5q40 0 69.5 -9t43.5 -36.5t6 -84.5l-49 -349q-8 -59 -30 -87t-54.5 -36.5t-73.5 -8.5zM170 6q34 0 61 7.5t45 32t25 75.5l48 345q7 51 -4 75.5t-35.5 32t-57.5 7.5q-34 0 -61 -7.5t-45 -32
t-25 -75.5l-48 -345q-7 -51 4 -75.5t35.5 -32t57.5 -7.5zM320 574l-2 17h9q51 0 57 44l2 15h21l-1 -10q-4 -31 -27.5 -49t-58.5 -17z" />
    <glyph glyph-name="ohorn" unicode="&#x1a1;" horiz-adv-x="340" 
d="M135 -7q-43 0 -66 11.5t-32 30.5t-8.5 42.5t3.5 47.5l34 247q5 32 16 62t39.5 49.5t85.5 19.5q42 0 65 -11.5t31.5 -30.5t8 -42t-3.5 -47l-34 -247q-4 -32 -15.5 -62.5t-39.5 -50t-84 -19.5zM137 13q46 0 69 17.5t32 44.5t13 55l33 237q4 28 3 54.5t-19 44t-64 17.5
t-69 -17.5t-32 -44t-13 -54.5l-33 -237q-4 -28 -3 -55t19 -44.5t64 -17.5zM253 478l-2 17h9q51 0 57 44l2 15h21l-1 -10q-4 -31 -27.5 -49t-58.5 -17z" />
    <glyph glyph-name="Uhorn" unicode="&#x1af;" horiz-adv-x="418" 
d="M173 -12q-27 0 -51 4.5t-41.5 17.5t-25.5 37.5t-2 64.5l67 479h24l-67 -478q-6 -45 6.5 -68t37.5 -31t54 -8q30 0 57 8t46.5 31t25.5 68l67 478h23l-67 -479q-6 -40 -20 -64.5t-35 -37.5t-46.5 -17.5t-52.5 -4.5zM373 574l-2 17h9q51 0 57 44l2 15h21l-1 -10
q-4 -31 -27.5 -49t-58.5 -17z" />
    <glyph glyph-name="uhorn" unicode="&#x1b0;" horiz-adv-x="362" 
d="M138 -8q-42 0 -64.5 11.5t-31.5 30.5t-8.5 42t3.5 47l52 372h24l-51 -363q-3 -22 -4.5 -43.5t4 -39t24.5 -28t56 -10.5q36 0 58 13t34 30.5t17 32.5l57 408h24l-69 -495h-21l5 49q-16 -33 -47 -45t-62 -12zM310 478l-2 17h9q51 0 57 44l2 15h21l-1 -10q-4 -31 -27.5 -49
t-58.5 -17z" />
    <glyph glyph-name="uni01C4" unicode="&#x1c4;" horiz-adv-x="688" 
d="M43 0l84 591h155q36 0 61.5 -10.5t37 -38.5t3.5 -80l-46 -332q-7 -52 -27 -80.5t-49 -39t-65 -10.5h-154zM70 18h130q44 0 74 23.5t40 90.5l46 326q10 67 -14.5 91t-68.5 24h-130zM408 0l4 22l271 550h-182l3 19h210l-3 -22l-275 -550h198l-4 -19h-222zM595 628l-73 82
h22l66 -65l86 65h21l-97 -82h-25z" />
    <glyph glyph-name="uni01C5" unicode="&#x1c5;" horiz-adv-x="663" 
d="M43 0l84 591h155q36 0 61.5 -10.5t37 -38.5t3.5 -80l-46 -332q-7 -52 -27 -80.5t-49 -39t-65 -10.5h-154zM70 18h130q44 0 74 23.5t40 90.5l46 326q10 67 -14.5 91t-68.5 24h-130zM403 0l2 11l245 464h-172l3 20h201l-2 -12l-246 -462h182l-4 -21h-209zM580 547l-73 82
h22l66 -65l86 65h21l-97 -82h-25z" />
    <glyph glyph-name="uni01C6" unicode="&#x1c6;" horiz-adv-x="596" 
d="M130 -8q-41 0 -63 11t-30.5 30t-8.5 43t4 49l35 250q5 32 15.5 61.5t38.5 49t83 19.5q41 0 63.5 -11.5t31.5 -29.5l23 166h23l-89 -630h-17l4 47q-8 -15 -21.5 -27.5t-35.5 -20t-56 -7.5zM133 10q39 0 62 14t34.5 36.5t17 49t8.5 50.5q9 66 18 131t19 131q-1 13 -9 28
t-26.5 26t-53.5 11q-50 0 -72.5 -18.5t-29.5 -46.5t-11 -57l-33 -234q-3 -22 -4.5 -43.5t4 -39t23 -28t53.5 -10.5zM336 0l2 11l245 464h-172l3 20h201l-2 -12l-246 -462h182l-4 -21h-209zM513 547l-73 82h22l66 -65l86 65h21l-97 -82h-25z" />
    <glyph glyph-name="uni01C7" unicode="&#x1c7;" horiz-adv-x="497" 
d="M43 0l84 591h24l-80 -572h187l-3 -19h-212zM304 -1h-16.5t-17.5 1l3 20l34 -1q32 -1 48.5 12.5t21.5 50.5l72 509h24l-66 -473q-6 -44 -15 -70.5t-29 -37.5t-59 -11z" />
    <glyph glyph-name="uni01C8" unicode="&#x1c8;" horiz-adv-x="423" 
d="M43 0l84 591h24l-80 -572h187l-3 -19h-212zM205 -110q-4 0 -10.5 0.5t-8.5 1.5l3 16q0 -1 6.5 -1.5t13.5 -0.5q42 0 68 13t33 59l72 517h23l-73 -518q-5 -39 -23 -57.5t-45 -24t-59 -5.5zM407 561q-9 0 -15.5 6.5t-6.5 15.5t6.5 15t15.5 6t15.5 -6t6.5 -15t-6.5 -15.5
t-15.5 -6.5z" />
    <glyph glyph-name="uni01C9" unicode="&#x1c9;" horiz-adv-x="278" 
d="M29 0l90 636h23l-90 -636h-23zM60 -110q-4 0 -10.5 0.5t-8.5 1.5l3 16q0 -1 6.5 -1.5t13.5 -0.5q42 0 68 13t33 59l72 517h23l-73 -518q-5 -39 -23 -57.5t-45 -24t-59 -5.5zM262 561q-9 0 -15.5 6.5t-6.5 15.5t6.5 15t15.5 6t15.5 -6t6.5 -15t-6.5 -15.5t-15.5 -6.5z" />
    <glyph glyph-name="uni01CA" unicode="&#x1ca;" horiz-adv-x="634" 
d="M43 0l84 591h22l155 -537l76 537h23l-84 -591h-24l-153 526l-75 -526h-24zM441 -1h-16.5t-17.5 1l3 20l34 -1q32 -1 48.5 12.5t21.5 50.5l72 509h24l-66 -473q-6 -44 -15 -70.5t-29 -37.5t-59 -11z" />
    <glyph glyph-name="uni01CB" unicode="&#x1cb;" horiz-adv-x="560" 
d="M43 0l84 591h22l155 -537l76 537h23l-84 -591h-24l-153 526l-75 -526h-24zM342 -110q-4 0 -10.5 0.5t-8.5 1.5l3 16q0 -1 6.5 -1.5t13.5 -0.5q42 0 68 13t33 59l72 517h23l-73 -518q-5 -39 -23 -57.5t-45 -24t-59 -5.5zM544 561q-9 0 -15.5 6.5t-6.5 15.5t6.5 15t15.5 6
t15.5 -6t6.5 -15t-6.5 -15.5t-15.5 -6.5z" />
    <glyph glyph-name="uni01CC" unicode="&#x1cc;" horiz-adv-x="489" 
d="M30 0l69 495h18l-2 -49q17 33 47.5 45t61.5 12q42 0 64.5 -11.5t31 -30.5t8 -42t-3.5 -47l-51 -372h-24l51 363q3 21 4.5 42.5t-4 38.5t-24 27.5t-56.5 10.5q-35 0 -57 -12.5t-34 -29.5t-18 -32l-57 -408h-24zM271 -110q-4 0 -10.5 0.5t-8.5 1.5l3 16q0 -1 6.5 -1.5
t13.5 -0.5q42 0 68 13t33 59l72 517h23l-73 -518q-5 -39 -23 -57.5t-45 -24t-59 -5.5zM473 561q-9 0 -15.5 6.5t-6.5 15.5t6.5 15t15.5 6t15.5 -6t6.5 -15t-6.5 -15.5t-15.5 -6.5z" />
    <glyph glyph-name="uni01CD" unicode="&#x1cd;" horiz-adv-x="352" 
d="M-18 0l233 591h20l64 -591h-24l-18 158h-189l-63 -158h-23zM73 175h183l-40 359zM216 628l-73 82h22l66 -65l86 65h21l-97 -82h-25z" />
    <glyph glyph-name="uni01CE" unicode="&#x1ce;" horiz-adv-x="350" 
d="M113 -8q-9 0 -26 2.5t-32.5 13t-24 34t-1.5 66.5l45 276q9 57 27.5 82.5t43.5 32t53 6.5q30 0 60.5 -10.5t37.5 -39.5l5 40h25l-70 -495h-25l13 93q-8 -21 -24 -44.5t-42 -40t-65 -16.5zM122 10q29 0 51 16t37.5 40t25.5 50.5t15.5 48t6.5 31.5l32 226q-2 7 -9 22.5
t-25.5 29.5t-58.5 14t-60.5 -15t-28.5 -40t-13 -56l-42 -271q-5 -34 1.5 -54t19.5 -28.5t26.5 -11t21.5 -2.5zM217 547l-73 82h22l66 -65l86 65h21l-97 -82h-25z" />
    <glyph glyph-name="uni01CF" unicode="&#x1cf;" horiz-adv-x="181" 
d="M43 0l84 591h24l-84 -591h-24zM131 628l-73 82h22l66 -65l86 65h21l-97 -82h-25z" />
    <glyph glyph-name="uni01D0" unicode="&#x1d0;" horiz-adv-x="151" 
d="M29 0l70 495h23l-70 -495h-23zM114 547l-73 82h22l66 -65l86 65h21l-97 -82h-25z" />
    <glyph glyph-name="uni01D1" unicode="&#x1d1;" 
d="M167 -12q-39 0 -69 9t-43.5 37t-5.5 86l50 349q8 58 30 85.5t54.5 36t71.5 8.5q40 0 69.5 -9t43.5 -36.5t6 -84.5l-49 -349q-8 -59 -30 -87t-54.5 -36.5t-73.5 -8.5zM170 6q34 0 61 7.5t45 32t25 75.5l48 345q7 51 -4 75.5t-35.5 32t-57.5 7.5q-34 0 -61 -7.5t-45 -32
t-25 -75.5l-48 -345q-7 -51 4 -75.5t35.5 -32t57.5 -7.5zM245 628l-73 82h22l66 -65l86 65h21l-97 -82h-25z" />
    <glyph glyph-name="uni01D2" unicode="&#x1d2;" horiz-adv-x="340" 
d="M135 -7q-43 0 -66 11.5t-32 30.5t-8.5 42.5t3.5 47.5l34 247q5 32 16 62t39.5 49.5t85.5 19.5q42 0 65 -11.5t31.5 -30.5t8 -42t-3.5 -47l-34 -247q-4 -32 -15.5 -62.5t-39.5 -50t-84 -19.5zM137 13q46 0 69 17.5t32 44.5t13 55l33 237q4 28 3 54.5t-19 44t-64 17.5
t-69 -17.5t-32 -44t-13 -54.5l-33 -237q-4 -28 -3 -55t19 -44.5t64 -17.5zM205 547l-73 82h22l66 -65l86 65h21l-97 -82h-25z" />
    <glyph glyph-name="uni01D3" unicode="&#x1d3;" horiz-adv-x="418" 
d="M173 -12q-27 0 -51 4.5t-41.5 17.5t-25.5 37.5t-2 64.5l67 479h24l-67 -478q-6 -45 6.5 -68t37.5 -31t54 -8q30 0 57 8t46.5 31t25.5 68l67 478h23l-67 -479q-6 -40 -20 -64.5t-35 -37.5t-46.5 -17.5t-52.5 -4.5zM249 628l-73 82h22l66 -65l86 65h21l-97 -82h-25z" />
    <glyph glyph-name="uni01D4" unicode="&#x1d4;" horiz-adv-x="362" 
d="M138 -8q-42 0 -64.5 11.5t-31.5 30.5t-8.5 42t3.5 47l52 372h24l-51 -363q-3 -22 -4.5 -43.5t4 -39t24.5 -28t56 -10.5q36 0 58 13t34 30.5t17 32.5l57 408h24l-69 -495h-21l5 49q-16 -33 -47 -45t-62 -12zM216 547l-73 82h22l66 -65l86 65h21l-97 -82h-25z" />
    <glyph glyph-name="uni01D5" unicode="&#x1d5;" horiz-adv-x="418" 
d="M173 -12q-27 0 -51 4.5t-41.5 17.5t-25.5 37.5t-2 64.5l67 479h24l-67 -478q-6 -45 6.5 -68t37.5 -31t54 -8q30 0 57 8t46.5 31t25.5 68l67 478h23l-67 -479q-6 -40 -20 -64.5t-35 -37.5t-46.5 -17.5t-52.5 -4.5zM227 626q-9 0 -15.5 6.5t-6.5 15.5t6.5 15t15.5 6
t15.5 -6t6.5 -15t-6.5 -15.5t-15.5 -6.5zM307 626q-9 0 -15.5 6.5t-6.5 15.5t6.5 15t15.5 6t15.5 -6t6.5 -15t-6.5 -15.5t-15.5 -6.5zM186 702l2 17h171l-2 -17h-171z" />
    <glyph glyph-name="uni01D6" unicode="&#x1d6;" horiz-adv-x="362" 
d="M138 -8q-42 0 -64.5 11.5t-31.5 30.5t-8.5 42t3.5 47l52 372h24l-51 -363q-3 -22 -4.5 -43.5t4 -39t24.5 -28t56 -10.5q36 0 58 13t34 30.5t17 32.5l57 408h24l-69 -495h-21l5 49q-16 -33 -47 -45t-62 -12zM187 561q-9 0 -15.5 6.5t-6.5 15.5t6.5 15t15.5 6t15.5 -6
t6.5 -15t-6.5 -15.5t-15.5 -6.5zM267 561q-9 0 -15.5 6.5t-6.5 15.5t6.5 15t15.5 6t15.5 -6t6.5 -15t-6.5 -15.5t-15.5 -6.5zM146 639l2 17h171l-2 -17h-171z" />
    <glyph glyph-name="uni01D7" unicode="&#x1d7;" horiz-adv-x="418" 
d="M173 -12q-27 0 -51 4.5t-41.5 17.5t-25.5 37.5t-2 64.5l67 479h24l-67 -478q-6 -45 6.5 -68t37.5 -31t54 -8q30 0 57 8t46.5 31t25.5 68l67 478h23l-67 -479q-6 -40 -20 -64.5t-35 -37.5t-46.5 -17.5t-52.5 -4.5zM227 626q-9 0 -15.5 6.5t-6.5 15.5t6.5 15t15.5 6
t15.5 -6t6.5 -15t-6.5 -15.5t-15.5 -6.5zM307 626q-9 0 -15.5 6.5t-6.5 15.5t6.5 15t15.5 6t15.5 -6t6.5 -15t-6.5 -15.5t-15.5 -6.5zM218 680l91 75h34l-103 -75h-22z" />
    <glyph glyph-name="uni01D8" unicode="&#x1d8;" horiz-adv-x="362" 
d="M138 -8q-42 0 -64.5 11.5t-31.5 30.5t-8.5 42t3.5 47l52 372h24l-51 -363q-3 -22 -4.5 -43.5t4 -39t24.5 -28t56 -10.5q36 0 58 13t34 30.5t17 32.5l57 408h24l-69 -495h-21l5 49q-16 -33 -47 -45t-62 -12zM187 561q-9 0 -15.5 6.5t-6.5 15.5t6.5 15t15.5 6t15.5 -6
t6.5 -15t-6.5 -15.5t-15.5 -6.5zM267 561q-9 0 -15.5 6.5t-6.5 15.5t6.5 15t15.5 6t15.5 -6t6.5 -15t-6.5 -15.5t-15.5 -6.5zM201 613l62 87h32l-79 -87h-15z" />
    <glyph glyph-name="uni01D9" unicode="&#x1d9;" horiz-adv-x="418" 
d="M173 -12q-27 0 -51 4.5t-41.5 17.5t-25.5 37.5t-2 64.5l67 479h24l-67 -478q-6 -45 6.5 -68t37.5 -31t54 -8q30 0 57 8t46.5 31t25.5 68l67 478h23l-67 -479q-6 -40 -20 -64.5t-35 -37.5t-46.5 -17.5t-52.5 -4.5zM227 626q-9 0 -15.5 6.5t-6.5 15.5t6.5 15t15.5 6
t15.5 -6t6.5 -15t-6.5 -15.5t-15.5 -6.5zM307 626q-9 0 -15.5 6.5t-6.5 15.5t6.5 15t15.5 6t15.5 -6t6.5 -15t-6.5 -15.5t-15.5 -6.5zM254 675l-73 82h22l66 -65l86 65h21l-97 -82h-25z" />
    <glyph glyph-name="uni01DA" unicode="&#x1da;" horiz-adv-x="362" 
d="M138 -8q-42 0 -64.5 11.5t-31.5 30.5t-8.5 42t3.5 47l52 372h24l-51 -363q-3 -22 -4.5 -43.5t4 -39t24.5 -28t56 -10.5q36 0 58 13t34 30.5t17 32.5l57 408h24l-69 -495h-21l5 49q-16 -33 -47 -45t-62 -12zM187 561q-9 0 -15.5 6.5t-6.5 15.5t6.5 15t15.5 6t15.5 -6
t6.5 -15t-6.5 -15.5t-15.5 -6.5zM267 561q-9 0 -15.5 6.5t-6.5 15.5t6.5 15t15.5 6t15.5 -6t6.5 -15t-6.5 -15.5t-15.5 -6.5zM221 616l-73 82h22l66 -65l86 65h21l-97 -82h-25z" />
    <glyph glyph-name="uni01DB" unicode="&#x1db;" horiz-adv-x="418" 
d="M173 -12q-27 0 -51 4.5t-41.5 17.5t-25.5 37.5t-2 64.5l67 479h24l-67 -478q-6 -45 6.5 -68t37.5 -31t54 -8q30 0 57 8t46.5 31t25.5 68l67 478h23l-67 -479q-6 -40 -20 -64.5t-35 -37.5t-46.5 -17.5t-52.5 -4.5zM227 626q-9 0 -15.5 6.5t-6.5 15.5t6.5 15t15.5 6
t15.5 -6t6.5 -15t-6.5 -15.5t-15.5 -6.5zM307 626q-9 0 -15.5 6.5t-6.5 15.5t6.5 15t15.5 6t15.5 -6t6.5 -15t-6.5 -15.5t-15.5 -6.5zM278 680l-93 75h34l81 -75h-22z" />
    <glyph glyph-name="uni01DC" unicode="&#x1dc;" horiz-adv-x="362" 
d="M138 -8q-42 0 -64.5 11.5t-31.5 30.5t-8.5 42t3.5 47l52 372h24l-51 -363q-3 -22 -4.5 -43.5t4 -39t24.5 -28t56 -10.5q36 0 58 13t34 30.5t17 32.5l57 408h24l-69 -495h-21l5 49q-16 -33 -47 -45t-62 -12zM187 561q-9 0 -15.5 6.5t-6.5 15.5t6.5 15t15.5 6t15.5 -6
t6.5 -15t-6.5 -15.5t-15.5 -6.5zM267 561q-9 0 -15.5 6.5t-6.5 15.5t6.5 15t15.5 6t15.5 -6t6.5 -15t-6.5 -15.5t-15.5 -6.5zM236 613l-61 87h32l44 -87h-15z" />
    <glyph glyph-name="Gcaron" unicode="&#x1e6;" horiz-adv-x="406" 
d="M165 -12q-38 0 -67 9t-43 37t-6 85l50 350q8 58 29.5 85.5t54.5 36t73 8.5t69.5 -9t43 -36.5t5.5 -84.5l-10 -69h-24l9 66q8 51 -3 75.5t-35.5 32t-58.5 7.5t-61 -7.5t-45 -32t-25 -75.5l-48 -345q-7 -51 3.5 -75.5t35.5 -32t58 -7.5q50 0 86.5 30t44.5 85l18 128h-97
l2 18h121l-37 -267h-17l8 64q-7 -9 -14 -18.5t-13 -16.5q-20 -21 -46 -31t-61 -10zM243 628l-73 82h22l66 -65l86 65h21l-97 -82h-25z" />
    <glyph glyph-name="gcaron" unicode="&#x1e7;" horiz-adv-x="344" 
d="M103 -116q-9 0 -20.5 1t-22 2t-18 2t-10.5 2l2 18q11 -1 30.5 -4t37.5 -3q12 0 31.5 1.5t40.5 12t38 35.5t23 72l9 66q-10 -24 -27 -39.5t-38.5 -22.5t-47.5 -7q-16 0 -35 2.5t-35.5 13t-24.5 34.5t-2 67l34 244q8 53 25 78.5t43.5 34t60.5 8.5q21 0 42 -4.5t37 -15
t19 -30.5l10 40h19l-66 -473q-6 -41 -21.5 -67.5t-37.5 -41t-47 -20.5t-49 -6zM135 39q44 0 68.5 22t36.5 55t16 65l34 239q-3 13 -11.5 28t-27.5 26t-54 11q-49 0 -73 -22.5t-32 -82.5l-34 -246q-5 -34 2.5 -53.5t21.5 -28t28.5 -11t24.5 -2.5zM206 547l-73 82h22l66 -65
l86 65h21l-97 -82h-25z" />
    <glyph glyph-name="uni01EA" unicode="&#x1ea;" 
d="M167 -12q-39 0 -69 9t-43.5 37t-5.5 86l50 349q8 58 30 85.5t54.5 36t71.5 8.5q40 0 69.5 -9t43.5 -36.5t6 -84.5l-49 -349q-8 -59 -30 -87t-54.5 -36.5t-73.5 -8.5zM170 6q34 0 61 7.5t45 32t25 75.5l48 345q7 51 -4 75.5t-35.5 32t-57.5 7.5q-34 0 -61 -7.5t-45 -32
t-25 -75.5l-48 -345q-7 -51 4 -75.5t35.5 -32t57.5 -7.5zM169 -129q-23 0 -39 14.5t-13 39.5q5 29 26 47.5t40 27.5h21q-28 -14 -45 -33t-20 -39t8.5 -30t24.5 -10q10 0 18 2.5t12 4.5l4 -14q-7 -4 -16.5 -7t-20.5 -3z" />
    <glyph glyph-name="uni01EB" unicode="&#x1eb;" horiz-adv-x="340" 
d="M135 -7q-43 0 -66 11.5t-32 30.5t-8.5 42.5t3.5 47.5l34 247q5 32 16 62t39.5 49.5t85.5 19.5q42 0 65 -11.5t31.5 -30.5t8 -42t-3.5 -47l-34 -247q-4 -32 -15.5 -62.5t-39.5 -50t-84 -19.5zM137 13q46 0 69 17.5t32 44.5t13 55l33 237q4 28 3 54.5t-19 44t-64 17.5
t-69 -17.5t-32 -44t-13 -54.5l-33 -237q-4 -28 -3 -55t19 -44.5t64 -17.5zM136 -129q-23 0 -39 14.5t-13 39.5q5 29 26 47.5t40 27.5h21q-28 -14 -45 -33t-20 -39t8.5 -30t24.5 -10q10 0 18 2.5t12 4.5l4 -14q-7 -4 -16.5 -7t-20.5 -3z" />
    <glyph glyph-name="Aringacute" unicode="&#x1fa;" horiz-adv-x="352" 
d="M-18 0l233 591h20l64 -591h-24l-18 158h-189l-63 -158h-23zM73 175h183l-40 359zM221 573q-32 0 -49.5 20.5t-13.5 48.5q4 29 27.5 49.5t55.5 20.5q35 0 51.5 -20.5t12.5 -49.5q-4 -28 -29 -48.5t-55 -20.5zM224 591q25 0 41.5 14.5t19.5 36.5q3 24 -9.5 38t-37.5 14
t-41 -14t-19 -38q-3 -22 9 -36.5t37 -14.5zM195 721l91 75h34l-103 -75h-22z" />
    <glyph glyph-name="aringacute" unicode="&#x1fb;" horiz-adv-x="350" 
d="M113 -8q-9 0 -26 2.5t-32.5 13t-24 34t-1.5 66.5l45 276q9 57 27.5 82.5t43.5 32t53 6.5q30 0 60.5 -10.5t37.5 -39.5l5 40h25l-70 -495h-25l13 93q-8 -21 -24 -44.5t-42 -40t-65 -16.5zM122 10q29 0 51 16t37.5 40t25.5 50.5t15.5 48t6.5 31.5l32 226q-2 7 -9 22.5
t-25.5 29.5t-58.5 14t-60.5 -15t-28.5 -40t-13 -56l-42 -271q-5 -34 1.5 -54t19.5 -28.5t26.5 -11t21.5 -2.5zM223 545q-32 0 -49.5 20.5t-13.5 48.5q4 29 27.5 49.5t55.5 20.5q35 0 51.5 -20.5t12.5 -49.5q-4 -28 -29 -48.5t-55 -20.5zM226 563q25 0 41.5 14.5t19.5 36.5
q3 24 -9.5 38t-37.5 14t-41 -14t-19 -38q-3 -22 9 -36.5t37 -14.5zM216 695l62 87h32l-79 -87h-15z" />
    <glyph glyph-name="AEacute" unicode="&#x1fc;" horiz-adv-x="526" 
d="M-27 0l304 591h241l-3 -19h-218l-33 -251h189l-3 -19h-188l-36 -283h222l-4 -19h-245l20 158h-142l-82 -158h-22zM84 175h138l47 349l2 10l-3 -8zM337 633l91 75h34l-103 -75h-22z" />
    <glyph glyph-name="aeacute" unicode="&#x1fd;" horiz-adv-x="553" 
d="M118 -3q-15 0 -32.5 3t-31.5 14t-21 34.5t-2 64.5l4 35q5 47 40 77.5t84 54.5q42 21 71 38t45 33.5t18 34.5l4 28q5 31 -7 46.5t-32.5 21t-43.5 5.5q-59 0 -80.5 -29t-29.5 -82l-6 -42h-23l6 44q5 37 18.5 65.5t41.5 45t76 16.5q51 0 72 -14.5t24.5 -37.5t-0.5 -50
l-48 -345l-9 28q-22 -49 -58 -69t-80 -20zM125 16q59 0 92 38t43 103l26 181q-18 -22 -51.5 -39t-68.5 -35q-46 -25 -73.5 -51t-33.5 -69l-4 -30q-6 -47 4.5 -68t29.5 -25.5t36 -4.5zM359 -2q-34 0 -56 5t-34 18t-14.5 37.5t2.5 62.5l37 264q10 68 39.5 94t97.5 26
q67 0 89.5 -25.5t12.5 -94.5l-17 -123h-216l-20 -143q-5 -40 -1 -62t23.5 -30.5t58.5 -8.5t61.5 9.5t34 33t16.5 65.5l6 46h24l-6 -44q-5 -39 -15 -64t-25.5 -39.5t-39.5 -20.5t-58 -6zM302 281h192l15 103q8 54 -7.5 78.5t-74.5 24.5q-58 0 -80 -24.5t-30 -78.5zM312 544
l62 87h32l-79 -87h-15z" />
    <glyph glyph-name="Oslashacute" unicode="&#x1fe;" horiz-adv-x="427" 
d="M-22 -42l426 662h24l-426 -662h-24zM169 -12q-39 0 -68.5 9t-43.5 37t-6 86l49 349q8 58 30 85.5t55 36t72 8.5q40 0 69.5 -9t43.5 -36.5t6 -84.5l-50 -349q-8 -59 -30 -87t-54 -36.5t-73 -8.5zM172 6q34 0 61 7.5t45 32t25 75.5l48 345q7 51 -4 75.5t-35.5 32t-57.5 7.5
q-34 0 -61 -7.5t-45 -32t-25 -75.5l-48 -345q-7 -51 4 -75.5t35.5 -32t57.5 -7.5zM218 633l91 75h34l-103 -75h-22z" />
    <glyph glyph-name="oslashacute" unicode="&#x1ff;" horiz-adv-x="341" 
d="M-22 -26l358 542h21l-359 -542h-20zM135 -7q-43 0 -66 11.5t-32 30.5t-8.5 42.5t3.5 47.5l34 247q5 32 16 62t39.5 49.5t85.5 19.5q42 0 65 -11.5t31.5 -30.5t8 -42t-3.5 -47l-34 -247q-4 -32 -15.5 -62.5t-39.5 -50t-84 -19.5zM137 13q46 0 69 17.5t32 44.5t13 55
l33 237q4 28 3 54.5t-19 44t-64 17.5t-69 -17.5t-32 -44t-13 -54.5l-33 -237q-4 -28 -3 -55t19 -44.5t64 -17.5zM185 544l62 87h32l-79 -87h-15z" />
    <glyph glyph-name="uni0200" unicode="&#x200;" horiz-adv-x="352" 
d="M-18 0l233 591h20l64 -591h-24l-18 158h-189l-63 -158h-23zM73 175h183l-40 359zM256 640h-15l-61 87h30zM202 640h-15l-61 87h30z" />
    <glyph glyph-name="uni0201" unicode="&#x201;" horiz-adv-x="350" 
d="M113 -8q-9 0 -26 2.5t-32.5 13t-24 34t-1.5 66.5l45 276q9 57 27.5 82.5t43.5 32t53 6.5q30 0 60.5 -10.5t37.5 -39.5l5 40h25l-70 -495h-25l13 93q-8 -21 -24 -44.5t-42 -40t-65 -16.5zM122 10q29 0 51 16t37.5 40t25.5 50.5t15.5 48t6.5 31.5l32 226q-2 7 -9 22.5
t-25.5 29.5t-58.5 14t-60.5 -15t-28.5 -40t-13 -56l-42 -271q-5 -34 1.5 -54t19.5 -28.5t26.5 -11t21.5 -2.5zM249 544h-15l-61 87h30zM195 544h-15l-61 87h30z" />
    <glyph glyph-name="uni0202" unicode="&#x202;" horiz-adv-x="352" 
d="M247 711q24 0 39.5 -8t23.5 -20.5t11 -26.5t2 -26h-19q-1 32 -17 48t-43 16q-29 0 -50 -15.5t-29 -48.5h-19q5 17 16.5 35.5t32 32t52.5 13.5zM-18 0l233 591h20l64 -591h-24l-18 158h-189l-63 -158h-23zM73 175h183l-40 359z" />
    <glyph glyph-name="uni0203" unicode="&#x203;" horiz-adv-x="350" 
d="M240 615q24 0 39.5 -8t23.5 -20.5t11 -26.5t2 -26h-19q-1 32 -17 48t-43 16q-29 0 -50 -15.5t-29 -48.5h-19q5 17 16.5 35.5t32 32t52.5 13.5zM113 -8q-9 0 -26 2.5t-32.5 13t-24 34t-1.5 66.5l45 276q9 57 27.5 82.5t43.5 32t53 6.5q30 0 60.5 -10.5t37.5 -39.5l5 40h25
l-70 -495h-25l13 93q-8 -21 -24 -44.5t-42 -40t-65 -16.5zM122 10q29 0 51 16t37.5 40t25.5 50.5t15.5 48t6.5 31.5l32 226q-2 7 -9 22.5t-25.5 29.5t-58.5 14t-60.5 -15t-28.5 -40t-13 -56l-42 -271q-5 -34 1.5 -54t19.5 -28.5t26.5 -11t21.5 -2.5z" />
    <glyph glyph-name="uni0204" unicode="&#x204;" horiz-adv-x="349" 
d="M43 0l84 591h243l-4 -19h-218l-35 -251h168l-2 -19h-169l-39 -283h218l-3 -19h-243zM278 640h-15l-61 87h30zM224 640h-15l-61 87h30z" />
    <glyph glyph-name="uni0205" unicode="&#x205;" horiz-adv-x="336" 
d="M134 -9q-45 0 -70 11.5t-32.5 39.5t-0.5 79l37 264q10 69 44.5 93t97.5 24q72 0 95.5 -31t7.5 -104q-10 -44 -40.5 -70.5t-69.5 -41t-75.5 -21t-57.5 -9.5l-15 -105q-9 -61 6.5 -85t73.5 -24q59 0 81.5 24t30.5 85l7 53h24l-7 -52q-7 -51 -21.5 -79t-42 -39.5
t-73.5 -11.5zM73 247q26 3 59.5 9.5t66 20t56.5 36t32 56.5q14 56 -1 85.5t-75 29.5q-57 0 -84 -23t-35 -78zM235 544h-15l-61 87h30zM181 544h-15l-61 87h30z" />
    <glyph glyph-name="uni0206" unicode="&#x206;" horiz-adv-x="349" 
d="M269 711q24 0 39.5 -8t23.5 -20.5t11 -26.5t2 -26h-19q-1 32 -17 48t-43 16q-29 0 -50 -15.5t-29 -48.5h-19q5 17 16.5 35.5t32 32t52.5 13.5zM43 0l84 591h243l-4 -19h-218l-35 -251h168l-2 -19h-169l-39 -283h218l-3 -19h-243z" />
    <glyph glyph-name="uni0207" unicode="&#x207;" horiz-adv-x="336" 
d="M226 615q24 0 39.5 -8t23.5 -20.5t11 -26.5t2 -26h-19q-1 32 -17 48t-43 16q-29 0 -50 -15.5t-29 -48.5h-19q5 17 16.5 35.5t32 32t52.5 13.5zM134 -9q-45 0 -70 11.5t-32.5 39.5t-0.5 79l37 264q10 69 44.5 93t97.5 24q72 0 95.5 -31t7.5 -104q-10 -44 -40.5 -70.5
t-69.5 -41t-75.5 -21t-57.5 -9.5l-15 -105q-9 -61 6.5 -85t73.5 -24q59 0 81.5 24t30.5 85l7 53h24l-7 -52q-7 -51 -21.5 -79t-42 -39.5t-73.5 -11.5zM73 247q26 3 59.5 9.5t66 20t56.5 36t32 56.5q14 56 -1 85.5t-75 29.5q-57 0 -84 -23t-35 -78z" />
    <glyph glyph-name="uni0208" unicode="&#x208;" horiz-adv-x="181" 
d="M43 0l84 591h24l-84 -591h-24zM171 640h-15l-61 87h30zM117 640h-15l-61 87h30z" />
    <glyph glyph-name="uni0209" unicode="&#x209;" horiz-adv-x="151" 
d="M29 0l70 495h23l-70 -495h-23zM146 544h-15l-61 87h30zM92 544h-15l-61 87h30z" />
    <glyph glyph-name="uni020A" unicode="&#x20a;" horiz-adv-x="181" 
d="M162 711q24 0 39.5 -8t23.5 -20.5t11 -26.5t2 -26h-19q-1 32 -17 48t-43 16q-29 0 -50 -15.5t-29 -48.5h-19q5 17 16.5 35.5t32 32t52.5 13.5zM43 0l84 591h24l-84 -591h-24z" />
    <glyph glyph-name="uni020B" unicode="&#x20b;" horiz-adv-x="151" 
d="M137 615q24 0 39.5 -8t23.5 -20.5t11 -26.5t2 -26h-19q-1 32 -17 48t-43 16q-29 0 -50 -15.5t-29 -48.5h-19q5 17 16.5 35.5t32 32t52.5 13.5zM29 0l70 495h23l-70 -495h-23z" />
    <glyph glyph-name="uni020C" unicode="&#x20c;" 
d="M167 -12q-39 0 -69 9t-43.5 37t-5.5 86l50 349q8 58 30 85.5t54.5 36t71.5 8.5q40 0 69.5 -9t43.5 -36.5t6 -84.5l-49 -349q-8 -59 -30 -87t-54.5 -36.5t-73.5 -8.5zM170 6q34 0 61 7.5t45 32t25 75.5l48 345q7 51 -4 75.5t-35.5 32t-57.5 7.5q-34 0 -61 -7.5t-45 -32
t-25 -75.5l-48 -345q-7 -51 4 -75.5t35.5 -32t57.5 -7.5zM285 640h-15l-61 87h30zM231 640h-15l-61 87h30z" />
    <glyph glyph-name="uni020D" unicode="&#x20d;" horiz-adv-x="340" 
d="M135 -7q-43 0 -66 11.5t-32 30.5t-8.5 42.5t3.5 47.5l34 247q5 32 16 62t39.5 49.5t85.5 19.5q42 0 65 -11.5t31.5 -30.5t8 -42t-3.5 -47l-34 -247q-4 -32 -15.5 -62.5t-39.5 -50t-84 -19.5zM137 13q46 0 69 17.5t32 44.5t13 55l33 237q4 28 3 54.5t-19 44t-64 17.5
t-69 -17.5t-32 -44t-13 -54.5l-33 -237q-4 -28 -3 -55t19 -44.5t64 -17.5zM237 544h-15l-61 87h30zM183 544h-15l-61 87h30z" />
    <glyph glyph-name="uni020E" unicode="&#x20e;" 
d="M276 711q24 0 39.5 -8t23.5 -20.5t11 -26.5t2 -26h-19q-1 32 -17 48t-43 16q-29 0 -50 -15.5t-29 -48.5h-19q5 17 16.5 35.5t32 32t52.5 13.5zM167 -12q-39 0 -69 9t-43.5 37t-5.5 86l50 349q8 58 30 85.5t54.5 36t71.5 8.5q40 0 69.5 -9t43.5 -36.5t6 -84.5l-49 -349
q-8 -59 -30 -87t-54.5 -36.5t-73.5 -8.5zM170 6q34 0 61 7.5t45 32t25 75.5l48 345q7 51 -4 75.5t-35.5 32t-57.5 7.5q-34 0 -61 -7.5t-45 -32t-25 -75.5l-48 -345q-7 -51 4 -75.5t35.5 -32t57.5 -7.5z" />
    <glyph glyph-name="uni020F" unicode="&#x20f;" horiz-adv-x="340" 
d="M228 615q24 0 39.5 -8t23.5 -20.5t11 -26.5t2 -26h-19q-1 32 -17 48t-43 16q-29 0 -50 -15.5t-29 -48.5h-19q5 17 16.5 35.5t32 32t52.5 13.5zM135 -7q-43 0 -66 11.5t-32 30.5t-8.5 42.5t3.5 47.5l34 247q5 32 16 62t39.5 49.5t85.5 19.5q42 0 65 -11.5t31.5 -30.5
t8 -42t-3.5 -47l-34 -247q-4 -32 -15.5 -62.5t-39.5 -50t-84 -19.5zM137 13q46 0 69 17.5t32 44.5t13 55l33 237q4 28 3 54.5t-19 44t-64 17.5t-69 -17.5t-32 -44t-13 -54.5l-33 -237q-4 -28 -3 -55t19 -44.5t64 -17.5z" />
    <glyph glyph-name="uni0210" unicode="&#x210;" 
d="M43 0l84 591h164q44 0 72.5 -21.5t20.5 -75.5l-14 -98q-7 -55 -45.5 -80t-90.5 -25l1 2q32 1 45 -21.5t21 -68.5l35 -203h-24l-33 201q-3 21 -10 40.5t-21 32.5t-39 13h-101l-41 -287h-24zM110 304h118q52 0 82 22.5t37 77.5l12 86q6 43 -16.5 63t-55.5 20h-140zM285 640
h-15l-61 87h30zM231 640h-15l-61 87h30z" />
    <glyph glyph-name="uni0211" unicode="&#x211;" horiz-adv-x="232" 
d="M30 0l69 495h24l-29 -199q5 18 17.5 51.5t32.5 68.5t47 59.5t60 24.5h10t9 -1l-4 -19q-2 1 -6.5 1h-9.5q-26 0 -50 -23t-44.5 -60.5t-36.5 -81.5t-27 -87.5t-16 -77.5l-22 -151h-24zM214 544h-15l-61 87h30zM160 544h-15l-61 87h30z" />
    <glyph glyph-name="uni0212" unicode="&#x212;" 
d="M276 711q24 0 39.5 -8t23.5 -20.5t11 -26.5t2 -26h-19q-1 32 -17 48t-43 16q-29 0 -50 -15.5t-29 -48.5h-19q5 17 16.5 35.5t32 32t52.5 13.5zM43 0l84 591h164q44 0 72.5 -21.5t20.5 -75.5l-14 -98q-7 -55 -45.5 -80t-90.5 -25l1 2q32 1 45 -21.5t21 -68.5l35 -203h-24
l-33 201q-3 21 -10 40.5t-21 32.5t-39 13h-101l-41 -287h-24zM110 304h118q52 0 82 22.5t37 77.5l12 86q6 43 -16.5 63t-55.5 20h-140z" />
    <glyph glyph-name="uni0213" unicode="&#x213;" horiz-adv-x="232" 
d="M205 615q24 0 39.5 -8t23.5 -20.5t11 -26.5t2 -26h-19q-1 32 -17 48t-43 16q-29 0 -50 -15.5t-29 -48.5h-19q5 17 16.5 35.5t32 32t52.5 13.5zM30 0l69 495h24l-29 -199q5 18 17.5 51.5t32.5 68.5t47 59.5t60 24.5h10t9 -1l-4 -19q-2 1 -6.5 1h-9.5q-26 0 -50 -23
t-44.5 -60.5t-36.5 -81.5t-27 -87.5t-16 -77.5l-22 -151h-24z" />
    <glyph glyph-name="uni0214" unicode="&#x214;" horiz-adv-x="418" 
d="M173 -12q-27 0 -51 4.5t-41.5 17.5t-25.5 37.5t-2 64.5l67 479h24l-67 -478q-6 -45 6.5 -68t37.5 -31t54 -8q30 0 57 8t46.5 31t25.5 68l67 478h23l-67 -479q-6 -40 -20 -64.5t-35 -37.5t-46.5 -17.5t-52.5 -4.5zM289 640h-15l-61 87h30zM235 640h-15l-61 87h30z" />
    <glyph glyph-name="uni0215" unicode="&#x215;" horiz-adv-x="362" 
d="M138 -8q-42 0 -64.5 11.5t-31.5 30.5t-8.5 42t3.5 47l52 372h24l-51 -363q-3 -22 -4.5 -43.5t4 -39t24.5 -28t56 -10.5q36 0 58 13t34 30.5t17 32.5l57 408h24l-69 -495h-21l5 49q-16 -33 -47 -45t-62 -12zM248 544h-15l-61 87h30zM194 544h-15l-61 87h30z" />
    <glyph glyph-name="uni0216" unicode="&#x216;" horiz-adv-x="418" 
d="M280 711q24 0 39.5 -8t23.5 -20.5t11 -26.5t2 -26h-19q-1 32 -17 48t-43 16q-29 0 -50 -15.5t-29 -48.5h-19q5 17 16.5 35.5t32 32t52.5 13.5zM173 -12q-27 0 -51 4.5t-41.5 17.5t-25.5 37.5t-2 64.5l67 479h24l-67 -478q-6 -45 6.5 -68t37.5 -31t54 -8q30 0 57 8
t46.5 31t25.5 68l67 478h23l-67 -479q-6 -40 -20 -64.5t-35 -37.5t-46.5 -17.5t-52.5 -4.5z" />
    <glyph glyph-name="uni0217" unicode="&#x217;" horiz-adv-x="362" 
d="M239 615q24 0 39.5 -8t23.5 -20.5t11 -26.5t2 -26h-19q-1 32 -17 48t-43 16q-29 0 -50 -15.5t-29 -48.5h-19q5 17 16.5 35.5t32 32t52.5 13.5zM138 -8q-42 0 -64.5 11.5t-31.5 30.5t-8.5 42t3.5 47l52 372h24l-51 -363q-3 -22 -4.5 -43.5t4 -39t24.5 -28t56 -10.5
q36 0 58 13t34 30.5t17 32.5l57 408h24l-69 -495h-21l5 49q-16 -33 -47 -45t-62 -12z" />
    <glyph glyph-name="uni0218" unicode="&#x218;" horiz-adv-x="362" 
d="M152 -6q-45 0 -74.5 16t-40.5 53.5t-1 102.5l5 32h22l-5 -32q-9 -59 0.5 -92.5t33.5 -47t58 -13.5q44 0 80.5 30t47.5 106q7 49 -4.5 75t-37 41t-62.5 30q-28 12 -52.5 28t-37 44.5t-6.5 75.5q7 48 25 81t49 50t77 17q60 0 89 -33.5t21 -92.5l-8 -61h-11h-11l8 59
q7 51 -16.5 80t-74.5 29q-56 0 -86 -32t-40 -96q-6 -43 7 -68.5t37 -40t52 -25.5q43 -18 68.5 -36.5t34.5 -46.5t2 -77q-8 -58 -30.5 -92t-53.5 -49t-65 -15zM104 -133q16 22 24 37.5t8 22.5q0 5 -2.5 8t-5.5 7t-3 11q0 6 5.5 12t13.5 6t13 -5t5 -13q0 -10 -7 -25t-17 -31
t-21 -30h-13z" />
    <glyph glyph-name="uni0219" unicode="&#x219;" horiz-adv-x="333" 
d="M133 -6q-46 0 -69.5 12t-31.5 31.5t-6.5 43t4.5 46.5l5 39h24l-5 -38q-4 -30 -4.5 -56t17.5 -42t68 -16q45 0 67 16t30.5 39.5t11.5 43.5l3 21q4 25 -2 45t-23.5 36t-50.5 29q-34 15 -58 31t-34.5 39.5t-6.5 59.5l4 31q4 30 19 52.5t43 35t69 12.5q40 0 64 -11.5
t33 -38.5t2 -72l-7 -46h-23l6 43q8 61 -11.5 83t-65.5 22q-55 0 -78 -25t-28 -61l-3 -20q-4 -31 4.5 -51.5t30.5 -35.5t57 -31q29 -13 49.5 -27t29.5 -38t4 -67l-2 -17q-3 -27 -14.5 -54t-39.5 -45.5t-82 -18.5zM88 -133q16 22 24 37.5t8 22.5q0 5 -2.5 8t-5.5 7t-3 11
q0 6 5.5 12t13.5 6t13 -5t5 -13q0 -10 -7 -25t-17 -31t-21 -30h-13z" />
    <glyph glyph-name="uni021A" unicode="&#x21a;" horiz-adv-x="262" 
d="M82 0l81 572h-105l3 19h237l-4 -19h-107l-81 -572h-24zM48 -133q16 22 24 37.5t8 22.5q0 5 -2.5 8t-5.5 7t-3 11q0 6 5.5 12t13.5 6t13 -5t5 -13q0 -10 -7 -25t-17 -31t-21 -30h-13z" />
    <glyph glyph-name="uni021B" unicode="&#x21b;" horiz-adv-x="216" 
d="M107 0q-21 0 -34.5 6t-21 17.5t-9.5 28t1 38.5l55 386h-42l2 14l42 5l21 94h15l-13 -94h117l-2 -19h-117l-54 -382q-4 -33 5 -53.5t46 -20.5q14 0 30 1t26 2l-3 -19q-7 -1 -17 -2t-22 -1.5t-25 -0.5zM49 -133q16 22 24 37.5t8 22.5q0 5 -2.5 8t-5.5 7t-3 11q0 6 5.5 12
t13.5 6t13 -5t5 -13q0 -10 -7 -25t-17 -31t-21 -30h-13z" />
    <glyph glyph-name="uni022A" unicode="&#x22a;" 
d="M167 -12q-39 0 -69 9t-43.5 37t-5.5 86l50 349q8 58 30 85.5t54.5 36t71.5 8.5q40 0 69.5 -9t43.5 -36.5t6 -84.5l-49 -349q-8 -59 -30 -87t-54.5 -36.5t-73.5 -8.5zM170 6q34 0 61 7.5t45 32t25 75.5l48 345q7 51 -4 75.5t-35.5 32t-57.5 7.5q-34 0 -61 -7.5t-45 -32
t-25 -75.5l-48 -345q-7 -51 4 -75.5t35.5 -32t57.5 -7.5zM223 626q-9 0 -15.5 6.5t-6.5 15.5t6.5 15t15.5 6t15.5 -6t6.5 -15t-6.5 -15.5t-15.5 -6.5zM303 626q-9 0 -15.5 6.5t-6.5 15.5t6.5 15t15.5 6t15.5 -6t6.5 -15t-6.5 -15.5t-15.5 -6.5zM182 702l2 17h171l-2 -17
h-171z" />
    <glyph glyph-name="uni022B" unicode="&#x22b;" horiz-adv-x="340" 
d="M135 -7q-43 0 -66 11.5t-32 30.5t-8.5 42.5t3.5 47.5l34 247q5 32 16 62t39.5 49.5t85.5 19.5q42 0 65 -11.5t31.5 -30.5t8 -42t-3.5 -47l-34 -247q-4 -32 -15.5 -62.5t-39.5 -50t-84 -19.5zM137 13q46 0 69 17.5t32 44.5t13 55l33 237q4 28 3 54.5t-19 44t-64 17.5
t-69 -17.5t-32 -44t-13 -54.5l-33 -237q-4 -28 -3 -55t19 -44.5t64 -17.5zM176 561q-9 0 -15.5 6.5t-6.5 15.5t6.5 15t15.5 6t15.5 -6t6.5 -15t-6.5 -15.5t-15.5 -6.5zM256 561q-9 0 -15.5 6.5t-6.5 15.5t6.5 15t15.5 6t15.5 -6t6.5 -15t-6.5 -15.5t-15.5 -6.5zM135 639
l2 17h171l-2 -17h-171z" />
    <glyph glyph-name="uni022C" unicode="&#x22c;" 
d="M167 -12q-39 0 -69 9t-43.5 37t-5.5 86l50 349q8 58 30 85.5t54.5 36t71.5 8.5q40 0 69.5 -9t43.5 -36.5t6 -84.5l-49 -349q-8 -59 -30 -87t-54.5 -36.5t-73.5 -8.5zM170 6q34 0 61 7.5t45 32t25 75.5l48 345q7 51 -4 75.5t-35.5 32t-57.5 7.5q-34 0 -61 -7.5t-45 -32
t-25 -75.5l-48 -345q-7 -51 4 -75.5t35.5 -32t57.5 -7.5zM299 641q-12 0 -19 3.5t-19 13.5q-7 5 -16 12t-21 7t-21.5 -8t-15.5 -27h-18q6 23 21 38t37 15q12 0 22 -6t20 -14q9 -7 16 -11t17 -4q12 0 21.5 7t15.5 26h18q-6 -22 -21 -37t-37 -15zM187 724l2 17h171l-2 -17
h-171z" />
    <glyph glyph-name="uni022D" unicode="&#x22d;" horiz-adv-x="340" 
d="M135 -7q-43 0 -66 11.5t-32 30.5t-8.5 42.5t3.5 47.5l34 247q5 32 16 62t39.5 49.5t85.5 19.5q42 0 65 -11.5t31.5 -30.5t8 -42t-3.5 -47l-34 -247q-4 -32 -15.5 -62.5t-39.5 -50t-84 -19.5zM137 13q46 0 69 17.5t32 44.5t13 55l33 237q4 28 3 54.5t-19 44t-64 17.5
t-69 -17.5t-32 -44t-13 -54.5l-33 -237q-4 -28 -3 -55t19 -44.5t64 -17.5zM253 556q-12 0 -19 3.5t-19 13.5q-7 5 -16 12t-21 7t-21.5 -8t-15.5 -27h-18q6 23 21 38t37 15q12 0 22 -6t20 -14q9 -7 16 -11t17 -4q12 0 21.5 7t15.5 26h18q-6 -22 -21 -37t-37 -15zM138 640
l2 17h171l-2 -17h-171z" />
    <glyph glyph-name="uni0230" unicode="&#x230;" 
d="M167 -12q-39 0 -69 9t-43.5 37t-5.5 86l50 349q8 58 30 85.5t54.5 36t71.5 8.5q40 0 69.5 -9t43.5 -36.5t6 -84.5l-49 -349q-8 -59 -30 -87t-54.5 -36.5t-73.5 -8.5zM170 6q34 0 61 7.5t45 32t25 75.5l48 345q7 51 -4 75.5t-35.5 32t-57.5 7.5q-34 0 -61 -7.5t-45 -32
t-25 -75.5l-48 -345q-7 -51 4 -75.5t35.5 -32t57.5 -7.5zM261 627q-9 0 -15.5 6.5t-6.5 15.5t6.5 15t15.5 6t15.5 -6t6.5 -15t-6.5 -15.5t-15.5 -6.5zM182 702l2 17h171l-2 -17h-171z" />
    <glyph glyph-name="uni0231" unicode="&#x231;" horiz-adv-x="340" 
d="M135 -7q-43 0 -66 11.5t-32 30.5t-8.5 42.5t3.5 47.5l34 247q5 32 16 62t39.5 49.5t85.5 19.5q42 0 65 -11.5t31.5 -30.5t8 -42t-3.5 -47l-34 -247q-4 -32 -15.5 -62.5t-39.5 -50t-84 -19.5zM137 13q46 0 69 17.5t32 44.5t13 55l33 237q4 28 3 54.5t-19 44t-64 17.5
t-69 -17.5t-32 -44t-13 -54.5l-33 -237q-4 -28 -3 -55t19 -44.5t64 -17.5zM217 561q-9 0 -15.5 6.5t-6.5 15.5t6.5 15t15.5 6t15.5 -6t6.5 -15t-6.5 -15.5t-15.5 -6.5zM138 640l2 17h171l-2 -17h-171z" />
    <glyph glyph-name="uni0232" unicode="&#x232;" horiz-adv-x="296" 
d="M95 0l37 265l-63 326h27l52 -291l1 -7l4 7l143 291h26l-165 -327l-38 -264h-24zM120 655l2 17h171l-2 -17h-171z" />
    <glyph glyph-name="uni0233" unicode="&#x233;" horiz-adv-x="321" 
d="M-42 -116q-10 0 -20.5 1t-17.5 3l4 22q7 -2 14.5 -3t17.5 -1q55 0 103.5 29.5t89.5 80t70 113.5q22 47 39 102.5t26.5 112t9.5 106.5q0 16 -1 27.5t-3 17.5h26q3 -18 3 -41q0 -50 -11 -112t-30 -124t-43 -112q-29 -60 -72 -110.5t-95 -81t-110 -30.5zM76 -57l-22 552h25
l21 -549zM104 570l2 17h171l-2 -17h-171z" />
    <glyph glyph-name="uni0237" unicode="&#x237;" horiz-adv-x="127" 
d="M-91 -110q-4 0 -10.5 0.5t-8.5 1.5l3 16q0 -1 6.5 -1.5t13.5 -0.5q42 0 68 13t33 59l72 517h23l-73 -518q-5 -39 -23 -57.5t-45 -24t-59 -5.5z" />
    <glyph glyph-name="uni0259" unicode="&#x259;" horiz-adv-x="336" 
d="M202 504q46 0 70.5 -11.5t32 -39.5t0.5 -79l-37 -264q-10 -69 -44.5 -93t-97.5 -24q-72 0 -95.5 31t-7.5 104q10 44 40.5 70.5t69.5 41t75.5 21t57.5 9.5l15 105q9 61 -6 85t-74 24q-58 0 -81 -24t-31 -85l-7 -53h-24l7 52q7 51 21.5 79t42.5 39.5t73 11.5zM263 248
q-26 -3 -59.5 -9.5t-66 -20t-56.5 -36t-32 -56.5q-13 -55 1.5 -85t74.5 -30q57 0 84.5 23t34.5 78z" />
    <glyph glyph-name="uni02B9" unicode="&#x2b9;" horiz-adv-x="62" 
d="M11 413h-11l32 160h30z" />
    <glyph glyph-name="uni02BA" unicode="&#x2ba;" horiz-adv-x="153" 
d="M11 413h-11l32 160h30zM102 413h-11l32 160h30z" />
    <glyph glyph-name="uni02BC" unicode="&#x2bc;" horiz-adv-x="73" 
d="M13 382h-14l39 190h35z" />
    <glyph glyph-name="circumflex" unicode="&#x2c6;" horiz-adv-x="195" 
d="M42 547l97 82h25l73 -82h-21l-68 65l-84 -65h-22z" />
    <glyph glyph-name="caron" unicode="&#x2c7;" horiz-adv-x="195" 
d="M127 547l-73 82h22l66 -65l86 65h21l-97 -82h-25z" />
    <glyph glyph-name="breve" unicode="&#x2d8;" horiz-adv-x="177" 
d="M129 543q-24 0 -39.5 8t-23.5 20.5t-11 26.5t-2 26h19q1 -32 17 -48t43 -16q29 0 50 15.5t29 48.5h19q-4 -16 -16 -35t-32.5 -32.5t-52.5 -13.5z" />
    <glyph glyph-name="dotaccent" unicode="&#x2d9;" horiz-adv-x="44" 
d="M69 561q-9 0 -15.5 6.5t-6.5 15.5t6.5 15t15.5 6t15.5 -6t6.5 -15t-6.5 -15.5t-15.5 -6.5z" />
    <glyph glyph-name="ring" unicode="&#x2da;" horiz-adv-x="147" 
d="M115 545q-32 0 -49.5 20.5t-13.5 48.5q4 29 27.5 49.5t55.5 20.5q35 0 51.5 -20.5t12.5 -49.5q-4 -28 -29 -48.5t-55 -20.5zM118 563q25 0 41.5 14.5t19.5 36.5q3 24 -9.5 38t-37.5 14t-41 -14t-19 -38q-3 -22 9 -36.5t37 -14.5z" />
    <glyph glyph-name="ogonek" unicode="&#x2db;" horiz-adv-x="95" 
d="M7 -128q-23 0 -39 14.5t-13 39.5q5 29 26 47.5t40 27.5h21q-28 -14 -45 -33t-20 -39t8.5 -30t24.5 -10q10 0 18 2.5t12 4.5l4 -14q-7 -4 -16.5 -7t-20.5 -3z" />
    <glyph glyph-name="tilde" unicode="&#x2dc;" horiz-adv-x="180" 
d="M173 556q-12 0 -19 3.5t-19 13.5q-7 5 -16 12t-21 7t-21.5 -8t-15.5 -27h-18q6 23 21 38t37 15q12 0 22 -6t20 -14q9 -7 16 -11t17 -4q12 0 21.5 7t15.5 26h18q-6 -22 -21 -37t-37 -15z" />
    <glyph glyph-name="hungarumlaut" unicode="&#x2dd;" horiz-adv-x="118" 
d="M42 544l46 87h30l-61 -87h-15zM96 544l46 87h30l-61 -87h-15z" />
    <glyph glyph-name="gravecomb" unicode="&#x300;" horiz-adv-x="0" 
d="M115 544l-61 87h32l44 -87h-15z" />
    <glyph glyph-name="acutecomb" unicode="&#x301;" horiz-adv-x="0" 
d="M42 544l62 87h32l-79 -87h-15z" />
    <glyph glyph-name="uni0302" unicode="&#x302;" horiz-adv-x="0" 
d="M42 547l97 82h25l73 -82h-21l-68 65l-84 -65h-22z" />
    <glyph glyph-name="tildecomb" unicode="&#x303;" horiz-adv-x="0" 
d="M173 556q-12 0 -19 3.5t-19 13.5q-7 5 -16 12t-21 7t-21.5 -8t-15.5 -27h-18q6 23 21 38t37 15q12 0 22 -6t20 -14q9 -7 16 -11t17 -4q12 0 21.5 7t15.5 26h18q-6 -22 -21 -37t-37 -15z" />
    <glyph glyph-name="uni0304" unicode="&#x304;" horiz-adv-x="0" 
d="M47 570l2 17h171l-2 -17h-171z" />
    <glyph glyph-name="uni0306" unicode="&#x306;" horiz-adv-x="0" 
d="M129 543q-24 0 -39.5 8t-23.5 20.5t-11 26.5t-2 26h19q1 -32 17 -48t43 -16q29 0 50 15.5t29 48.5h19q-4 -16 -16 -35t-32.5 -32.5t-52.5 -13.5z" />
    <glyph glyph-name="uni0307" unicode="&#x307;" horiz-adv-x="0" 
d="M69 561q-9 0 -15.5 6.5t-6.5 15.5t6.5 15t15.5 6t15.5 -6t6.5 -15t-6.5 -15.5t-15.5 -6.5z" />
    <glyph glyph-name="uni0308" unicode="&#x308;" horiz-adv-x="0" 
d="M69 561q-9 0 -15.5 6.5t-6.5 15.5t6.5 15t15.5 6t15.5 -6t6.5 -15t-6.5 -15.5t-15.5 -6.5zM149 561q-9 0 -15.5 6.5t-6.5 15.5t6.5 15t15.5 6t15.5 -6t6.5 -15t-6.5 -15.5t-15.5 -6.5z" />
    <glyph glyph-name="hookabovecomb" unicode="&#x309;" horiz-adv-x="0" 
d="M85 540l2 19q2 14 14 18.5t23.5 10.5t11.5 22v3q0 13 -5 24.5t-24 11.5q-25 0 -34 -25l-17 4q7 17 20 26.5t35 9.5q26 0 34.5 -14t8.5 -38v-2q0 -18 -7.5 -26.5t-18 -12.5t-18.5 -7.5t-8 -10.5l-1 -13h-16z" />
    <glyph glyph-name="uni030A" unicode="&#x30a;" horiz-adv-x="0" 
d="M115 545q-32 0 -49.5 20.5t-13.5 48.5q4 29 27.5 49.5t55.5 20.5q35 0 51.5 -20.5t12.5 -49.5q-4 -28 -29 -48.5t-55 -20.5zM118 563q25 0 41.5 14.5t19.5 36.5q3 24 -9.5 38t-37.5 14t-41 -14t-19 -38q-3 -22 9 -36.5t37 -14.5z" />
    <glyph glyph-name="uni030B" unicode="&#x30b;" horiz-adv-x="0" 
d="M42 544l46 87h30l-61 -87h-15zM96 544l46 87h30l-61 -87h-15z" />
    <glyph glyph-name="uni030C" unicode="&#x30c;" horiz-adv-x="0" 
d="M127 547l-73 82h22l66 -65l86 65h21l-97 -82h-25z" />
    <glyph glyph-name="uni030F" unicode="&#x30f;" horiz-adv-x="0" 
d="M172 544h-15l-61 87h30zM118 544h-15l-61 87h30z" />
    <glyph glyph-name="uni0311" unicode="&#x311;" horiz-adv-x="0" 
d="M141 615q24 0 39.5 -8t23.5 -20.5t11 -26.5t2 -26h-19q-1 32 -17 48t-43 16q-29 0 -50 -15.5t-29 -48.5h-19q5 17 16.5 35.5t32 32t52.5 13.5z" />
    <glyph glyph-name="uni0312" unicode="&#x312;" horiz-adv-x="0" 
d="M103 650q-16 -22 -24 -37.5t-8 -22.5q0 -4 3 -7.5t5.5 -7.5t2.5 -11q0 -6 -5.5 -12t-13.5 -6t-13 5.5t-5 12.5q0 10 7 25t17.5 31.5t20.5 29.5h13z" />
    <glyph glyph-name="uni031B" unicode="&#x31b;" horiz-adv-x="0" 
d="M36 470l-2 17h9q51 0 57 44l2 15h21l-1 -10q-4 -31 -27.5 -49t-58.5 -17z" />
    <glyph glyph-name="dotbelowcomb" unicode="&#x323;" horiz-adv-x="0" 
d="M-22 -92q-9 0 -15.5 6.5t-6.5 15.5t6.5 15t15.5 6t15.5 -6t6.5 -15t-6.5 -15.5t-15.5 -6.5z" />
    <glyph glyph-name="uni0324" unicode="&#x324;" horiz-adv-x="0" 
d="M-22 -91q-9 0 -15.5 6.5t-6.5 15.5t6.5 15t15.5 6t15.5 -6t6.5 -15t-6.5 -15.5t-15.5 -6.5zM58 -91q-9 0 -15.5 6.5t-6.5 15.5t6.5 15t15.5 6t15.5 -6t6.5 -15t-6.5 -15.5t-15.5 -6.5z" />
    <glyph glyph-name="uni0326" unicode="&#x326;" horiz-adv-x="0" 
d="M-62 -133q16 22 24 37.5t8 22.5q0 5 -2.5 8t-5.5 7t-3 11q0 6 5.5 12t13.5 6t13 -5t5 -13q0 -10 -7 -25t-17 -31t-21 -30h-13z" />
    <glyph glyph-name="uni0327" unicode="&#x327;" horiz-adv-x="0" 
d="M-17 -132q-13 0 -22.5 4t-17.5 8l8 14q5 -4 16 -7.5t17 -3.5q23 0 35 10t13 23q5 32 -31 32q-7 0 -15.5 -3t-16.5 -8l-11 7l40 58h17l-35 -50l-5 1q8 5 17 6.5t16 1.5q23 0 34 -13.5t9 -28.5q-3 -23 -21 -37t-47 -14z" />
    <glyph glyph-name="uni0328" unicode="&#x328;" horiz-adv-x="0" 
d="M7 -128q-23 0 -39 14.5t-13 39.5q5 29 26 47.5t40 27.5h21q-28 -14 -45 -33t-20 -39t8.5 -30t24.5 -10q10 0 18 2.5t12 4.5l4 -14q-7 -4 -16.5 -7t-20.5 -3z" />
    <glyph glyph-name="uni032E" unicode="&#x32e;" horiz-adv-x="0" 
d="M34 -130q-24 0 -39.5 8t-23.5 20.5t-11 26.5t-2 26h19q1 -32 17 -48t43 -16q29 0 50 15.5t29 48.5h19q-4 -16 -16 -35t-32.5 -32.5t-52.5 -13.5z" />
    <glyph glyph-name="uni0331" unicode="&#x331;" horiz-adv-x="0" 
d="M-42 -66l2 17h171l-2 -17h-171z" />
    <glyph glyph-name="uni0335" unicode="&#x335;" horiz-adv-x="0" 
d="M3 270l2 17h171l-2 -17h-171z" />
    <glyph glyph-name="uni0394" unicode="&#x394;" horiz-adv-x="506" 
d="M48 0l194 585h29l185 -585h-408zM85 25h332l-162 522z" />
    <glyph glyph-name="uni03A9" unicode="&#x3a9;" horiz-adv-x="600" 
d="M48 0l1 24l170 -4l-3 2q-64 52 -95.5 106t-41 101t-9.5 75q0 61 16 109t46.5 81.5t73.5 51.5t96 18t95 -18t72 -51.5t46 -81t16 -107.5q0 -29 -11 -75.5t-42.5 -100.5t-94.5 -108l-3 -2l170 4v-24h-216l1 14q54 39 87 80.5t50.5 81.5t23.5 74.5t6 59.5q1 71 -23.5 124.5
t-69.5 83t-108 29.5q-62 0 -107.5 -30t-70.5 -86t-26 -134q0 -20 6.5 -52.5t23.5 -71.5t50 -80t85 -79v-14h-214z" />
    <glyph glyph-name="uni03BC" unicode="&#x3bc;" horiz-adv-x="361" 
d="M142 -8q-37 0 -58.5 9.5t-32.5 24.5l-10 -66q-3 -19 -4 -38t6 -38h-23q-7 19 -6 37t4 37l84 537h24l-57 -363q-3 -21 -5.5 -42.5t3 -38.5t24 -27.5t56.5 -10.5q36 0 58 12.5t34 30t18 31.5l64 408h24q-18 -113 -35.5 -226t-35.5 -226q-1 -10 -1 -22.5t4 -20.5h-13.5
h-13.5q-1 12 0 24.5t2 24.5q-11 -21 -38 -39t-72 -18z" />
    <glyph glyph-name="pi" unicode="&#x3c0;" horiz-adv-x="600" 
d="M116 0q8 30 19.5 81t23 115.5t18.5 136t6 140.5q-41 -1 -70.5 -7t-62.5 -18v21q12 5 23.5 9t24.5 7q21 5 49 7.5t70 2.5h292l-1 -22h-85l-2 -473h-24l2 473h-193q2 -51 -2 -109.5t-13 -120.5t-22.5 -124t-30.5 -119h-22z" />
    <glyph glyph-name="uni0400" unicode="&#x400;" horiz-adv-x="349" 
d="M43 0l84 591h243l-4 -19h-218l-35 -251h168l-2 -19h-169l-39 -283h218l-3 -19h-243zM265 633l-93 75h34l81 -75h-22z" />
    <glyph glyph-name="uni0401" unicode="&#x401;" horiz-adv-x="349" 
d="M43 0l84 591h243l-4 -19h-218l-35 -251h168l-2 -19h-169l-39 -283h218l-3 -19h-243zM219 626q-9 0 -15.5 6.5t-6.5 15.5t6.5 15t15.5 6t15.5 -6t6.5 -15t-6.5 -15.5t-15.5 -6.5zM299 626q-9 0 -15.5 6.5t-6.5 15.5t6.5 15t15.5 6t15.5 -6t6.5 -15t-6.5 -15.5t-15.5 -6.5z
" />
    <glyph glyph-name="uni0402" unicode="&#x402;" horiz-adv-x="429" 
d="M89 0l81 571h-113l3 20h252l-3 -20h-114l-28 -194q13 20 42 37.5t74 17.5q55 0 78.5 -17.5t27 -48t-2.5 -68.5l-16 -119q-8 -57 -22.5 -92.5t-35 -54.5t-46 -25.5t-55.5 -6.5h-7.5h-7.5l3 18h8h8q59 0 89 40t41 119l16 121q8 56 -7 85.5t-77 29.5q-49 0 -77 -24t-37 -47
l-49 -342h-25z" />
    <glyph glyph-name="uni0403" unicode="&#x403;" horiz-adv-x="350" 
d="M43 0l84 591h246l-4 -20h-221l-80 -571h-25zM212 633l91 75h34l-103 -75h-22z" />
    <glyph glyph-name="uni0404" unicode="&#x404;" horiz-adv-x="409" 
d="M168 -12q-38 0 -68 9t-44.5 37.5t-6.5 86.5l49 346q9 58 31 86t55 37t72 9q40 0 70.5 -9t44.5 -37.5t6 -85.5l-12 -91h-26l13 95q7 49 -4 72t-35.5 30t-59.5 7q-33 0 -60.5 -8t-45.5 -32t-25 -73l-21 -158h169l-2 -20h-170l-25 -172q-6 -49 5.5 -73t36 -31.5t57.5 -7.5
t60 7.5t45.5 31.5t24.5 73l11 76h26l-11 -72q-8 -60 -30 -88t-55.5 -36.5t-74.5 -8.5z" />
    <glyph glyph-name="uni0405" unicode="&#x405;" horiz-adv-x="362" 
d="M152 -6q-45 0 -74.5 16t-40.5 53.5t-1 102.5l5 32h22l-5 -32q-9 -59 0.5 -92.5t33.5 -47t58 -13.5q44 0 80.5 30t47.5 106q7 49 -4.5 75t-37 41t-62.5 30q-28 12 -52.5 28t-37 44.5t-6.5 75.5q7 48 25 81t49 50t77 17q60 0 89 -33.5t21 -92.5l-8 -61h-11h-11l8 59
q7 51 -16.5 80t-74.5 29q-56 0 -86 -32t-40 -96q-6 -43 7 -68.5t37 -40t52 -25.5q43 -18 68.5 -36.5t34.5 -46.5t2 -77q-8 -58 -30.5 -92t-53.5 -49t-65 -15z" />
    <glyph glyph-name="uni0406" unicode="&#x406;" horiz-adv-x="181" 
d="M43 0l84 591h24l-84 -591h-24z" />
    <glyph glyph-name="uni0407" unicode="&#x407;" horiz-adv-x="181" 
d="M43 0l84 591h24l-84 -591h-24zM109 626q-9 0 -15.5 6.5t-6.5 15.5t6.5 15t15.5 6t15.5 -6t6.5 -15t-6.5 -15.5t-15.5 -6.5zM189 626q-9 0 -15.5 6.5t-6.5 15.5t6.5 15t15.5 6t15.5 -6t6.5 -15t-6.5 -15.5t-15.5 -6.5z" />
    <glyph glyph-name="uni0408" unicode="&#x408;" horiz-adv-x="201" 
d="M8 -1h-16.5t-17.5 1l3 20l34 -1q32 -1 48.5 12.5t21.5 50.5l72 509h24l-66 -473q-6 -44 -15 -70.5t-29 -37.5t-59 -11z" />
    <glyph glyph-name="uni0409" unicode="&#x409;" horiz-adv-x="635" 
d="M-22 0l3 18q20 0 34 16.5t23 57.5l104 499h256l-84 -591h-25l80 571h-207l-102 -488q-2 -10 -7 -23.5t-13 -26t-21 -22t-31 -11.5h-10zM316 18h107q43 0 66.5 16.5t34.5 45t16 63.5q5 38 10.5 76.5t10.5 77.5q5 30 2.5 57.5t-21.5 45t-65 17.5h-106q-13 -100 -27 -200
t-28 -199zM289 0l83 589h24l-21 -154h107q49 0 73.5 -15.5t30.5 -44.5t0 -71l-23 -163q-5 -35 -14.5 -61.5t-25.5 -44t-41 -26.5t-60 -9h-133z" />
    <glyph glyph-name="uni040A" unicode="&#x40a;" horiz-adv-x="635" 
d="M43 0l84 591h24l-38 -271h229l39 271h25l-22 -156h106q49 0 73.5 -15.5t31 -44.5t-0.5 -71l-23 -163q-5 -35 -14.5 -61.5t-25.5 -44t-41 -26.5t-60 -9h-133l42 300h-229l-43 -300h-24zM325 18h106q43 0 66.5 16.5t34.5 45t15 63.5l22 152q5 32 2.5 59.5t-21.5 45
t-65 17.5h-105z" />
    <glyph glyph-name="uni040B" unicode="&#x40b;" horiz-adv-x="434" 
d="M90 0l80 571h-113l4 20h252l-3 -20h-115l-27 -193q13 20 42 37.5t73 17.5q56 0 79 -19t26.5 -50t-1.5 -66l-42 -298h-25l42 299q5 33 1.5 59t-23 40.5t-62.5 14.5q-49 0 -77.5 -23.5t-36.5 -46.5l-49 -343h-25z" />
    <glyph glyph-name="uni040C" unicode="&#x40c;" horiz-adv-x="357" 
d="M43 0l84 591h24l-39 -277h37l206 277h29l-212 -285l134 -306h-31l-127 294h-39l-42 -294h-24zM209 633l91 75h34l-103 -75h-22z" />
    <glyph glyph-name="uni040D" unicode="&#x40d;" horiz-adv-x="436" 
d="M43 0l84 591h24l-76 -538l307 538h24l-84 -591h-24l75 527l-303 -527h-27zM289 633l-93 75h34l81 -75h-22z" />
    <glyph glyph-name="uni040E" unicode="&#x40e;" horiz-adv-x="320" 
d="M32 -4q-10 0 -18 1.5t-15 2.5l2 18q5 -1 12.5 -2t17.5 -1q13 0 27.5 5t28.5 18q11 10 23.5 24t10.5 33l-49 496h26l43 -461h-2l177 461h24l-182 -477q-25 -64 -52 -91t-74 -27zM209 627q-24 0 -39.5 8t-23.5 20.5t-11 26.5t-2 26h19q1 -32 17 -48t43 -16q29 0 50 15.5
t29 48.5h19q-4 -16 -16 -35t-32.5 -32.5t-52.5 -13.5z" />
    <glyph glyph-name="uni040F" unicode="&#x40f;" horiz-adv-x="404" 
d="M142 -99l13 99h-112l83 591h25l-80 -572h199l80 572h24l-83 -591h-114l-13 -99h-22z" />
    <glyph glyph-name="uni0410" unicode="&#x410;" horiz-adv-x="352" 
d="M-18 0l233 591h20l64 -591h-24l-18 158h-189l-63 -158h-23zM73 175h183l-40 359z" />
    <glyph glyph-name="uni0411" unicode="&#x411;" horiz-adv-x="382" 
d="M43 0l84 591h247l-3 -20h-223l-19 -136h108q49 0 73.5 -15.5t30.5 -44.5t0 -71l-23 -163q-5 -35 -14.5 -61.5t-25.5 -44t-41 -26.5t-60 -9h-134zM178 18q43 0 66.5 16.5t34.5 44.5t15 62l22 156q5 30 2.5 57.5t-21.5 45t-66 17.5h-105l-55 -399h107z" />
    <glyph glyph-name="uni0412" unicode="&#x412;" horiz-adv-x="416" 
d="M43 0l83 591h163q44 0 73 -21.5t21 -75.5l-10 -75q-4 -29 -16 -50.5t-26 -34.5q-18 -15 -39.5 -19t-33.5 -4v3q23 0 43 -4.5t30 -17.5q11 -15 16 -35.5t1 -47.5l-12 -89q-7 -52 -26.5 -77.5t-48 -34t-64.5 -8.5h-154zM69 18h129q30 0 53.5 7.5t39 30t21.5 67.5l13 88
q8 54 -22 72t-77 18h-117zM112 320h117q53 0 83 26t36 70l11 74q6 42 -16.5 62.5t-56.5 20.5h-139z" />
    <glyph glyph-name="uni0413" unicode="&#x413;" horiz-adv-x="350" 
d="M43 0l84 591h246l-4 -20h-221l-80 -571h-25z" />
    <glyph glyph-name="uni0414" unicode="&#x414;" horiz-adv-x="523" 
d="M-10 -102l18 120h45q25 2 41.5 21t27.5 71q10 48 20.5 96.5t20.5 96.5t20 96.5t20 96.5t20 95h229l-80 -573h80l-18 -120h-24l15 101h-396l-15 -101h-24zM108 18h239l77 553h-181l-94 -455q-6 -23 -14 -52t-27 -46z" />
    <glyph glyph-name="uni0415" unicode="&#x415;" horiz-adv-x="349" 
d="M43 0l84 591h243l-4 -19h-218l-35 -251h168l-2 -19h-169l-39 -283h218l-3 -19h-243z" />
    <glyph glyph-name="uni0416" unicode="&#x416;" horiz-adv-x="512" 
d="M-25 0l221 306l-130 285h27l127 -277h32l39 276h25l-39 -276h31l206 277h29l-213 -285l135 -306h-30l-129 295h-31l-42 -295h-25l41 295h-32l-213 -295h-29z" />
    <glyph glyph-name="uni0417" unicode="&#x417;" horiz-adv-x="407" 
d="M166 -8q-54 0 -83 20t-37.5 54t-3.5 74l8 53h26l-9 -61q-7 -55 19 -86.5t82 -33.5q53 0 90 31.5t45 87.5l7 53q8 53 -21 83t-82 32h-66l3 23h67q26 0 51 11t44 32q14 16 23 34.5t12 39.5l4 30q6 44 -16.5 75t-80.5 31t-90 -31t-38 -76l-5 -43h-27l4 35q9 63 47 99t111 36
t101 -36t19 -99l-2 -19q-7 -53 -39 -85t-71 -46q47 -11 66 -47t11 -87l-5 -36q-5 -40 -23 -74t-52 -54t-89 -20z" />
    <glyph glyph-name="uni0418" unicode="&#x418;" horiz-adv-x="436" 
d="M43 0l84 591h24l-76 -538l307 538h24l-84 -591h-24l75 527l-303 -527h-27z" />
    <glyph glyph-name="uni0419" unicode="&#x419;" horiz-adv-x="436" 
d="M43 0l84 591h24l-76 -538l307 538h24l-84 -591h-24l75 527l-303 -527h-27zM277 627q-24 0 -39.5 8t-23.5 20.5t-11 26.5t-2 26h19q1 -32 17 -48t43 -16q29 0 50 15.5t29 48.5h19q-4 -16 -16 -35t-32.5 -32.5t-52.5 -13.5z" />
    <glyph glyph-name="uni041A" unicode="&#x41a;" horiz-adv-x="357" 
d="M43 0l84 591h24l-39 -277h37l206 277h29l-212 -285l134 -306h-31l-127 294h-39l-42 -294h-24z" />
    <glyph glyph-name="uni041B" unicode="&#x41b;" horiz-adv-x="428" 
d="M-22 0l3 18q20 0 34 16.5t23 57.5l104 499h256l-84 -591h-25l80 571h-207l-102 -488q-2 -10 -7 -23.5t-13 -26t-21 -22t-31 -11.5h-10z" />
    <glyph glyph-name="uni041C" unicode="&#x41c;" horiz-adv-x="527" 
d="M43 0l84 591h23l84 -553l244 553h19l-84 -591h-23l71 505l-222 -505h-21l-80 505l-71 -505h-24z" />
    <glyph glyph-name="uni041D" unicode="&#x41d;" horiz-adv-x="433" 
d="M43 0l84 591h24l-38 -270h228l39 270h23l-84 -591h-23l42 301h-228l-43 -301h-24z" />
    <glyph glyph-name="uni041E" unicode="&#x41e;" 
d="M167 -12q-39 0 -69 9t-43.5 37t-5.5 86l50 349q8 58 30 85.5t54.5 36t71.5 8.5q40 0 69.5 -9t43.5 -36.5t6 -84.5l-49 -349q-8 -59 -30 -87t-54.5 -36.5t-73.5 -8.5zM170 6q34 0 61 7.5t45 32t25 75.5l48 345q7 51 -4 75.5t-35.5 32t-57.5 7.5q-34 0 -61 -7.5t-45 -32
t-25 -75.5l-48 -345q-7 -51 4 -75.5t35.5 -32t57.5 -7.5z" />
    <glyph glyph-name="uni041F" unicode="&#x41f;" horiz-adv-x="416" 
d="M43 0l84 591h259l-84 -591h-26l81 571h-208l-80 -571h-26z" />
    <glyph glyph-name="uni0420" unicode="&#x420;" horiz-adv-x="379" 
d="M43 0l84 591h164q44 0 72.5 -21.5t20.5 -75.5l-16 -113q-4 -30 -17 -56t-43 -42t-84 -16h-118l-38 -267h-25zM108 285h117q52 0 82.5 25.5t37.5 75.5l14 103q6 43 -16.5 63.5t-55.5 20.5h-139z" />
    <glyph glyph-name="uni0421" unicode="&#x421;" horiz-adv-x="402" 
d="M167 -12q-39 0 -68.5 9t-43.5 37t-6 86l50 349q8 58 30 85.5t54.5 36t71.5 8.5q40 0 69.5 -9t43.5 -36.5t6 -84.5l-13 -90h-24l12 88q8 51 -3.5 75.5t-36 32t-57.5 7.5q-34 0 -61 -7.5t-44.5 -32t-25.5 -75.5l-48 -346q-7 -51 3.5 -75.5t35.5 -32t58 -7.5q34 0 61 7.5
t45 32t25 75.5l9 70h24l-10 -71q-8 -59 -29.5 -87t-54 -36.5t-73.5 -8.5z" />
    <glyph glyph-name="uni0422" unicode="&#x422;" horiz-adv-x="262" 
d="M82 0l81 572h-105l3 19h237l-4 -19h-107l-81 -572h-24z" />
    <glyph glyph-name="uni0423" unicode="&#x423;" horiz-adv-x="320" 
d="M32 -4q-10 0 -18 1.5t-15 2.5l2 18q5 -1 12.5 -2t17.5 -1q13 0 27.5 5t28.5 18q11 10 23.5 24t10.5 33l-49 496h26l43 -461h-2l177 461h24l-182 -477q-25 -64 -52 -91t-74 -27z" />
    <glyph glyph-name="uni0424" unicode="&#x424;" horiz-adv-x="438" 
d="M172 -1l9 61h-17q-72 0 -102 33t-20 106l28 194q10 72 49 105.5t111 33.5h17l9 59h25l-9 -59h13q72 0 103.5 -31t20.5 -111l-26 -188q-11 -82 -51 -112t-114 -30h-12l-9 -61h-25zM167 78h16l62 436h-16q-58 0 -91.5 -29.5t-43.5 -94.5l-26 -188q-10 -65 15.5 -94.5
t83.5 -29.5zM220 78q59 0 94 26.5t45 98.5l26 185q11 71 -17 98.5t-87 27.5h-11l-62 -436h12z" />
    <glyph glyph-name="uni0425" unicode="&#x425;" horiz-adv-x="287" 
d="M-14 0l143 298l-48 293h23l47 -287l140 287h22l-142 -294l56 -297h-24l-54 288l-138 -288h-25z" />
    <glyph glyph-name="uni0426" unicode="&#x426;" horiz-adv-x="401" 
d="M281 -75l11 75h-249l83 591h26l-81 -571h208l80 571h26l-81 -572h14l-13 -94h-24z" />
    <glyph glyph-name="uni0427" unicode="&#x427;" horiz-adv-x="375" 
d="M237 0l24 170q-16 -12 -46.5 -23.5t-65.5 -11.5q-55 0 -78.5 18t-27 49t1.5 68l46 321h24l-46 -323q-7 -55 8.5 -83.5t76.5 -28.5q50 0 75.5 15t34.5 22l57 398h24l-84 -591h-24z" />
    <glyph glyph-name="uni0428" unicode="&#x428;" horiz-adv-x="642" 
d="M43 0l84 591h25l-81 -572h205l81 572h25l-81 -572h205l81 572h25l-84 -591h-485z" />
    <glyph glyph-name="uni0429" unicode="&#x429;" horiz-adv-x="592" 
d="M477 -75l11 75h-475l83 591h25l-81 -572h205l81 572h25l-81 -572h205l81 572h25l-81 -573h14l-13 -93h-24z" />
    <glyph glyph-name="uni042A" unicode="&#x42a;" horiz-adv-x="384" 
d="M38 0l81 571h-71l4 20h95l-22 -156h107q49 0 73.5 -15.5t30.5 -44.5t0 -71l-23 -163q-5 -35 -14.5 -61.5t-25.5 -44t-41 -26.5t-60 -9h-134zM66 18h107q43 0 66.5 16.5t34.5 45t15 63.5q6 38 11.5 76.5t10.5 76.5q5 31 3 58.5t-21 45t-66 17.5h-105q-13 -100 -27.5 -200
t-28.5 -199z" />
    <glyph glyph-name="uni042B" unicode="&#x42b;" horiz-adv-x="512" 
d="M43 0l83 589h24l-21 -154h107q50 0 74.5 -15.5t30.5 -44.5t0 -71l-23 -163q-5 -35 -14.5 -61.5t-25.5 -44t-41 -26.5t-60 -9h-134zM71 18h107q43 0 66.5 16.5t34.5 45t15 63.5q6 38 11.5 76.5t10.5 77.5q5 30 2.5 57.5t-21.5 45t-66 17.5h-105q-13 -100 -27 -200
t-28 -199zM374 0l84 591h24l-84 -591h-24z" />
    <glyph glyph-name="uni042C" unicode="&#x42c;" horiz-adv-x="368" 
d="M30 0l82 589h24l-21 -154h107q49 0 73.5 -15.5t31 -44.5t0.5 -71l-23 -163q-5 -35 -14.5 -61.5t-25.5 -44t-40.5 -26.5t-60.5 -9h-133zM56 18h107q55 0 81.5 29t36.5 94l21 156q5 30 2.5 57.5t-22 45t-65.5 17.5h-105z" />
    <glyph glyph-name="uni042D" unicode="&#x42d;" horiz-adv-x="408" 
d="M167 -12q-41 0 -71.5 8.5t-45 36.5t-6.5 88l11 72h25l-11 -76q-7 -49 4.5 -73t37 -31.5t58.5 -7.5t59.5 7.5t45 31.5t24.5 73l25 172h-169l2 20h169l22 158q7 49 -4 73t-35 32t-58 8t-61 -7t-45 -30t-25 -72l-13 -95h-25l12 91q9 57 31 85.5t54.5 37.5t72.5 9t70.5 -9
t44.5 -37t6 -86l-49 -346q-8 -58 -30 -86.5t-54.5 -37.5t-71.5 -9z" />
    <glyph glyph-name="uni042E" unicode="&#x42e;" horiz-adv-x="630" 
d="M384 -12q-39 0 -69 9t-44 37.5t-6 87.5l25 179h-180l-42 -301h-25l83 591h25l-37 -270h179l20 146q9 59 31 87t55 36.5t73 8.5t70 -9t44.5 -37t5.5 -86l-47 -345q-9 -60 -31.5 -88.5t-55.5 -37t-74 -8.5zM388 6q33 0 60 7.5t45 31t25 72.5l50 353q7 49 -5 72.5t-36.5 31
t-57.5 7.5q-32 0 -59 -7.5t-45.5 -31t-25.5 -72.5l-50 -353q-6 -49 5.5 -72.5t36 -31t57.5 -7.5z" />
    <glyph glyph-name="uni042F" unicode="&#x42f;" horiz-adv-x="416" 
d="M303 0h-24l40 287h-101q-38 0 -59.5 -27.5t-35.5 -58.5l-89 -201h-24l92 203q21 46 40 68.5t51 21.5l1 -2q-52 0 -83.5 25t-23.5 80l14 98q8 54 42.5 75.5t77.5 21.5h164zM321 304l39 269h-140q-33 0 -61 -20t-34 -63l-12 -86q-8 -55 15.5 -77.5t74.5 -22.5h118z" />
    <glyph glyph-name="uni0430" unicode="&#x430;" horiz-adv-x="350" 
d="M113 -8q-9 0 -26 2.5t-32.5 13t-24 34t-1.5 66.5l45 276q9 57 27.5 82.5t43.5 32t53 6.5q30 0 60.5 -10.5t37.5 -39.5l5 40h25l-70 -495h-25l13 93q-8 -21 -24 -44.5t-42 -40t-65 -16.5zM122 10q29 0 51 16t37.5 40t25.5 50.5t15.5 48t6.5 31.5l32 226q-2 7 -9 22.5
t-25.5 29.5t-58.5 14t-60.5 -15t-28.5 -40t-13 -56l-42 -271q-5 -34 1.5 -54t19.5 -28.5t26.5 -11t21.5 -2.5z" />
    <glyph glyph-name="uni0431" unicode="&#x431;" horiz-adv-x="352" 
d="M140 -7q-50 0 -75.5 16.5t-31.5 48t0 76.5l51 366q7 49 26 72.5t47 31.5t63 8q16 0 29 1.5t23 4t18 6t14 7t11 7.5q0 -4 -0.5 -8.5t-2.5 -12.5q0 -5 -23.5 -16t-63.5 -11h-18q-23 0 -43.5 -6.5t-35 -26.5t-21.5 -59l-14 -97q13 20 42 33.5t72 13.5q49 0 73.5 -16
t31 -45.5t0.5 -71.5l-25 -179q-5 -35 -14 -61.5t-25.5 -45t-42.5 -27.5t-65 -9zM142 11q47 0 71.5 17.5t35 46t15.5 61.5l24 174q5 31 2.5 57.5t-21.5 43.5t-66 17q-40 0 -64 -10.5t-35.5 -27t-15.5 -33.5t-6 -30l-26 -191q-5 -33 -2.5 -61.5t22 -46t66.5 -17.5z" />
    <glyph glyph-name="uni0432" unicode="&#x432;" horiz-adv-x="371" 
d="M29 0l70 495h153q46 0 75 -22t21 -78l-6 -38q-7 -50 -39.5 -73t-75.5 -23v3q47 0 74 -24.5t19 -80.5l-6 -38q-7 -52 -26 -78t-48 -34.5t-67 -8.5h-144zM55 18h117q32 0 56 8t40 30.5t22 67.5l5 33q5 39 -7.5 59t-36.5 27.5t-54 7.5h-108zM91 270h107q54 0 84 21.5
t36 65.5l6 41q5 38 -18.5 58t-58.5 20h-127z" />
    <glyph glyph-name="uni0433" unicode="&#x433;" horiz-adv-x="282" 
d="M29 0l70 495h215l-4 -20h-190l-66 -475h-25z" />
    <glyph glyph-name="uni0434" unicode="&#x434;" horiz-adv-x="471" 
d="M-17 -102l17 120h52q14 2 24.5 9.5t19 23.5t14.5 42l95 401h204l-66 -476h79l-18 -120h-23l14 101h-375l-14 -101h-23zM100 18h217l64 456h-156l-85 -358q-5 -23 -13.5 -52.5t-26.5 -45.5z" />
    <glyph glyph-name="uni0435" unicode="&#x435;" horiz-adv-x="336" 
d="M134 -9q-45 0 -70 11.5t-32.5 39.5t-0.5 79l37 264q10 69 44.5 93t97.5 24q72 0 95.5 -31t7.5 -104q-10 -44 -40.5 -70.5t-69.5 -41t-75.5 -21t-57.5 -9.5l-15 -105q-9 -61 6.5 -85t73.5 -24q59 0 81.5 24t30.5 85l7 53h24l-7 -52q-7 -51 -21.5 -79t-42 -39.5
t-73.5 -11.5zM73 247q26 3 59.5 9.5t66 20t56.5 36t32 56.5q14 56 -1 85.5t-75 29.5q-57 0 -84 -23t-35 -78z" />
    <glyph glyph-name="uni0436" unicode="&#x436;" horiz-adv-x="480" 
d="M-10 0l186 262l-114 233h27l110 -224h32l32 223h24l-32 -223h32l173 224h29l-181 -233l112 -262h-27l-109 253h-31l-36 -253h-24l36 253h-32l-180 -253h-27z" />
    <glyph glyph-name="uni0437" unicode="&#x437;" horiz-adv-x="393" 
d="M158 0q-67 0 -89.5 33t-15.5 91l6 46h24l-6 -47q-7 -51 13 -77t71 -26q55 0 83 24.5t35 72.5l7 50q6 45 -20.5 68.5t-79.5 23.5h-76l3 20h82q21 0 45.5 9t40.5 26q12 14 18.5 26t8.5 29l4 29q6 44 -16.5 66.5t-69.5 22.5q-54 0 -78 -23t-29 -60l-5 -39h-23l4 29
q8 52 38.5 82t94.5 30q65 0 90 -31.5t17 -87.5l-2 -14q-5 -35 -30 -63.5t-66 -40.5q42 -9 60.5 -36t11.5 -71l-5 -34q-9 -61 -43 -94.5t-103 -33.5z" />
    <glyph glyph-name="uni0438" unicode="&#x438;" horiz-adv-x="380" 
d="M29 0l70 494h24l-63 -447l266 447h25l-70 -494h-23l63 450q-67 -113 -133 -225t-135 -225h-24z" />
    <glyph glyph-name="uni0439" unicode="&#x439;" horiz-adv-x="380" 
d="M29 0l70 494h24l-63 -447l266 447h25l-70 -494h-23l63 450q-67 -113 -133 -225t-135 -225h-24zM231 543q-24 0 -39.5 8t-23.5 20.5t-11 26.5t-2 26h19q1 -32 17 -48t43 -16q29 0 50 15.5t29 48.5h19q-4 -16 -16 -35t-32.5 -32.5t-52.5 -13.5z" />
    <glyph glyph-name="uni043A" unicode="&#x43a;" horiz-adv-x="320" 
d="M29 0l70 495h24l-35 -250q38 66 84 117t89 81t71 34l-2 -20q-28 -9 -55.5 -27t-51.5 -43q-19 -17 -35 -37t-32 -41l106 -309h-27l-99 285q-16 -21 -31.5 -45.5t-22.5 -35.5l-29 -204h-24z" />
    <glyph glyph-name="uni043B" unicode="&#x43b;" horiz-adv-x="374" 
d="M-15 0l3 18q14 0 24.5 7t18.5 23.5t14 43.5l90 402h210l-70 -494h-25l67 474h-161l-89 -391q-3 -10 -8 -24t-13.5 -27.5t-22 -22.5t-31.5 -9h-7z" />
    <glyph glyph-name="uni043C" unicode="&#x43c;" horiz-adv-x="452" 
d="M14 0l70 495h23l91 -458l220 458h20l-70 -495h-23l58 414l-200 -414h-23l-83 414l-59 -414h-24z" />
    <glyph glyph-name="uni043D" unicode="&#x43d;" horiz-adv-x="352" 
d="M14 0l70 495h24l-32 -223h206l32 223h24l-70 -495h-24l36 252h-206l-36 -252h-24z" />
    <glyph glyph-name="uni043E" unicode="&#x43e;" horiz-adv-x="340" 
d="M135 -7q-43 0 -66 11.5t-32 30.5t-8.5 42.5t3.5 47.5l34 247q5 32 16 62t39.5 49.5t85.5 19.5q42 0 65 -11.5t31.5 -30.5t8 -42t-3.5 -47l-34 -247q-4 -32 -15.5 -62.5t-39.5 -50t-84 -19.5zM137 13q46 0 69 17.5t32 44.5t13 55l33 237q4 28 3 54.5t-19 44t-64 17.5
t-69 -17.5t-32 -44t-13 -54.5l-33 -237q-4 -28 -3 -55t19 -44.5t64 -17.5z" />
    <glyph glyph-name="uni043F" unicode="&#x43f;" horiz-adv-x="355" 
d="M14 0l70 495h257l-70 -495h-24l67 475h-209l-67 -475h-24z" />
    <glyph glyph-name="uni0440" unicode="&#x440;" horiz-adv-x="356" 
d="M14 -116l85 611h18l-3 -47q13 23 36.5 38.5t72.5 15.5q56 0 78.5 -19.5t25 -49t-2.5 -61.5l-35 -247q-4 -32 -14.5 -62.5t-38.5 -50t-84 -19.5q-40 0 -63 11.5t-31 29.5l-21 -150h-23zM153 13q50 0 72.5 18t30 45.5t11.5 55.5l32 231q3 21 4.5 42.5t-4 39t-24 28
t-56.5 10.5t-60 -14t-33.5 -36t-16.5 -48t-8 -50l-30 -212q-4 -29 -2.5 -54.5t20 -40.5t64.5 -15z" />
    <glyph glyph-name="uni0441" unicode="&#x441;" horiz-adv-x="334" 
d="M134 -9q-34 0 -56.5 6t-34.5 20.5t-14.5 40t2.5 63.5l37 264q10 69 40 94.5t98 25.5q67 0 89.5 -25.5t12.5 -94.5l-8 -58h-24l8 57q8 54 -7 78.5t-74 24.5q-58 0 -80.5 -24.5t-30.5 -78.5l-37 -265q-8 -60 7 -84t73 -24q59 0 81 24t31 84l8 54h24l-7 -52q-7 -51 -22 -79
t-43 -39.5t-73 -11.5z" />
    <glyph glyph-name="uni0442" unicode="&#x442;" horiz-adv-x="274" 
d="M89 0l66 475h-113l4 20h253l-4 -20h-115l-66 -475h-25z" />
    <glyph glyph-name="uni0443" unicode="&#x443;" horiz-adv-x="321" 
d="M-42 -116q-10 0 -20.5 1t-17.5 3l4 22q7 -2 14.5 -3t17.5 -1q55 0 103.5 29.5t89.5 80t70 113.5q22 47 39 102.5t26.5 112t9.5 106.5q0 16 -1 27.5t-3 17.5h26q3 -18 3 -41q0 -50 -11 -112t-30 -124t-43 -112q-29 -60 -72 -110.5t-95 -81t-110 -30.5zM76 -57l-22 552h25
l21 -549z" />
    <glyph glyph-name="uni0444" unicode="&#x444;" horiz-adv-x="584" 
d="M228 -116l24 164q-15 -25 -42.5 -40t-74.5 -15q-71 0 -91 37.5t-10 105.5l27 196q6 42 20 72t43 46t79 16q44 0 68 -15t31 -42l26 182h24l-26 -180q15 26 43.5 40.5t71.5 14.5q50 0 74.5 -16t30.5 -46t0 -72l-27 -196q-10 -68 -40 -105.5t-101 -37.5q-46 0 -70 15t-32 41
l-24 -165h-24zM140 11q47 0 72 19.5t36.5 48t14.5 54.5l27 190q4 27 2 56t-21.5 49t-68.5 20q-46 0 -70 -17.5t-33.5 -44.5t-13.5 -58l-27 -191q-5 -34 -2 -62.5t22 -46t62 -17.5zM378 11q43 0 66.5 17.5t34.5 46t16 62.5l27 191q4 31 2 58t-21 44.5t-65 17.5
q-45 0 -70.5 -18t-36.5 -44t-15 -52l-28 -199q-4 -27 -0.5 -55.5t24 -48.5t66.5 -20z" />
    <glyph glyph-name="uni0445" unicode="&#x445;" horiz-adv-x="286" 
d="M-22 0q9 38 29.5 79.5t45.5 80t48 66.5t36 38q-15 12 -30 38.5t-26 61t-16.5 69.5t-2.5 62h24q-2 -38 6.5 -81.5t24.5 -78.5t34 -50q12 6 31.5 31t39.5 58.5t35.5 66t19.5 54.5h24q-8 -32 -26 -69t-39.5 -71.5t-41.5 -59t-31 -31.5q12 -7 26.5 -33t28 -64t22 -81.5
t7.5 -85.5h-24q1 34 -6 72t-19 73t-25 60.5t-24 34.5q-12 -9 -39.5 -41.5t-57.5 -83t-50 -115.5h-24z" />
    <glyph glyph-name="uni0446" unicode="&#x446;" horiz-adv-x="398" 
d="M287 -66l9 66h-266l69 495h24l-66 -476h206l66 476h24l-67 -477h36l-12 -84h-23z" />
    <glyph glyph-name="uni0447" unicode="&#x447;" horiz-adv-x="326" 
d="M203 0l29 207q-12 -22 -39 -39t-66 -17q-49 0 -70 18t-24 48.5t2 68.5l30 209h24l-31 -211q-7 -55 6.5 -84t68.5 -29q44 0 69 24t35 47l35 253h25l-70 -495h-24z" />
    <glyph glyph-name="uni0448" unicode="&#x448;" horiz-adv-x="532" 
d="M29 0l70 495h24l-67 -476h166l67 476h24l-67 -476h166l67 476h24l-70 -495h-404z" />
    <glyph glyph-name="uni0449" unicode="&#x449;" horiz-adv-x="569" 
d="M438 -66l9 66h-417l69 495h25l-66 -475h165l66 475h25l-66 -475h165l66 475h25l-66 -476h34l-11 -85h-23z" />
    <glyph glyph-name="uni044A" unicode="&#x44a;" horiz-adv-x="373" 
d="M39 0l67 476h-71l4 19h95l-22 -156h107q49 0 73.5 -15.5t30.5 -44.5t0 -71l-9 -67q-5 -35 -14.5 -61.5t-26 -44t-41 -26.5t-60.5 -9h-133zM66 18h107q43 0 66.5 16.5t34.5 44.5t16 62l8 60q5 30 3 57.5t-20.5 45t-65.5 17.5h-105z" />
    <glyph glyph-name="uni044B" unicode="&#x44b;" horiz-adv-x="519" 
d="M29 0l70 492h24l-22 -153h107q54 0 77.5 -17t28 -46.5t-0.5 -67.5l-6 -43q-5 -36 -13.5 -66.5t-24 -52.5t-41 -34t-66.5 -12h-133zM56 18h107q44 0 67.5 16.5t34 44.5t14.5 62l9 60q4 30 2 57.5t-20.5 45t-65.5 17.5h-105zM397 0l70 495h23l-70 -495h-23z" />
    <glyph glyph-name="uni044C" unicode="&#x44c;" horiz-adv-x="368" 
d="M29 0l70 492h24l-22 -153h107q54 0 77.5 -17t28 -46.5t-0.5 -67.5l-6 -43q-5 -36 -13.5 -66.5t-24 -52.5t-41 -34t-66.5 -12h-133zM56 18h107q44 0 67.5 16.5t34 44.5t14.5 62l9 60q4 30 2 57.5t-20.5 45t-65.5 17.5h-105z" />
    <glyph glyph-name="uni044D" unicode="&#x44d;" horiz-adv-x="353" 
d="M143 -7q-45 0 -70 10.5t-34.5 29.5t-10 43.5t3.5 52.5l6 43h24l-5 -38q-4 -33 -2.5 -61t21 -45t69.5 -17q51 0 74.5 18t32 46t12.5 57l15 110h-158l2 18h158l15 103q3 21 4.5 42.5t-5 39.5t-26 29t-57.5 11q-50 0 -74.5 -17t-34 -45t-14.5 -62l-5 -37h-24l6 43
q5 37 16.5 67.5t42 49.5t90.5 19q45 0 68.5 -12t32.5 -31.5t8.5 -43t-3.5 -47.5l-34 -242q-4 -32 -15 -63t-40 -51t-89 -20z" />
    <glyph glyph-name="uni044E" unicode="&#x44e;" horiz-adv-x="570" 
d="M364 -7q-43 0 -66 11.5t-31.5 30.5t-8.5 42.5t4 47.5l34 247q5 32 15.5 62t39 49.5t85.5 19.5q42 0 65 -11.5t32 -30.5t8.5 -42t-3.5 -47l-34 -247q-5 -32 -16 -62.5t-39 -50t-85 -19.5zM14 0l70 495h24l-32 -223h208l-2 -20h-208l-36 -252h-24zM366 11q46 0 69 17.5
t32.5 45t13.5 56.5l33 238q4 28 2.5 55t-19 44.5t-63.5 17.5t-69 -17.5t-32 -44.5t-13 -55l-34 -238q-4 -29 -3 -56.5t19 -45t64 -17.5z" />
    <glyph glyph-name="uni044F" unicode="&#x44f;" horiz-adv-x="371" 
d="M14 0l91 179q13 26 30 45t38 21q-50 2 -73 31t-16 85l5 34q8 56 43 78t80 22h144l-70 -495h-25l34 242l-86 -1q-28 -1 -48.5 -24.5t-40.5 -61.5l-77 -155h-29zM203 260h95l30 216h-124q-31 0 -58 -19t-33 -60l-5 -38q-7 -52 18.5 -75.5t76.5 -23.5z" />
    <glyph glyph-name="uni0450" unicode="&#x450;" horiz-adv-x="336" 
d="M134 -9q-45 0 -70 11.5t-32.5 39.5t-0.5 79l37 264q10 69 44.5 93t97.5 24q72 0 95.5 -31t7.5 -104q-10 -44 -40.5 -70.5t-69.5 -41t-75.5 -21t-57.5 -9.5l-15 -105q-9 -61 6.5 -85t73.5 -24q59 0 81.5 24t30.5 85l7 53h24l-7 -52q-7 -51 -21.5 -79t-42 -39.5
t-73.5 -11.5zM73 247q26 3 59.5 9.5t66 20t56.5 36t32 56.5q14 56 -1 85.5t-75 29.5q-57 0 -84 -23t-35 -78zM218 544l-61 87h32l44 -87h-15z" />
    <glyph glyph-name="uni0451" unicode="&#x451;" horiz-adv-x="336" 
d="M134 -9q-45 0 -70 11.5t-32.5 39.5t-0.5 79l37 264q10 69 44.5 93t97.5 24q72 0 95.5 -31t7.5 -104q-10 -44 -40.5 -70.5t-69.5 -41t-75.5 -21t-57.5 -9.5l-15 -105q-9 -61 6.5 -85t73.5 -24q59 0 81.5 24t30.5 85l7 53h24l-7 -52q-7 -51 -21.5 -79t-42 -39.5
t-73.5 -11.5zM73 247q26 3 59.5 9.5t66 20t56.5 36t32 56.5q14 56 -1 85.5t-75 29.5q-57 0 -84 -23t-35 -78zM174 561q-9 0 -15.5 6.5t-6.5 15.5t6.5 15t15.5 6t15.5 -6t6.5 -15t-6.5 -15.5t-15.5 -6.5zM254 561q-9 0 -15.5 6.5t-6.5 15.5t6.5 15t15.5 6t15.5 -6t6.5 -15
t-6.5 -15.5t-15.5 -6.5z" />
    <glyph glyph-name="uni0452" unicode="&#x452;" horiz-adv-x="378" 
d="M167 -94q-17 0 -30.5 4t-24.5 10q3 4 5 8t6 8q8 -5 18.5 -8.5t27.5 -3.5q53 0 75 37.5t32 104.5l36 255q2 28 -3.5 49.5t-25 34.5t-58.5 13q-45 0 -69.5 -17t-36 -42.5t-15 -51.5t-6.5 -44l-38 -263h-24l76 535h-55l3 18h54l11 77h24l-11 -77h100l-2 -18h-100l-23 -159
q15 26 45 42.5t71 16.5q50 0 74 -16t30.5 -45.5t0.5 -70.5l-34 -239q-7 -55 -21.5 -87t-32.5 -47t-38.5 -19.5t-40.5 -4.5z" />
    <glyph glyph-name="uni0453" unicode="&#x453;" horiz-adv-x="282" 
d="M29 0l70 495h215l-4 -20h-190l-66 -475h-25zM192 544l62 87h32l-79 -87h-15z" />
    <glyph glyph-name="uni0454" unicode="&#x454;" horiz-adv-x="353" 
d="M139 -7q-45 0 -69 11.5t-33 31t-8.5 43.5t3.5 48l34 242q5 32 15.5 62.5t40 51t89.5 20.5t84.5 -19t27.5 -49.5t-2 -67.5l-6 -43h-24l5 37q5 34 3.5 62t-21 45t-70.5 17q-50 0 -74 -18.5t-32.5 -46.5t-12.5 -57l-14 -103h158l-2 -18h-159l-15 -110q-3 -22 -4 -43.5
t5.5 -39t25.5 -28t57 -10.5q50 0 74.5 17t34.5 45t14 61l5 38h24l-6 -43q-5 -37 -16.5 -68t-41.5 -49.5t-90 -18.5z" />
    <glyph glyph-name="uni0455" unicode="&#x455;" horiz-adv-x="333" 
d="M133 -6q-46 0 -69.5 12t-31.5 31.5t-6.5 43t4.5 46.5l5 39h24l-5 -38q-4 -30 -4.5 -56t17.5 -42t68 -16q45 0 67 16t30.5 39.5t11.5 43.5l3 21q4 25 -2 45t-23.5 36t-50.5 29q-34 15 -58 31t-34.5 39.5t-6.5 59.5l4 31q4 30 19 52.5t43 35t69 12.5q40 0 64 -11.5
t33 -38.5t2 -72l-7 -46h-23l6 43q8 61 -11.5 83t-65.5 22q-55 0 -78 -25t-28 -61l-3 -20q-4 -31 4.5 -51.5t30.5 -35.5t57 -31q29 -13 49.5 -27t29.5 -38t4 -67l-2 -17q-3 -27 -14.5 -54t-39.5 -45.5t-82 -18.5z" />
    <glyph glyph-name="uni0456" unicode="&#x456;" horiz-adv-x="151" 
d="M29 0l70 495h23l-70 -495h-23zM126 561q-9 0 -15.5 6.5t-6.5 15.5t6.5 15t15.5 6t15.5 -6t6.5 -15t-6.5 -15.5t-15.5 -6.5z" />
    <glyph glyph-name="uni0457" unicode="&#x457;" horiz-adv-x="151" 
d="M29 0l70 495h23l-70 -495h-23zM85 561q-9 0 -15.5 6.5t-6.5 15.5t6.5 15t15.5 6t15.5 -6t6.5 -15t-6.5 -15.5t-15.5 -6.5zM165 561q-9 0 -15.5 6.5t-6.5 15.5t6.5 15t15.5 6t15.5 -6t6.5 -15t-6.5 -15.5t-15.5 -6.5z" />
    <glyph glyph-name="uni0458" unicode="&#x458;" horiz-adv-x="127" 
d="M-91 -110q-4 0 -10.5 0.5t-8.5 1.5l3 16q0 -1 6.5 -1.5t13.5 -0.5q42 0 68 13t33 59l72 517h23l-73 -518q-5 -39 -23 -57.5t-45 -24t-59 -5.5zM111 561q-9 0 -15.5 6.5t-6.5 15.5t6.5 15t15.5 6t15.5 -6t6.5 -15t-6.5 -15.5t-15.5 -6.5z" />
    <glyph glyph-name="uni0459" unicode="&#x459;" horiz-adv-x="583" 
d="M-15 0l3 18q14 0 24.5 7t18.5 23.5t14 43.5l90 402h210l-22 -155h106q54 0 77.5 -17t28 -46.5t-1.5 -67.5l-6 -43q-5 -36 -13 -66.5t-23.5 -52.5t-41 -34t-66.5 -12h-133l67 474h-161l-89 -391q-3 -10 -8 -24t-13.5 -27.5t-22 -22.5t-31.5 -9h-7zM278 18h106
q44 0 67 16.5t34 44.5t15 62l9 60q4 30 2 57.5t-20.5 45t-65.5 17.5h-104z" />
    <glyph glyph-name="uni045A" unicode="&#x45a;" horiz-adv-x="577" 
d="M14 0l70 495h24l-32 -223h206l32 223h24l-22 -156h107q53 0 77 -17t28.5 -46.5t-1.5 -67.5l-6 -43q-5 -36 -13 -66.5t-23.5 -52.5t-41.5 -34t-67 -12h-132l36 252h-206l-36 -252h-24zM270 18h107q43 0 66.5 16.5t34.5 44.5t16 62l8 60q5 30 3 57.5t-20.5 45t-65.5 17.5
h-105z" />
    <glyph glyph-name="uni045B" unicode="&#x45b;" horiz-adv-x="399" 
d="M50 0l75 535h-45l2 18h45l11 77h25l-10 -77h108l-2 -18h-109l-21 -151q15 26 44.5 43t70.5 17q49 0 73.5 -16t30.5 -46t0 -71l-43 -311h-25l43 305q5 31 3 58.5t-20.5 45t-65.5 17.5q-45 0 -69.5 -17t-35.5 -42t-15 -51.5t-7 -46.5l-38 -269h-25z" />
    <glyph glyph-name="uni045C" unicode="&#x45c;" horiz-adv-x="320" 
d="M29 0l70 495h24l-35 -250q38 66 84 117t89 81t71 34l-2 -20q-28 -9 -55.5 -27t-51.5 -43q-19 -17 -35 -37t-32 -41l106 -309h-27l-99 285q-16 -21 -31.5 -45.5t-22.5 -35.5l-29 -204h-24zM203 544l62 87h32l-79 -87h-15z" />
    <glyph glyph-name="uni045D" unicode="&#x45d;" horiz-adv-x="380" 
d="M29 0l70 494h24l-63 -447l266 447h25l-70 -494h-23l63 450q-67 -113 -133 -225t-135 -225h-24zM240 544l-61 87h32l44 -87h-15z" />
    <glyph glyph-name="uni045E" unicode="&#x45e;" horiz-adv-x="321" 
d="M-42 -116q-10 0 -20.5 1t-17.5 3l4 22q7 -2 14.5 -3t17.5 -1q55 0 103.5 29.5t89.5 80t70 113.5q22 47 39 102.5t26.5 112t9.5 106.5q0 16 -1 27.5t-3 17.5h26q3 -18 3 -41q0 -50 -11 -112t-30 -124t-43 -112q-29 -60 -72 -110.5t-95 -81t-110 -30.5zM76 -57l-22 552h25
l21 -549zM185 543q-24 0 -39.5 8t-23.5 20.5t-11 26.5t-2 26h19q1 -32 17 -48t43 -16q29 0 50 15.5t29 48.5h19q-4 -16 -16 -35t-32.5 -32.5t-52.5 -13.5z" />
    <glyph glyph-name="uni045F" unicode="&#x45f;" horiz-adv-x="385" 
d="M130 -113l16 113h-117l70 495h24l-67 -476h207l68 476h25l-70 -495h-118l-16 -113h-22z" />
    <glyph glyph-name="uni0462" unicode="&#x462;" horiz-adv-x="432" 
d="M89 0l82 589h24l-21 -154h107q49 0 73.5 -15.5t31 -44.5t0.5 -71l-23 -163q-5 -35 -14.5 -61.5t-25.5 -44t-40.5 -26.5t-60.5 -9h-133zM115 18h107q43 0 67 16.5t35 45t16 63.5l21 154q4 30 2 57.5t-21 45t-66 17.5h-105q-13 -100 -27.5 -200t-28.5 -199zM62 519l7 21
h278l-5 -21h-280z" />
    <glyph glyph-name="uni0463" unicode="&#x463;" horiz-adv-x="387" 
d="M49 0l70 492h24l-22 -153h107q54 0 77.5 -17t28 -46.5t-0.5 -67.5l-6 -43q-5 -36 -13.5 -66.5t-24 -52.5t-41 -34t-66.5 -12h-133zM77 18h106q44 0 67.5 16.5t34 44.5t14.5 62l9 60q4 30 2 57.5t-20.5 45t-65.5 17.5h-105zM33 400l3 20h202l-2 -20h-203z" />
    <glyph glyph-name="uni046A" unicode="&#x46a;" horiz-adv-x="641" 
d="M3 0l97 226q11 24 25 47t35 37.5t53 14.5h88l-239 246l3 20h607l-3 -20l-309 -246h86q36 0 53 -14.5t24 -37.5t10 -47l33 -226h-25l-30 223q-3 21 -9.5 41t-20.5 33t-40 13h-101l-44 -310h-23l44 310h-101q-38 -1 -59 -28t-35 -59l-94 -223h-25zM331 328l306 243h-544z
" />
    <glyph glyph-name="uni046B" unicode="&#x46b;" horiz-adv-x="657" 
d="M8 0l82 189q12 31 33 57t61 26h74l-200 207l2 16h508l-2 -16l-259 -207h72q30 0 44.5 -12t20.5 -31t9 -40l27 -189h-21l-25 187q-4 26 -15.5 48.5t-43.5 23.5l-84 1l-37 -260h-20l37 260l-85 -1q-31 0 -49 -23t-29 -49l-79 -187h-21zM284 275l256 204h-456z" />
    <glyph glyph-name="Wgrave" unicode="&#x1e80;" horiz-adv-x="513" 
d="M85 0l-12 591h22l12 -549l189 549h17l33 -548l168 548h22l-180 -591h-27l-33 526l-182 -526h-29zM321 633l-93 75h34l81 -75h-22z" />
    <glyph glyph-name="wgrave" unicode="&#x1e81;" horiz-adv-x="544" 
d="M314 0l-23 471h24l22 -439q5 3 22.5 25t41.5 56t47 74t39 79q20 49 28 89.5t5.5 75.5t-16.5 64h26q15 -26 15.5 -67t-10 -86.5t-28.5 -86.5q-19 -43 -44.5 -86.5t-51.5 -79.5t-45.5 -60t-26.5 -29h-25zM69 0l-20 495h24l21 -495h-25zM70 0l220 471l22 -7l-217 -464h-25z
M322 544l-61 87h32l44 -87h-15z" />
    <glyph glyph-name="Wacute" unicode="&#x1e82;" horiz-adv-x="513" 
d="M85 0l-12 591h22l12 -549l189 549h17l33 -548l168 548h22l-180 -591h-27l-33 526l-182 -526h-29zM261 633l91 75h34l-103 -75h-22z" />
    <glyph glyph-name="wacute" unicode="&#x1e83;" horiz-adv-x="544" 
d="M314 0l-23 471h24l22 -439q5 3 22.5 25t41.5 56t47 74t39 79q20 49 28 89.5t5.5 75.5t-16.5 64h26q15 -26 15.5 -67t-10 -86.5t-28.5 -86.5q-19 -43 -44.5 -86.5t-51.5 -79.5t-45.5 -60t-26.5 -29h-25zM69 0l-20 495h24l21 -495h-25zM70 0l220 471l22 -7l-217 -464h-25z
M287 544l62 87h32l-79 -87h-15z" />
    <glyph glyph-name="Wdieresis" unicode="&#x1e84;" horiz-adv-x="513" 
d="M85 0l-12 591h22l12 -549l189 549h17l33 -548l168 548h22l-180 -591h-27l-33 526l-182 -526h-29zM275 626q-9 0 -15.5 6.5t-6.5 15.5t6.5 15t15.5 6t15.5 -6t6.5 -15t-6.5 -15.5t-15.5 -6.5zM355 626q-9 0 -15.5 6.5t-6.5 15.5t6.5 15t15.5 6t15.5 -6t6.5 -15t-6.5 -15.5
t-15.5 -6.5z" />
    <glyph glyph-name="wdieresis" unicode="&#x1e85;" horiz-adv-x="544" 
d="M314 0l-23 471h24l22 -439q5 3 22.5 25t41.5 56t47 74t39 79q20 49 28 89.5t5.5 75.5t-16.5 64h26q15 -26 15.5 -67t-10 -86.5t-28.5 -86.5q-19 -43 -44.5 -86.5t-51.5 -79.5t-45.5 -60t-26.5 -29h-25zM69 0l-20 495h24l21 -495h-25zM70 0l220 471l22 -7l-217 -464h-25z
M278 561q-9 0 -15.5 6.5t-6.5 15.5t6.5 15t15.5 6t15.5 -6t6.5 -15t-6.5 -15.5t-15.5 -6.5zM358 561q-9 0 -15.5 6.5t-6.5 15.5t6.5 15t15.5 6t15.5 -6t6.5 -15t-6.5 -15.5t-15.5 -6.5z" />
    <glyph glyph-name="uni1E9E" unicode="&#x1e9e;" horiz-adv-x="347" 
d="M24 -59l83 591q3 21 10 34.5t32 19.5t81 6q63 0 91.5 -21.5t20.5 -76.5l-8 -56q-6 -42 -25 -68t-39 -28l-1 -4q14 -2 27 -13t20 -31t3 -50l-17 -123q-7 -52 -25 -78t-45 -34.5t-62 -8.5h-79l2 19h79q28 0 49.5 8t36.5 31t21 69l16 112q5 36 -7 56t-35 27.5t-51 7.5h-45
l3 19h56q50 0 70 26t26 70l7 47q5 41 -16 61.5t-70 20.5q-47 0 -67.5 -3.5t-26.5 -13.5t-9 -30l-82 -586h-24z" />
    <glyph glyph-name="uni1EA0" unicode="&#x1ea0;" horiz-adv-x="352" 
d="M-18 0l233 591h20l64 -591h-24l-18 158h-189l-63 -158h-23zM73 175h183l-40 359zM141 -92q-9 0 -15.5 6.5t-6.5 15.5t6.5 15t15.5 6t15.5 -6t6.5 -15t-6.5 -15.5t-15.5 -6.5z" />
    <glyph glyph-name="uni1EA1" unicode="&#x1ea1;" horiz-adv-x="350" 
d="M113 -8q-9 0 -26 2.5t-32.5 13t-24 34t-1.5 66.5l45 276q9 57 27.5 82.5t43.5 32t53 6.5q30 0 60.5 -10.5t37.5 -39.5l5 40h25l-70 -495h-25l13 93q-8 -21 -24 -44.5t-42 -40t-65 -16.5zM122 10q29 0 51 16t37.5 40t25.5 50.5t15.5 48t6.5 31.5l32 226q-2 7 -9 22.5
t-25.5 29.5t-58.5 14t-60.5 -15t-28.5 -40t-13 -56l-42 -271q-5 -34 1.5 -54t19.5 -28.5t26.5 -11t21.5 -2.5zM130 -92q-9 0 -15.5 6.5t-6.5 15.5t6.5 15t15.5 6t15.5 -6t6.5 -15t-6.5 -15.5t-15.5 -6.5z" />
    <glyph glyph-name="uni1EA2" unicode="&#x1ea2;" horiz-adv-x="352" 
d="M-18 0l233 591h20l64 -591h-24l-18 158h-189l-63 -158h-23zM73 175h183l-40 359zM220 620l2 19q2 14 14 18.5t23.5 10.5t11.5 22v3q0 13 -5 24.5t-24 11.5q-25 0 -34 -25l-17 4q7 17 20 26.5t35 9.5q26 0 34.5 -14t8.5 -38v-2q0 -18 -7.5 -26.5t-18 -12.5t-18.5 -7.5
t-8 -10.5l-1 -13h-16z" />
    <glyph glyph-name="uni1EA3" unicode="&#x1ea3;" horiz-adv-x="350" 
d="M113 -8q-9 0 -26 2.5t-32.5 13t-24 34t-1.5 66.5l45 276q9 57 27.5 82.5t43.5 32t53 6.5q30 0 60.5 -10.5t37.5 -39.5l5 40h25l-70 -495h-25l13 93q-8 -21 -24 -44.5t-42 -40t-65 -16.5zM122 10q29 0 51 16t37.5 40t25.5 50.5t15.5 48t6.5 31.5l32 226q-2 7 -9 22.5
t-25.5 29.5t-58.5 14t-60.5 -15t-28.5 -40t-13 -56l-42 -271q-5 -34 1.5 -54t19.5 -28.5t26.5 -11t21.5 -2.5zM212 540l2 19q2 14 14 18.5t23.5 10.5t11.5 22v3q0 13 -5 24.5t-24 11.5q-25 0 -34 -25l-17 4q7 17 20 26.5t35 9.5q26 0 34.5 -14t8.5 -38v-2q0 -18 -7.5 -26.5
t-18 -12.5t-18.5 -7.5t-8 -10.5l-1 -13h-16z" />
    <glyph glyph-name="uni1EA4" unicode="&#x1ea4;" horiz-adv-x="352" 
d="M-18 0l233 591h20l64 -591h-24l-18 158h-189l-63 -158h-23zM73 175h183l-40 359zM159 627l69 59h21l51 -59h-20l-44 43l-56 -43h-21zM301 662l44 62h28l-57 -62h-15z" />
    <glyph glyph-name="uni1EA5" unicode="&#x1ea5;" horiz-adv-x="350" 
d="M113 -8q-9 0 -26 2.5t-32.5 13t-24 34t-1.5 66.5l45 276q9 57 27.5 82.5t43.5 32t53 6.5q30 0 60.5 -10.5t37.5 -39.5l5 40h25l-70 -495h-25l13 93q-8 -21 -24 -44.5t-42 -40t-65 -16.5zM122 10q29 0 51 16t37.5 40t25.5 50.5t15.5 48t6.5 31.5l32 226q-2 7 -9 22.5
t-25.5 29.5t-58.5 14t-60.5 -15t-28.5 -40t-13 -56l-42 -271q-5 -34 1.5 -54t19.5 -28.5t26.5 -11t21.5 -2.5zM127 547l97 82h25l73 -82h-21l-68 65l-84 -65h-22zM324 596l62 87h32l-79 -87h-15z" />
    <glyph glyph-name="uni1EA6" unicode="&#x1ea6;" horiz-adv-x="352" 
d="M-18 0l233 591h20l64 -591h-24l-18 158h-189l-63 -158h-23zM73 175h183l-40 359zM159 627l69 59h21l51 -59h-20l-44 43l-56 -43h-21zM325 662l-44 62h29l30 -62h-15z" />
    <glyph glyph-name="uni1EA7" unicode="&#x1ea7;" horiz-adv-x="350" 
d="M113 -8q-9 0 -26 2.5t-32.5 13t-24 34t-1.5 66.5l45 276q9 57 27.5 82.5t43.5 32t53 6.5q30 0 60.5 -10.5t37.5 -39.5l5 40h25l-70 -495h-25l13 93q-8 -21 -24 -44.5t-42 -40t-65 -16.5zM122 10q29 0 51 16t37.5 40t25.5 50.5t15.5 48t6.5 31.5l32 226q-2 7 -9 22.5
t-25.5 29.5t-58.5 14t-60.5 -15t-28.5 -40t-13 -56l-42 -271q-5 -34 1.5 -54t19.5 -28.5t26.5 -11t21.5 -2.5zM127 547l97 82h25l73 -82h-21l-68 65l-84 -65h-22zM359 596l-61 87h32l44 -87h-15z" />
    <glyph glyph-name="uni1EA8" unicode="&#x1ea8;" horiz-adv-x="352" 
d="M-18 0l233 591h20l64 -591h-24l-18 158h-189l-63 -158h-23zM73 175h183l-40 359zM159 627l69 59h21l51 -59h-20l-44 43l-56 -43h-21zM312 659l2 13q2 10 10 13.5t16 7.5t8 15v3q0 6 -2.5 15t-16.5 9q-17 0 -23 -17l-15 3q5 12 15 19t26 7q20 0 26 -10.5t6 -26.5v-2
q0 -13 -5.5 -19t-12.5 -8.5t-12.5 -5t-5.5 -7.5v-9h-16z" />
    <glyph glyph-name="uni1EA9" unicode="&#x1ea9;" horiz-adv-x="350" 
d="M113 -8q-9 0 -26 2.5t-32.5 13t-24 34t-1.5 66.5l45 276q9 57 27.5 82.5t43.5 32t53 6.5q30 0 60.5 -10.5t37.5 -39.5l5 40h25l-70 -495h-25l13 93q-8 -21 -24 -44.5t-42 -40t-65 -16.5zM122 10q29 0 51 16t37.5 40t25.5 50.5t15.5 48t6.5 31.5l32 226q-2 7 -9 22.5
t-25.5 29.5t-58.5 14t-60.5 -15t-28.5 -40t-13 -56l-42 -271q-5 -34 1.5 -54t19.5 -28.5t26.5 -11t21.5 -2.5zM127 547l97 82h25l73 -82h-21l-68 65l-84 -65h-22zM339 592l2 19q2 14 14 18.5t23.5 10.5t11.5 22v3q0 13 -5 24.5t-24 11.5q-25 0 -34 -25l-17 4q7 17 20 26.5
t35 9.5q26 0 34.5 -14t8.5 -38v-2q0 -18 -7.5 -26.5t-18 -12.5t-18.5 -7.5t-8 -10.5l-1 -13h-16z" />
    <glyph glyph-name="uni1EAA" unicode="&#x1eaa;" horiz-adv-x="352" 
d="M-18 0l233 591h20l64 -591h-24l-18 158h-189l-63 -158h-23zM73 175h183l-40 359zM159 627l69 59h21l51 -59h-20l-44 43l-56 -43h-21zM265 702q-8 0 -13.5 2.5t-13.5 9.5q-5 4 -11.5 8.5t-15.5 4.5q-8 0 -14.5 -5.5t-10.5 -18.5h-14q4 17 15 28.5t27 11.5q9 0 16 -4.5
t14 -9.5t12 -8t12 -3q8 0 15 5t11 18h14q-3 -11 -9.5 -20t-15 -14t-18.5 -5z" />
    <glyph glyph-name="uni1EAB" unicode="&#x1eab;" horiz-adv-x="350" 
d="M113 -8q-9 0 -26 2.5t-32.5 13t-24 34t-1.5 66.5l45 276q9 57 27.5 82.5t43.5 32t53 6.5q30 0 60.5 -10.5t37.5 -39.5l5 40h25l-70 -495h-25l13 93q-8 -21 -24 -44.5t-42 -40t-65 -16.5zM122 10q29 0 51 16t37.5 40t25.5 50.5t15.5 48t6.5 31.5l32 226q-2 7 -9 22.5
t-25.5 29.5t-58.5 14t-60.5 -15t-28.5 -40t-13 -56l-42 -271q-5 -34 1.5 -54t19.5 -28.5t26.5 -11t21.5 -2.5zM127 547l97 82h25l73 -82h-21l-68 65l-84 -65h-22zM274 652q-12 0 -19 3.5t-19 13.5q-7 5 -16 12t-21 7t-21.5 -8t-15.5 -27h-18q6 23 21 38t37 15q12 0 22 -6
t20 -14q9 -7 16 -11t17 -4q12 0 21.5 7t15.5 26h18q-6 -22 -21 -37t-37 -15z" />
    <glyph glyph-name="uni1EAC" unicode="&#x1eac;" horiz-adv-x="352" 
d="M-18 0l233 591h20l64 -591h-24l-18 158h-189l-63 -158h-23zM73 175h183l-40 359zM141 -92q-9 0 -15.5 6.5t-6.5 15.5t6.5 15t15.5 6t15.5 -6t6.5 -15t-6.5 -15.5t-15.5 -6.5zM132 628l97 82h25l73 -82h-21l-68 65l-84 -65h-22z" />
    <glyph glyph-name="uni1EAD" unicode="&#x1ead;" horiz-adv-x="350" 
d="M113 -8q-9 0 -26 2.5t-32.5 13t-24 34t-1.5 66.5l45 276q9 57 27.5 82.5t43.5 32t53 6.5q30 0 60.5 -10.5t37.5 -39.5l5 40h25l-70 -495h-25l13 93q-8 -21 -24 -44.5t-42 -40t-65 -16.5zM122 10q29 0 51 16t37.5 40t25.5 50.5t15.5 48t6.5 31.5l32 226q-2 7 -9 22.5
t-25.5 29.5t-58.5 14t-60.5 -15t-28.5 -40t-13 -56l-42 -271q-5 -34 1.5 -54t19.5 -28.5t26.5 -11t21.5 -2.5zM130 -92q-9 0 -15.5 6.5t-6.5 15.5t6.5 15t15.5 6t15.5 -6t6.5 -15t-6.5 -15.5t-15.5 -6.5zM127 547l97 82h25l73 -82h-21l-68 65l-84 -65h-22z" />
    <glyph glyph-name="uni1EAE" unicode="&#x1eae;" horiz-adv-x="352" 
d="M-18 0l233 591h20l64 -591h-24l-18 158h-189l-63 -158h-23zM73 175h183l-40 359zM228 625q-24 0 -36 9.5t-16 23t-3 25.5h19q0 -22 10 -32t28 -10q20 0 33.5 10t18.5 32h19q-4 -19 -21.5 -38.5t-51.5 -19.5zM221 691l43 62h29l-57 -62h-15z" />
    <glyph glyph-name="uni1EAF" unicode="&#x1eaf;" horiz-adv-x="350" 
d="M113 -8q-9 0 -26 2.5t-32.5 13t-24 34t-1.5 66.5l45 276q9 57 27.5 82.5t43.5 32t53 6.5q30 0 60.5 -10.5t37.5 -39.5l5 40h25l-70 -495h-25l13 93q-8 -21 -24 -44.5t-42 -40t-65 -16.5zM122 10q29 0 51 16t37.5 40t25.5 50.5t15.5 48t6.5 31.5l32 226q-2 7 -9 22.5
t-25.5 29.5t-58.5 14t-60.5 -15t-28.5 -40t-13 -56l-42 -271q-5 -34 1.5 -54t19.5 -28.5t26.5 -11t21.5 -2.5zM223 543q-24 0 -39.5 8t-23.5 20.5t-11 26.5t-2 26h19q1 -32 17 -48t43 -16q29 0 50 15.5t29 48.5h19q-4 -16 -16 -35t-32.5 -32.5t-52.5 -13.5zM216 634l62 87
h32l-79 -87h-15z" />
    <glyph glyph-name="uni1EB0" unicode="&#x1eb0;" horiz-adv-x="352" 
d="M-18 0l233 591h20l64 -591h-24l-18 158h-189l-63 -158h-23zM73 175h183l-40 359zM228 625q-24 0 -36 9.5t-16 23t-3 25.5h19q0 -22 10 -32t28 -10q20 0 33.5 10t18.5 32h19q-4 -19 -21.5 -38.5t-51.5 -19.5zM245 691l-44 62h28l31 -62h-15z" />
    <glyph glyph-name="uni1EB1" unicode="&#x1eb1;" horiz-adv-x="350" 
d="M113 -8q-9 0 -26 2.5t-32.5 13t-24 34t-1.5 66.5l45 276q9 57 27.5 82.5t43.5 32t53 6.5q30 0 60.5 -10.5t37.5 -39.5l5 40h25l-70 -495h-25l13 93q-8 -21 -24 -44.5t-42 -40t-65 -16.5zM122 10q29 0 51 16t37.5 40t25.5 50.5t15.5 48t6.5 31.5l32 226q-2 7 -9 22.5
t-25.5 29.5t-58.5 14t-60.5 -15t-28.5 -40t-13 -56l-42 -271q-5 -34 1.5 -54t19.5 -28.5t26.5 -11t21.5 -2.5zM223 543q-24 0 -39.5 8t-23.5 20.5t-11 26.5t-2 26h19q1 -32 17 -48t43 -16q29 0 50 15.5t29 48.5h19q-4 -16 -16 -35t-32.5 -32.5t-52.5 -13.5zM251 634l-61 87
h32l44 -87h-15z" />
    <glyph glyph-name="uni1EB2" unicode="&#x1eb2;" horiz-adv-x="352" 
d="M-18 0l233 591h20l64 -591h-24l-18 158h-189l-63 -158h-23zM73 175h183l-40 359zM228 625q-24 0 -36 9.5t-16 23t-3 25.5h19q0 -22 10 -32t28 -10q20 0 33.5 10t18.5 32h19q-4 -19 -21.5 -38.5t-51.5 -19.5zM232 688l1 13q1 10 9.5 13.5t16.5 7.5t8 15v2q0 8 -3 16t-16 8
q-17 0 -22 -17l-15 3q10 27 41 27q20 0 26 -11t6 -27v-1q0 -13 -5.5 -19t-12.5 -8.5t-12.5 -5t-5.5 -7.5v-9h-16z" />
    <glyph glyph-name="uni1EB3" unicode="&#x1eb3;" horiz-adv-x="350" 
d="M113 -8q-9 0 -26 2.5t-32.5 13t-24 34t-1.5 66.5l45 276q9 57 27.5 82.5t43.5 32t53 6.5q30 0 60.5 -10.5t37.5 -39.5l5 40h25l-70 -495h-25l13 93q-8 -21 -24 -44.5t-42 -40t-65 -16.5zM122 10q29 0 51 16t37.5 40t25.5 50.5t15.5 48t6.5 31.5l32 226q-2 7 -9 22.5
t-25.5 29.5t-58.5 14t-60.5 -15t-28.5 -40t-13 -56l-42 -271q-5 -34 1.5 -54t19.5 -28.5t26.5 -11t21.5 -2.5zM223 543q-24 0 -39.5 8t-23.5 20.5t-11 26.5t-2 26h19q1 -32 17 -48t43 -16q29 0 50 15.5t29 48.5h19q-4 -16 -16 -35t-32.5 -32.5t-52.5 -13.5zM231 630l2 19
q2 14 14 18.5t23.5 10.5t11.5 22v3q0 13 -5 24.5t-24 11.5q-25 0 -34 -25l-17 4q7 17 20 26.5t35 9.5q26 0 34.5 -14t8.5 -38v-2q0 -18 -7.5 -26.5t-18 -12.5t-18.5 -7.5t-8 -10.5l-1 -13h-16z" />
    <glyph glyph-name="uni1EB4" unicode="&#x1eb4;" horiz-adv-x="352" 
d="M-18 0l233 591h20l64 -591h-24l-18 158h-189l-63 -158h-23zM73 175h183l-40 359zM228 625q-24 0 -36 9.5t-16 23t-3 25.5h19q0 -22 10 -32t28 -10q20 0 33.5 10t18.5 32h19q-4 -19 -21.5 -38.5t-51.5 -19.5zM271 698q-10 0 -15 3.5t-13 9.5q-4 4 -11 8.5t-15 4.5
q-9 0 -15.5 -6.5t-10.5 -18.5h-13q4 17 15 28.5t27 11.5q9 0 16 -4t14 -10q7 -5 12.5 -7.5t11.5 -2.5q8 0 14.5 5t10.5 18h15q-4 -17 -16 -28.5t-27 -11.5z" />
    <glyph glyph-name="uni1EB5" unicode="&#x1eb5;" horiz-adv-x="350" 
d="M113 -8q-9 0 -26 2.5t-32.5 13t-24 34t-1.5 66.5l45 276q9 57 27.5 82.5t43.5 32t53 6.5q30 0 60.5 -10.5t37.5 -39.5l5 40h25l-70 -495h-25l13 93q-8 -21 -24 -44.5t-42 -40t-65 -16.5zM122 10q29 0 51 16t37.5 40t25.5 50.5t15.5 48t6.5 31.5l32 226q-2 7 -9 22.5
t-25.5 29.5t-58.5 14t-60.5 -15t-28.5 -40t-13 -56l-42 -271q-5 -34 1.5 -54t19.5 -28.5t26.5 -11t21.5 -2.5zM223 543q-24 0 -39.5 8t-23.5 20.5t-11 26.5t-2 26h19q1 -32 17 -48t43 -16q29 0 50 15.5t29 48.5h19q-4 -16 -16 -35t-32.5 -32.5t-52.5 -13.5zM284 646
q-12 0 -19 3.5t-19 13.5q-7 5 -16 12t-21 7t-21.5 -8t-15.5 -27h-18q6 23 21 38t37 15q12 0 22 -6t20 -14q9 -7 16 -11t17 -4q12 0 21.5 7t15.5 26h18q-6 -22 -21 -37t-37 -15z" />
    <glyph glyph-name="uni1EB6" unicode="&#x1eb6;" horiz-adv-x="352" 
d="M-18 0l233 591h20l64 -591h-24l-18 158h-189l-63 -158h-23zM73 175h183l-40 359zM141 -92q-9 0 -15.5 6.5t-6.5 15.5t6.5 15t15.5 6t15.5 -6t6.5 -15t-6.5 -15.5t-15.5 -6.5zM228 627q-24 0 -39.5 8t-23.5 20.5t-11 26.5t-2 26h19q1 -32 17 -48t43 -16q29 0 50 15.5
t29 48.5h19q-4 -16 -16 -35t-32.5 -32.5t-52.5 -13.5z" />
    <glyph glyph-name="uni1EB7" unicode="&#x1eb7;" horiz-adv-x="350" 
d="M113 -8q-9 0 -26 2.5t-32.5 13t-24 34t-1.5 66.5l45 276q9 57 27.5 82.5t43.5 32t53 6.5q30 0 60.5 -10.5t37.5 -39.5l5 40h25l-70 -495h-25l13 93q-8 -21 -24 -44.5t-42 -40t-65 -16.5zM122 10q29 0 51 16t37.5 40t25.5 50.5t15.5 48t6.5 31.5l32 226q-2 7 -9 22.5
t-25.5 29.5t-58.5 14t-60.5 -15t-28.5 -40t-13 -56l-42 -271q-5 -34 1.5 -54t19.5 -28.5t26.5 -11t21.5 -2.5zM130 -92q-9 0 -15.5 6.5t-6.5 15.5t6.5 15t15.5 6t15.5 -6t6.5 -15t-6.5 -15.5t-15.5 -6.5zM223 543q-24 0 -39.5 8t-23.5 20.5t-11 26.5t-2 26h19q1 -32 17 -48
t43 -16q29 0 50 15.5t29 48.5h19q-4 -16 -16 -35t-32.5 -32.5t-52.5 -13.5z" />
    <glyph glyph-name="uni1EB8" unicode="&#x1eb8;" horiz-adv-x="349" 
d="M43 0l84 591h243l-4 -19h-218l-35 -251h168l-2 -19h-169l-39 -283h218l-3 -19h-243zM130 -92q-9 0 -15.5 6.5t-6.5 15.5t6.5 15t15.5 6t15.5 -6t6.5 -15t-6.5 -15.5t-15.5 -6.5z" />
    <glyph glyph-name="uni1EB9" unicode="&#x1eb9;" horiz-adv-x="336" 
d="M134 -9q-45 0 -70 11.5t-32.5 39.5t-0.5 79l37 264q10 69 44.5 93t97.5 24q72 0 95.5 -31t7.5 -104q-10 -44 -40.5 -70.5t-69.5 -41t-75.5 -21t-57.5 -9.5l-15 -105q-9 -61 6.5 -85t73.5 -24q59 0 81.5 24t30.5 85l7 53h24l-7 -52q-7 -51 -21.5 -79t-42 -39.5
t-73.5 -11.5zM73 247q26 3 59.5 9.5t66 20t56.5 36t32 56.5q14 56 -1 85.5t-75 29.5q-57 0 -84 -23t-35 -78zM123 -92q-9 0 -15.5 6.5t-6.5 15.5t6.5 15t15.5 6t15.5 -6t6.5 -15t-6.5 -15.5t-15.5 -6.5z" />
    <glyph glyph-name="uni1EBA" unicode="&#x1eba;" horiz-adv-x="349" 
d="M43 0l84 591h243l-4 -19h-218l-35 -251h168l-2 -19h-169l-39 -283h218l-3 -19h-243zM242 620l2 19q2 14 14 18.5t23.5 10.5t11.5 22v3q0 13 -5 24.5t-24 11.5q-25 0 -34 -25l-17 4q7 17 20 26.5t35 9.5q26 0 34.5 -14t8.5 -38v-2q0 -18 -7.5 -26.5t-18 -12.5t-18.5 -7.5
t-8 -10.5l-1 -13h-16z" />
    <glyph glyph-name="uni1EBB" unicode="&#x1ebb;" horiz-adv-x="336" 
d="M134 -9q-45 0 -70 11.5t-32.5 39.5t-0.5 79l37 264q10 69 44.5 93t97.5 24q72 0 95.5 -31t7.5 -104q-10 -44 -40.5 -70.5t-69.5 -41t-75.5 -21t-57.5 -9.5l-15 -105q-9 -61 6.5 -85t73.5 -24q59 0 81.5 24t30.5 85l7 53h24l-7 -52q-7 -51 -21.5 -79t-42 -39.5
t-73.5 -11.5zM73 247q26 3 59.5 9.5t66 20t56.5 36t32 56.5q14 56 -1 85.5t-75 29.5q-57 0 -84 -23t-35 -78zM198 540l2 19q2 14 14 18.5t23.5 10.5t11.5 22v3q0 13 -5 24.5t-24 11.5q-25 0 -34 -25l-17 4q7 17 20 26.5t35 9.5q26 0 34.5 -14t8.5 -38v-2q0 -18 -7.5 -26.5
t-18 -12.5t-18.5 -7.5t-8 -10.5l-1 -13h-16z" />
    <glyph glyph-name="uni1EBC" unicode="&#x1ebc;" horiz-adv-x="349" 
d="M43 0l84 591h243l-4 -19h-218l-35 -251h168l-2 -19h-169l-39 -283h218l-3 -19h-243zM292 641q-12 0 -19 3.5t-19 13.5q-7 5 -16 12t-21 7t-21.5 -8t-15.5 -27h-18q6 23 21 38t37 15q12 0 22 -6t20 -14q9 -7 16 -11t17 -4q12 0 21.5 7t15.5 26h18q-6 -22 -21 -37t-37 -15z
" />
    <glyph glyph-name="uni1EBD" unicode="&#x1ebd;" horiz-adv-x="336" 
d="M134 -9q-45 0 -70 11.5t-32.5 39.5t-0.5 79l37 264q10 69 44.5 93t97.5 24q72 0 95.5 -31t7.5 -104q-10 -44 -40.5 -70.5t-69.5 -41t-75.5 -21t-57.5 -9.5l-15 -105q-9 -61 6.5 -85t73.5 -24q59 0 81.5 24t30.5 85l7 53h24l-7 -52q-7 -51 -21.5 -79t-42 -39.5
t-73.5 -11.5zM73 247q26 3 59.5 9.5t66 20t56.5 36t32 56.5q14 56 -1 85.5t-75 29.5q-57 0 -84 -23t-35 -78zM251 556q-12 0 -19 3.5t-19 13.5q-7 5 -16 12t-21 7t-21.5 -8t-15.5 -27h-18q6 23 21 38t37 15q12 0 22 -6t20 -14q9 -7 16 -11t17 -4q12 0 21.5 7t15.5 26h18
q-6 -22 -21 -37t-37 -15z" />
    <glyph glyph-name="uni1EBE" unicode="&#x1ebe;" horiz-adv-x="349" 
d="M43 0l84 591h243l-4 -19h-218l-35 -251h168l-2 -19h-169l-39 -283h218l-3 -19h-243zM181 627l69 59h21l51 -59h-20l-44 43l-56 -43h-21zM323 662l44 62h28l-57 -62h-15z" />
    <glyph glyph-name="uni1EBF" unicode="&#x1ebf;" horiz-adv-x="336" 
d="M134 -9q-45 0 -70 11.5t-32.5 39.5t-0.5 79l37 264q10 69 44.5 93t97.5 24q72 0 95.5 -31t7.5 -104q-10 -44 -40.5 -70.5t-69.5 -41t-75.5 -21t-57.5 -9.5l-15 -105q-9 -61 6.5 -85t73.5 -24q59 0 81.5 24t30.5 85l7 53h24l-7 -52q-7 -51 -21.5 -79t-42 -39.5
t-73.5 -11.5zM73 247q26 3 59.5 9.5t66 20t56.5 36t32 56.5q14 56 -1 85.5t-75 29.5q-57 0 -84 -23t-35 -78zM113 547l97 82h25l73 -82h-21l-68 65l-84 -65h-22zM310 596l62 87h32l-79 -87h-15z" />
    <glyph glyph-name="uni1EC0" unicode="&#x1ec0;" horiz-adv-x="349" 
d="M43 0l84 591h243l-4 -19h-218l-35 -251h168l-2 -19h-169l-39 -283h218l-3 -19h-243zM181 627l69 59h21l51 -59h-20l-44 43l-56 -43h-21zM347 662l-44 62h29l30 -62h-15z" />
    <glyph glyph-name="uni1EC1" unicode="&#x1ec1;" horiz-adv-x="336" 
d="M134 -9q-45 0 -70 11.5t-32.5 39.5t-0.5 79l37 264q10 69 44.5 93t97.5 24q72 0 95.5 -31t7.5 -104q-10 -44 -40.5 -70.5t-69.5 -41t-75.5 -21t-57.5 -9.5l-15 -105q-9 -61 6.5 -85t73.5 -24q59 0 81.5 24t30.5 85l7 53h24l-7 -52q-7 -51 -21.5 -79t-42 -39.5
t-73.5 -11.5zM73 247q26 3 59.5 9.5t66 20t56.5 36t32 56.5q14 56 -1 85.5t-75 29.5q-57 0 -84 -23t-35 -78zM113 547l97 82h25l73 -82h-21l-68 65l-84 -65h-22zM345 596l-61 87h32l44 -87h-15z" />
    <glyph glyph-name="uni1EC2" unicode="&#x1ec2;" horiz-adv-x="349" 
d="M43 0l84 591h243l-4 -19h-218l-35 -251h168l-2 -19h-169l-39 -283h218l-3 -19h-243zM181 627l69 59h21l51 -59h-20l-44 43l-56 -43h-21zM334 659l2 13q2 10 10 13.5t16 7.5t8 15v3q0 6 -2.5 15t-16.5 9q-17 0 -23 -17l-15 3q5 12 15 19t26 7q20 0 26 -10.5t6 -26.5v-2
q0 -13 -5.5 -19t-12.5 -8.5t-12.5 -5t-5.5 -7.5v-9h-16z" />
    <glyph glyph-name="uni1EC3" unicode="&#x1ec3;" horiz-adv-x="336" 
d="M134 -9q-45 0 -70 11.5t-32.5 39.5t-0.5 79l37 264q10 69 44.5 93t97.5 24q72 0 95.5 -31t7.5 -104q-10 -44 -40.5 -70.5t-69.5 -41t-75.5 -21t-57.5 -9.5l-15 -105q-9 -61 6.5 -85t73.5 -24q59 0 81.5 24t30.5 85l7 53h24l-7 -52q-7 -51 -21.5 -79t-42 -39.5
t-73.5 -11.5zM73 247q26 3 59.5 9.5t66 20t56.5 36t32 56.5q14 56 -1 85.5t-75 29.5q-57 0 -84 -23t-35 -78zM113 547l97 82h25l73 -82h-21l-68 65l-84 -65h-22zM325 592l2 19q2 14 14 18.5t23.5 10.5t11.5 22v3q0 13 -5 24.5t-24 11.5q-25 0 -34 -25l-17 4q7 17 20 26.5
t35 9.5q26 0 34.5 -14t8.5 -38v-2q0 -18 -7.5 -26.5t-18 -12.5t-18.5 -7.5t-8 -10.5l-1 -13h-16z" />
    <glyph glyph-name="uni1EC4" unicode="&#x1ec4;" horiz-adv-x="349" 
d="M43 0l84 591h243l-4 -19h-218l-35 -251h168l-2 -19h-169l-39 -283h218l-3 -19h-243zM181 627l69 59h21l51 -59h-20l-44 43l-56 -43h-21zM287 702q-8 0 -13.5 2.5t-13.5 9.5q-5 4 -11.5 8.5t-15.5 4.5q-8 0 -14.5 -5.5t-10.5 -18.5h-14q4 17 15 28.5t27 11.5q9 0 16 -4.5
t14 -9.5t12 -8t12 -3q8 0 15 5t11 18h14q-3 -11 -9.5 -20t-15 -14t-18.5 -5z" />
    <glyph glyph-name="uni1EC5" unicode="&#x1ec5;" horiz-adv-x="336" 
d="M134 -9q-45 0 -70 11.5t-32.5 39.5t-0.5 79l37 264q10 69 44.5 93t97.5 24q72 0 95.5 -31t7.5 -104q-10 -44 -40.5 -70.5t-69.5 -41t-75.5 -21t-57.5 -9.5l-15 -105q-9 -61 6.5 -85t73.5 -24q59 0 81.5 24t30.5 85l7 53h24l-7 -52q-7 -51 -21.5 -79t-42 -39.5
t-73.5 -11.5zM73 247q26 3 59.5 9.5t66 20t56.5 36t32 56.5q14 56 -1 85.5t-75 29.5q-57 0 -84 -23t-35 -78zM113 547l97 82h25l73 -82h-21l-68 65l-84 -65h-22zM260 652q-12 0 -19 3.5t-19 13.5q-7 5 -16 12t-21 7t-21.5 -8t-15.5 -27h-18q6 23 21 38t37 15q12 0 22 -6
t20 -14q9 -7 16 -11t17 -4q12 0 21.5 7t15.5 26h18q-6 -22 -21 -37t-37 -15z" />
    <glyph glyph-name="uni1EC6" unicode="&#x1ec6;" horiz-adv-x="349" 
d="M43 0l84 591h243l-4 -19h-218l-35 -251h168l-2 -19h-169l-39 -283h218l-3 -19h-243zM130 -92q-9 0 -15.5 6.5t-6.5 15.5t6.5 15t15.5 6t15.5 -6t6.5 -15t-6.5 -15.5t-15.5 -6.5zM154 628l97 82h25l73 -82h-21l-68 65l-84 -65h-22z" />
    <glyph glyph-name="uni1EC7" unicode="&#x1ec7;" horiz-adv-x="336" 
d="M134 -9q-45 0 -70 11.5t-32.5 39.5t-0.5 79l37 264q10 69 44.5 93t97.5 24q72 0 95.5 -31t7.5 -104q-10 -44 -40.5 -70.5t-69.5 -41t-75.5 -21t-57.5 -9.5l-15 -105q-9 -61 6.5 -85t73.5 -24q59 0 81.5 24t30.5 85l7 53h24l-7 -52q-7 -51 -21.5 -79t-42 -39.5
t-73.5 -11.5zM73 247q26 3 59.5 9.5t66 20t56.5 36t32 56.5q14 56 -1 85.5t-75 29.5q-57 0 -84 -23t-35 -78zM123 -92q-9 0 -15.5 6.5t-6.5 15.5t6.5 15t15.5 6t15.5 -6t6.5 -15t-6.5 -15.5t-15.5 -6.5zM113 547l97 82h25l73 -82h-21l-68 65l-84 -65h-22z" />
    <glyph glyph-name="uni1EC8" unicode="&#x1ec8;" horiz-adv-x="181" 
d="M43 0l84 591h24l-84 -591h-24zM135 620l2 19q2 14 14 18.5t23.5 10.5t11.5 22v3q0 13 -5 24.5t-24 11.5q-25 0 -34 -25l-17 4q7 17 20 26.5t35 9.5q26 0 34.5 -14t8.5 -38v-2q0 -18 -7.5 -26.5t-18 -12.5t-18.5 -7.5t-8 -10.5l-1 -13h-16z" />
    <glyph glyph-name="uni1EC9" unicode="&#x1ec9;" horiz-adv-x="151" 
d="M29 0l70 495h23l-70 -495h-23zM109 540l2 19q2 14 14 18.5t23.5 10.5t11.5 22v3q0 13 -5 24.5t-24 11.5q-25 0 -34 -25l-17 4q7 17 20 26.5t35 9.5q26 0 34.5 -14t8.5 -38v-2q0 -18 -7.5 -26.5t-18 -12.5t-18.5 -7.5t-8 -10.5l-1 -13h-16z" />
    <glyph glyph-name="uni1ECA" unicode="&#x1eca;" horiz-adv-x="181" 
d="M43 0l84 591h24l-84 -591h-24zM46 -92q-9 0 -15.5 6.5t-6.5 15.5t6.5 15t15.5 6t15.5 -6t6.5 -15t-6.5 -15.5t-15.5 -6.5z" />
    <glyph glyph-name="uni1ECB" unicode="&#x1ecb;" horiz-adv-x="151" 
d="M29 0l70 495h23l-70 -495h-23zM126 561q-9 0 -15.5 6.5t-6.5 15.5t6.5 15t15.5 6t15.5 -6t6.5 -15t-6.5 -15.5t-15.5 -6.5zM34 -92q-9 0 -15.5 6.5t-6.5 15.5t6.5 15t15.5 6t15.5 -6t6.5 -15t-6.5 -15.5t-15.5 -6.5z" />
    <glyph glyph-name="uni1ECC" unicode="&#x1ecc;" 
d="M167 -12q-39 0 -69 9t-43.5 37t-5.5 86l50 349q8 58 30 85.5t54.5 36t71.5 8.5q40 0 69.5 -9t43.5 -36.5t6 -84.5l-49 -349q-8 -59 -30 -87t-54.5 -36.5t-73.5 -8.5zM170 6q34 0 61 7.5t45 32t25 75.5l48 345q7 51 -4 75.5t-35.5 32t-57.5 7.5q-34 0 -61 -7.5t-45 -32
t-25 -75.5l-48 -345q-7 -51 4 -75.5t35.5 -32t57.5 -7.5zM160 -92q-9 0 -15.5 6.5t-6.5 15.5t6.5 15t15.5 6t15.5 -6t6.5 -15t-6.5 -15.5t-15.5 -6.5z" />
    <glyph glyph-name="uni1ECD" unicode="&#x1ecd;" horiz-adv-x="340" 
d="M135 -7q-43 0 -66 11.5t-32 30.5t-8.5 42.5t3.5 47.5l34 247q5 32 16 62t39.5 49.5t85.5 19.5q42 0 65 -11.5t31.5 -30.5t8 -42t-3.5 -47l-34 -247q-4 -32 -15.5 -62.5t-39.5 -50t-84 -19.5zM137 13q46 0 69 17.5t32 44.5t13 55l33 237q4 28 3 54.5t-19 44t-64 17.5
t-69 -17.5t-32 -44t-13 -54.5l-33 -237q-4 -28 -3 -55t19 -44.5t64 -17.5zM125 -92q-9 0 -15.5 6.5t-6.5 15.5t6.5 15t15.5 6t15.5 -6t6.5 -15t-6.5 -15.5t-15.5 -6.5z" />
    <glyph glyph-name="uni1ECE" unicode="&#x1ece;" 
d="M167 -12q-39 0 -69 9t-43.5 37t-5.5 86l50 349q8 58 30 85.5t54.5 36t71.5 8.5q40 0 69.5 -9t43.5 -36.5t6 -84.5l-49 -349q-8 -59 -30 -87t-54.5 -36.5t-73.5 -8.5zM170 6q34 0 61 7.5t45 32t25 75.5l48 345q7 51 -4 75.5t-35.5 32t-57.5 7.5q-34 0 -61 -7.5t-45 -32
t-25 -75.5l-48 -345q-7 -51 4 -75.5t35.5 -32t57.5 -7.5zM249 620l2 19q2 14 14 18.5t23.5 10.5t11.5 22v3q0 13 -5 24.5t-24 11.5q-25 0 -34 -25l-17 4q7 17 20 26.5t35 9.5q26 0 34.5 -14t8.5 -38v-2q0 -18 -7.5 -26.5t-18 -12.5t-18.5 -7.5t-8 -10.5l-1 -13h-16z" />
    <glyph glyph-name="uni1ECF" unicode="&#x1ecf;" horiz-adv-x="340" 
d="M135 -7q-43 0 -66 11.5t-32 30.5t-8.5 42.5t3.5 47.5l34 247q5 32 16 62t39.5 49.5t85.5 19.5q42 0 65 -11.5t31.5 -30.5t8 -42t-3.5 -47l-34 -247q-4 -32 -15.5 -62.5t-39.5 -50t-84 -19.5zM137 13q46 0 69 17.5t32 44.5t13 55l33 237q4 28 3 54.5t-19 44t-64 17.5
t-69 -17.5t-32 -44t-13 -54.5l-33 -237q-4 -28 -3 -55t19 -44.5t64 -17.5zM200 540l2 19q2 14 14 18.5t23.5 10.5t11.5 22v3q0 13 -5 24.5t-24 11.5q-25 0 -34 -25l-17 4q7 17 20 26.5t35 9.5q26 0 34.5 -14t8.5 -38v-2q0 -18 -7.5 -26.5t-18 -12.5t-18.5 -7.5t-8 -10.5
l-1 -13h-16z" />
    <glyph glyph-name="uni1ED0" unicode="&#x1ed0;" 
d="M167 -12q-39 0 -69 9t-43.5 37t-5.5 86l50 349q8 58 30 85.5t54.5 36t71.5 8.5q40 0 69.5 -9t43.5 -36.5t6 -84.5l-49 -349q-8 -59 -30 -87t-54.5 -36.5t-73.5 -8.5zM170 6q34 0 61 7.5t45 32t25 75.5l48 345q7 51 -4 75.5t-35.5 32t-57.5 7.5q-34 0 -61 -7.5t-45 -32
t-25 -75.5l-48 -345q-7 -51 4 -75.5t35.5 -32t57.5 -7.5zM188 627l69 59h21l51 -59h-20l-44 43l-56 -43h-21zM330 662l44 62h28l-57 -62h-15z" />
    <glyph glyph-name="uni1ED1" unicode="&#x1ed1;" horiz-adv-x="340" 
d="M135 -7q-43 0 -66 11.5t-32 30.5t-8.5 42.5t3.5 47.5l34 247q5 32 16 62t39.5 49.5t85.5 19.5q42 0 65 -11.5t31.5 -30.5t8 -42t-3.5 -47l-34 -247q-4 -32 -15.5 -62.5t-39.5 -50t-84 -19.5zM137 13q46 0 69 17.5t32 44.5t13 55l33 237q4 28 3 54.5t-19 44t-64 17.5
t-69 -17.5t-32 -44t-13 -54.5l-33 -237q-4 -28 -3 -55t19 -44.5t64 -17.5zM115 547l97 82h25l73 -82h-21l-68 65l-84 -65h-22zM312 596l62 87h32l-79 -87h-15z" />
    </font>
</defs>
</svg>
